<svg width="20" height="20" viewBox="0 0 20 20" fill="none" xmlns="http://www.w3.org/2000/svg">
<path d="M8.99827 6.56056C9.30786 6.28537 9.33574 5.81131 9.06055 5.50173C8.78537 5.19214 8.31131 5.16425 8.00173 5.43944L8.99827 6.56056ZM3.50173 9.43946C3.19214 9.71465 3.16425 10.1887 3.43944 10.4983C3.71463 10.8079 4.18869 10.8358 4.49827 10.5606L3.50173 9.43946ZM4.49827 9.43938C4.18869 9.1642 3.71463 9.19208 3.43944 9.50167C3.16425 9.81125 3.19214 10.2853 3.50173 10.5605L4.49827 9.43938ZM8.00173 14.5605C8.31131 14.8357 8.78537 14.8078 9.06055 14.4982C9.33574 14.1886 9.30786 13.7146 8.99827 13.4394L8.00173 14.5605ZM4 9.25007C3.58579 9.25007 3.25 9.58585 3.25 10.0001C3.25 10.4143 3.58579 10.7501 4 10.7501V9.25007ZM16 10.7501C16.4142 10.7501 16.75 10.4143 16.75 10.0001C16.75 9.58585 16.4142 9.25007 16 9.25007V10.7501ZM8.00173 5.43944L3.50173 9.43946L4.49827 10.5606L8.99827 6.56056L8.00173 5.43944ZM3.50173 10.5605L8.00173 14.5605L8.99827 13.4394L4.49827 9.43938L3.50173 10.5605ZM4 10.7501H16V9.25007H4V10.7501Z" fill="#FB7E18"/>
</svg>
