<svg width="20" height="20" viewBox="0 0 20 20" fill="none" xmlns="http://www.w3.org/2000/svg">
<path d="M15.2003 7.47916L14.455 7.56374L15.2003 7.47916ZM15.5729 10.7626L16.3181 10.678V10.678L15.5729 10.7626ZM4.42838 10.7626L3.68317 10.678V10.678L4.42838 10.7626ZM4.80104 7.47916L5.54625 7.56374L4.80104 7.47916ZM3.70714 12.3933L3.13603 11.9071H3.13603L3.70714 12.3933ZM16.2942 12.3933L15.7231 12.8794L16.2942 12.3933ZM11.8923 3.64456H11.1423C11.1423 3.96514 11.346 4.25027 11.6493 4.35412L11.8923 3.64456ZM8.10903 3.64456L8.35197 4.35412C8.65527 4.25027 8.85903 3.96514 8.85903 3.64456H8.10903ZM13.203 16.9297C13.3483 16.5418 13.1517 16.1096 12.7639 15.9642C12.376 15.8188 11.9437 16.0154 11.7984 16.4033L13.203 16.9297ZM8.20295 16.4033C8.05759 16.0154 7.62532 15.8188 7.23745 15.9642C6.84958 16.1096 6.65299 16.5418 6.79835 16.9297L8.20295 16.4033ZM14.815 14.2498H5.18633V15.7498H14.815V14.2498ZM14.455 7.56374L14.8277 10.8471L16.3181 10.678L15.9455 7.39458L14.455 7.56374ZM5.1736 10.8471L5.54625 7.56374L4.05582 7.39458L3.68317 10.678L5.1736 10.8471ZM4.27825 12.8794C4.77462 12.2963 5.08881 11.5942 5.1736 10.8471L3.68317 10.678C3.63372 11.1136 3.44909 11.5394 3.13603 11.9071L4.27825 12.8794ZM14.8277 10.8471C14.9125 11.5942 15.2267 12.2963 15.7231 12.8794L16.8653 11.9071C16.5522 11.5394 16.3676 11.1136 16.3181 10.678L14.8277 10.8471ZM5.18633 14.2498C4.68366 14.2498 4.33997 14.0025 4.18483 13.7291C4.03709 13.4688 4.03791 13.1618 4.27825 12.8794L3.13603 11.9071C2.46218 12.6988 2.44077 13.695 2.88026 14.4695C3.31234 15.2309 4.16535 15.7498 5.18633 15.7498V14.2498ZM14.815 15.7498C15.8359 15.7498 16.689 15.2309 17.121 14.4695C17.5605 13.695 17.5391 12.6988 16.8653 11.9071L15.7231 12.8794C15.9634 13.1618 15.9642 13.4688 15.8165 13.7291C15.6613 14.0025 15.3176 14.2498 14.815 14.2498V15.7498ZM12.6423 3.64456V3.55813H11.1423V3.64456H12.6423ZM15.9455 7.39458C15.7064 5.28832 14.1458 3.6234 12.1352 2.93499L11.6493 4.35412C13.2094 4.88826 14.2922 6.12907 14.455 7.56374L15.9455 7.39458ZM8.85903 3.64456V3.55813H7.35903V3.64456H8.85903ZM5.54625 7.56374C5.70908 6.12907 6.79191 4.88826 8.35197 4.35412L7.86608 2.93499C5.85548 3.6234 4.29488 5.28832 4.05582 7.39458L5.54625 7.56374ZM10.0007 2.4165C10.6312 2.4165 11.1423 2.92763 11.1423 3.55813H12.6423C12.6423 2.0992 11.4596 0.916504 10.0007 0.916504V2.4165ZM10.0007 0.916504C8.54172 0.916504 7.35903 2.0992 7.35903 3.55813H8.85903C8.85903 2.92763 9.37015 2.4165 10.0007 2.4165V0.916504ZM11.7984 16.4033C11.5484 17.0702 10.8544 17.5832 10.0007 17.5832V19.0832C11.4553 19.0832 12.7251 18.2048 13.203 16.9297L11.7984 16.4033ZM10.0007 17.5832C9.14691 17.5832 8.45289 17.0702 8.20295 16.4033L6.79835 16.9297C7.27622 18.2048 8.54601 19.0832 10.0007 19.0832V17.5832Z" fill="#FB7E18"/>
</svg>
