<svg width="32" height="32" viewBox="0 0 32 32" fill="none" xmlns="http://www.w3.org/2000/svg">
<path d="M10.6088 2C8.08305 2 6.03775 3.98998 6.03775 6.44741C6.03775 8.90484 8.08305 10.8948 10.6088 10.8948C13.1345 10.8948 15.1798 8.90484 15.1798 6.44741C15.1798 3.98998 13.1345 2 10.6088 2ZM21.2334 10.1068V13.2855H26.1956V10.1068H21.2334ZM21.2334 8.15025C21.2334 8.37062 21.048 8.55092 20.8215 8.55092C20.5951 8.55092 20.4097 8.37062 20.4097 8.15025V7.17529C20.4097 6.12688 20.7666 5.16528 21.35 4.46411C22.6472 2.9015 24.7749 2.9015 26.0721 4.46411C26.6486 5.16528 27.0124 6.12688 27.0124 7.17529V8.15025C27.0124 8.37062 26.827 8.55092 26.6005 8.55092C26.3741 8.55092 26.1887 8.37062 26.1887 8.15025V7.17529C26.1887 6.30718 25.9005 5.52588 25.4269 4.96494C24.4592 3.803 22.9492 3.803 21.9883 4.96494C21.5216 5.52588 21.2265 6.30718 21.2265 7.17529V8.15025H21.2334ZM21.3089 17.6461H9.58613L8.06932 30H22.8188L21.3089 17.6461ZM17.2045 16.8447H21.6726C21.8922 16.8447 22.0707 17.0117 22.0844 17.2187L22.9149 23.9766H31L29.4969 10.1068H27.0192V13.6861C27.0192 13.9065 26.8339 14.0868 26.6074 14.0868H20.8284C20.6019 14.0868 20.4166 13.9065 20.4166 13.6861V10.1068H17.9389L17.2045 16.8447ZM17.7399 20.384C17.7399 20.1636 17.9252 19.9833 18.1517 19.9833C18.3782 19.9833 18.5635 20.1636 18.5635 20.384V21.192C18.5635 22.8214 17.129 24.0968 15.4544 24.0968C13.7728 24.0968 12.3384 22.8147 12.3384 21.192V20.2571C12.3384 20.0367 12.5237 19.8564 12.7502 19.8564C12.9767 19.8564 13.162 20.0367 13.162 20.2571V21.192C13.162 22.3806 14.2189 23.2955 15.4544 23.2955C16.6829 23.2955 17.7399 22.374 17.7399 21.192V20.384ZM4.34248 21.2654V18.3472C4.34248 18.1269 4.5278 17.9466 4.75429 17.9466C4.98078 17.9466 5.16609 18.1269 5.16609 18.3472V21.2654H8.3164L8.81743 17.1987C8.84489 16.9917 9.01647 16.8447 9.22924 16.8447H16.3878L16.827 12.798C15.7975 12.217 14.6376 11.9098 13.4297 11.9098H7.80851C4.06108 11.9098 1 14.8948 1 18.5342V21.2654H4.34248Z" fill="url(#paint0_linear_1577_284)"/>
<defs>
<linearGradient id="paint0_linear_1577_284" x1="16" y1="2" x2="16" y2="30" gradientUnits="userSpaceOnUse">
<stop stop-color="#FC8019"/>
<stop offset="1" stop-color="#FF952A"/>
<stop offset="1" stop-color="#FC8019" stop-opacity="0"/>
</linearGradient>
</defs>
</svg>
