<svg width="18" height="18" viewBox="0 0 18 18" fill="none" xmlns="http://www.w3.org/2000/svg">
<g clip-path="url(#clip0_1557_3709)">
<path d="M13.6846 11.9074C13.0965 11.3268 12.3624 11.3268 11.7781 11.9074C11.3323 12.3493 10.8866 12.7913 10.4484 13.2408C10.3285 13.3644 10.2274 13.3906 10.0813 13.3082C9.79288 13.1509 9.48574 13.0236 9.20857 12.8513C7.91633 12.0385 6.83384 10.9934 5.87496 9.8173C5.39926 9.23298 4.97601 8.60746 4.6801 7.90328C4.62017 7.76095 4.63141 7.6673 4.74752 7.55119C5.19325 7.12044 5.62774 6.67846 6.06598 6.23647C6.67652 5.62219 6.67652 4.90303 6.06224 4.285C5.71389 3.93291 5.36555 3.58831 5.01721 3.23622C4.65763 2.87664 4.30179 2.51332 3.93847 2.15748C3.3504 1.5844 2.61626 1.5844 2.03194 2.16123C1.58246 2.60321 1.15172 3.05643 0.694749 3.49093C0.271493 3.89171 0.0579922 4.38239 0.0130446 4.95547C-0.0581224 5.88813 0.170361 6.76835 0.492485 7.6261C1.15172 9.40153 2.15555 10.9784 3.37288 12.4243C5.01721 14.3795 6.97992 15.9264 9.27599 17.0426C10.3098 17.5445 11.381 17.9303 12.5459 17.994C13.3475 18.039 14.0442 17.8367 14.6023 17.2112C14.9843 16.7842 15.4151 16.3946 15.8196 15.9863C16.4189 15.3796 16.4227 14.6454 15.8271 14.0461C15.1154 13.3307 14.4 12.619 13.6846 11.9074ZM12.9692 8.92209L14.3513 8.68612C14.1341 7.41635 13.5348 6.26644 12.6246 5.35251C11.662 4.38988 10.4446 3.78309 9.10369 3.5958L8.90892 4.98543C9.94646 5.13151 10.8904 5.59972 11.6357 6.3451C12.3399 7.04928 12.8006 7.94074 12.9692 8.92209ZM15.1304 2.9141C13.5348 1.31846 11.5159 0.310887 9.28723 0L9.09245 1.38963C11.0177 1.65931 12.7632 2.53205 14.1416 3.90669C15.4488 5.21392 16.3065 6.86574 16.6174 8.68237L17.9996 8.4464C17.6362 6.34135 16.6436 4.43108 15.1304 2.9141Z" fill="#FB7E18"/>
</g>
<defs>
<clipPath id="clip0_1557_3709">
<rect width="18" height="18" fill="white"/>
</clipPath>
</defs>
</svg>
