<svg width="40" height="34" viewBox="0 0 40 34" fill="none" xmlns="http://www.w3.org/2000/svg">
<path fill-rule="evenodd" clip-rule="evenodd" d="M15.2338 29.3955C15.2315 30.6008 14.253 31.5762 13.0477 31.5747C11.8425 31.5731 10.8664 30.5952 10.8672 29.39C10.868 28.1847 11.8452 27.208 13.0505 27.208C13.6301 27.2086 14.1858 27.4393 14.5952 27.8496C15.0047 28.2598 15.2344 28.8159 15.2338 29.3955V29.3955Z" stroke="#FB7E18" stroke-width="3" stroke-linecap="round" stroke-linejoin="round"/>
<path fill-rule="evenodd" clip-rule="evenodd" d="M26.8784 29.3955C26.8761 30.6008 25.8976 31.5762 24.6923 31.5747C23.487 31.5731 22.511 30.5952 22.5117 29.39C22.5125 28.1847 23.4898 27.208 24.695 27.208C25.2747 27.2086 25.8303 27.4393 26.2398 27.8496C26.6492 28.2598 26.8789 28.8159 26.8784 29.3955V29.3955Z" stroke="#FB7E18" stroke-width="3" stroke-linecap="round" stroke-linejoin="round"/>
<path fill-rule="evenodd" clip-rule="evenodd" d="M34.8349 8.25H13.7786L12.3203 19.9167C12.3203 21.5275 13.6261 22.8333 15.237 22.8333L31.5016 21.1667C32.5258 21.1662 33.4748 20.6284 34.0016 19.75L37.3349 12.6667C37.8751 11.7658 37.8892 10.6441 37.3718 9.72992C36.8543 8.81579 35.8853 8.2505 34.8349 8.25Z" stroke="#FB7E18" stroke-width="3" stroke-linecap="round" stroke-linejoin="round"/>
<path d="M8.30065 12.0186C9.12908 12.0186 9.80065 11.347 9.80065 10.5186C9.80065 9.69017 9.12908 9.01859 8.30065 9.01859V12.0186ZM2.33398 9.01859C1.50556 9.01859 0.833984 9.69017 0.833984 10.5186C0.833984 11.347 1.50556 12.0186 2.33398 12.0186V9.01859ZM8.30156 16.8791C9.12999 16.8791 9.80156 16.2075 9.80156 15.3791C9.80156 14.5506 9.12999 13.8791 8.30156 13.8791V16.8791ZM6.3599 13.8791C5.53147 13.8791 4.8599 14.5506 4.8599 15.3791C4.8599 16.2075 5.53147 16.8791 6.3599 16.8791V13.8791ZM12.3217 8.61288C12.5222 9.41668 13.3363 9.90575 14.1401 9.70525C14.9439 9.50475 15.433 8.6906 15.2325 7.88681L12.3217 8.61288ZM12.3833 2.66234L13.8388 2.2993L13.8363 2.28976L12.3833 2.66234ZM12.0646 2.41651V3.91654L12.0734 3.91648L12.0646 2.41651ZM6.5 0.91651C5.67157 0.91651 5 1.58808 5 2.41651C5 3.24494 5.67157 3.91651 6.5 3.91651V0.91651ZM8.30065 9.01859H2.33398V12.0186H8.30065V9.01859ZM8.30156 13.8791H6.3599V16.8791H8.30156V13.8791ZM15.2325 7.88681L13.8387 2.29931L10.9279 3.02538L12.3217 8.61288L15.2325 7.88681ZM13.8363 2.28976C13.6281 1.47776 12.894 0.911621 12.0558 0.916535L12.0734 3.91648C11.5352 3.91964 11.064 3.5562 10.9303 3.03493L13.8363 2.28976ZM12.0646 0.91651H6.5V3.91651H12.0646V0.91651Z" fill="#FB7E18"/>
</svg>
