<svg width="22" height="30" viewBox="0 0 22 30" fill="none" xmlns="http://www.w3.org/2000/svg">
<path fill-rule="evenodd" clip-rule="evenodd" d="M19.334 9H2.666C1.74589 9 1 9.74589 1 10.666V24C1 26.7614 3.23858 29 6 29H16C17.3261 29 18.5979 28.4732 19.5355 27.5355C20.4732 26.5979 21 25.3261 21 24V10.666C21 9.74589 20.2541 9 19.334 9Z" stroke="#ED1C17" stroke-width="2" stroke-linecap="round" stroke-linejoin="round"/>
<path fill-rule="evenodd" clip-rule="evenodd" d="M17 5L15.552 2.106C15.2135 1.42854 14.5213 1.0004 13.764 1H8.236C7.47867 1.0004 6.78653 1.42854 6.448 2.106L5 5H17Z" stroke="#ED1C17" stroke-width="2" stroke-linecap="round" stroke-linejoin="round"/>
<path d="M8.666 15.666C8.666 15.1137 8.21828 14.666 7.666 14.666C7.11371 14.666 6.666 15.1137 6.666 15.666H8.666ZM6.666 22.332C6.666 22.8843 7.11371 23.332 7.666 23.332C8.21828 23.332 8.666 22.8843 8.666 22.332H6.666ZM15.334 15.666C15.334 15.1137 14.8863 14.666 14.334 14.666C13.7817 14.666 13.334 15.1137 13.334 15.666H15.334ZM13.334 22.332C13.334 22.8843 13.7817 23.332 14.334 23.332C14.8863 23.332 15.334 22.8843 15.334 22.332H13.334ZM17 4C16.4477 4 16 4.44772 16 5C16 5.55228 16.4477 6 17 6V4ZM21 6C21.5523 6 22 5.55228 22 5C22 4.44772 21.5523 4 21 4V6ZM5 6C5.55228 6 6 5.55228 6 5C6 4.44772 5.55228 4 5 4V6ZM1 4C0.447715 4 0 4.44772 0 5C0 5.55228 0.447715 6 1 6V4ZM6.666 15.666V22.332H8.666V15.666H6.666ZM13.334 15.666V22.332H15.334V15.666H13.334ZM17 6H21V4H17V6ZM5 4H1V6H5V4Z" fill="#ED1C17"/>
</svg>
