<svg width="2" height="8" viewBox="0 0 2 8" fill="none" xmlns="http://www.w3.org/2000/svg">
<path fill-rule="evenodd" clip-rule="evenodd" d="M0 0.75C0 0.335786 0.335786 0 0.75 0C1.16421 0 1.5 0.335786 1.5 0.75C1.5 1.16421 1.16421 1.5 0.75 1.5C0.335786 1.5 0 1.16421 0 0.75ZM0 4.05C0 3.63579 0.335786 3.3 0.75 3.3C1.16421 3.3 1.5 3.63579 1.5 4.05C1.5 4.46421 1.16421 4.8 0.75 4.8C0.335786 4.8 0 4.46421 0 4.05ZM0.75 6.5C0.335786 6.5 0 6.83579 0 7.25C0 7.66421 0.335786 8 0.75 8C1.16421 8 1.5 7.66421 1.5 7.25C1.5 6.83579 1.16421 6.5 0.75 6.5Z" fill="#000000"/>
</svg>
