<svg width="12" height="12" viewBox="0 0 12 12" fill="none" xmlns="http://www.w3.org/2000/svg">
<g clip-path="url(#clip0_1702_1590)">
<path fill-rule="evenodd" clip-rule="evenodd" d="M5.99921 11.4994C4.54134 11.4974 3.14376 10.9174 2.11289 9.88653C1.08202 8.85566 0.502 7.45807 0.5 6.00021C0.5 3.81753 1.79449 1.83517 3.79764 0.963985C3.8584 0.933644 3.9247 0.915979 3.9925 0.912065C4.0603 0.908151 4.12819 0.918069 4.19204 0.941217C4.25589 0.964364 4.31437 1.00026 4.36391 1.04671C4.41345 1.09317 4.45302 1.14921 4.48023 1.21144C4.50743 1.27367 4.52169 1.34079 4.52214 1.4087C4.52259 1.47662 4.50922 1.54391 4.48284 1.6065C4.45647 1.66908 4.41764 1.72565 4.36872 1.77276C4.3198 1.81986 4.2618 1.85653 4.19827 1.88052C3.39557 2.22997 2.71232 2.80608 2.23229 3.53821C1.75226 4.27033 1.49634 5.12664 1.49591 6.0021C1.49491 6.59342 1.61068 7.17912 1.83656 7.7256C2.06245 8.27209 2.39401 8.76859 2.81223 9.18663C3.23045 9.60467 3.72709 9.93603 4.27367 10.1617C4.82025 10.3873 5.406 10.5029 5.99732 10.5016C7.03072 10.5024 8.03283 10.1472 8.835 9.49567C9.63716 8.84418 10.1904 7.93624 10.4016 6.92465C10.6128 5.91307 10.469 4.85961 9.99453 3.94159C9.52004 3.02358 8.74376 2.29705 7.79638 1.8843C7.67434 1.83067 7.5786 1.73076 7.53022 1.60654C7.48185 1.48233 7.4848 1.34398 7.53843 1.22194C7.59205 1.0999 7.69197 1.00416 7.81618 0.955781C7.9404 0.907406 8.07875 0.910357 8.20079 0.963985C9.18058 1.3916 10.0145 2.09552 10.6005 2.98963C11.1865 3.88375 11.4992 4.92928 11.5003 5.99832C11.4983 7.45618 10.9183 8.85377 9.88742 9.88464C8.85655 10.9155 7.45897 11.4955 6.0011 11.4975L5.99921 11.4994ZM5.99354 8.50036C5.86284 8.49849 5.73805 8.44559 5.64583 8.35296L3.64646 6.35359C3.59518 6.30824 3.55374 6.25285 3.52471 6.19085C3.49568 6.12886 3.47966 6.06156 3.47766 5.99313C3.47565 5.92471 3.4877 5.85659 3.51305 5.793C3.53841 5.72941 3.57653 5.67169 3.62507 5.62342C3.6736 5.57514 3.73152 5.53732 3.79525 5.51231C3.85897 5.4873 3.92715 5.47561 3.99557 5.47798C4.06399 5.48035 4.13119 5.49673 4.19303 5.52609C4.25487 5.55546 4.31004 5.59719 4.35512 5.64871L5.49843 6.79013V1.00178C5.49843 0.334693 6.5 0.334693 6.5 1.00178V6.79769L7.64709 5.6506C7.69146 5.59664 7.74663 5.55257 7.80906 5.52121C7.87148 5.48985 7.93978 5.47189 8.00956 5.4685C8.07934 5.46511 8.14905 5.47635 8.21422 5.50151C8.27939 5.52667 8.33858 5.56519 8.38798 5.61459C8.43738 5.66399 8.47589 5.72317 8.50105 5.78835C8.52621 5.85352 8.53746 5.92323 8.53407 5.99301C8.53067 6.06279 8.51272 6.13108 8.48136 6.19351C8.45 6.25593 8.40592 6.31111 8.35197 6.35548L6.3526 8.35296C6.30557 8.40019 6.24959 8.43755 6.18793 8.46286C6.12628 8.48817 6.06019 8.50092 5.99354 8.50036Z" fill="#FB7E18"/>
</g>
<defs>
<clipPath id="clip0_1702_1590">
<rect width="12" height="12" fill="white"/>
</clipPath>
</defs>
</svg>
