<svg width="7" height="8" viewBox="0 0 7 8" fill="none" xmlns="http://www.w3.org/2000/svg">
<path d="M2.9181 7H6.33398M3.92879 1.77057C3.92879 1.77057 3.92879 2.31545 4.47366 2.86032C5.01854 3.4052 5.56341 3.4052 5.56341 3.4052M1.77386 5.99602L2.9181 5.83256C3.08315 5.80898 3.2361 5.73251 3.354 5.61461L6.10829 2.86032C6.40922 2.55939 6.40922 2.0715 6.10829 1.77057L5.56341 1.22569C5.26249 0.924768 4.77459 0.924768 4.47366 1.22569L1.71937 3.97999C1.60148 4.09788 1.525 4.25083 1.50142 4.41589L1.33796 5.56012C1.30163 5.8144 1.51958 6.03235 1.77386 5.99602Z" stroke="#FB7E18" stroke-width="0.8" stroke-linecap="round"/>
</svg>
