<svg width="10" height="8" viewBox="0 0 10 8" fill="none" xmlns="http://www.w3.org/2000/svg">
<path d="M8.69948 2.80046C9.32326 3.39758 9.32326 4.43575 8.69948 5.03287C7.83956 5.85604 6.5024 6.83333 5.00065 6.83333C3.4989 6.83333 2.16174 5.85604 1.30182 5.03287C0.678039 4.43575 0.678039 3.39759 1.30182 2.80046C2.16174 1.9773 3.4989 1 5.00065 1C6.5024 1 7.83956 1.9773 8.69948 2.80046Z" stroke="#272D2F" stroke-width="0.8" stroke-linecap="round"/>
<path d="M6.25064 3.91667C6.25064 4.60702 5.69099 5.16667 5.00064 5.16667C4.31028 5.16667 3.75064 4.60702 3.75064 3.91667C3.75064 3.22631 4.31028 2.66667 5.00064 2.66667C5.69099 2.66667 6.25064 3.22631 6.25064 3.91667Z" stroke="#272D2F" stroke-width="0.8" stroke-linecap="round"/>
</svg>
