<svg width="32" height="32" viewBox="0 0 32 32" fill="none" xmlns="http://www.w3.org/2000/svg">
<path d="M30 16C29.9996 16.1325 29.9468 16.2594 29.8531 16.3531C29.7594 16.4468 29.6325 16.4996 29.5 16.5H18.25C18.1174 16.5 17.9902 16.4473 17.8964 16.3536C17.8027 16.2598 17.75 16.1326 17.75 16C17.75 15.8674 17.8027 15.7402 17.8964 15.6464C17.9902 15.5527 18.1174 15.5 18.25 15.5H29.5C29.6325 15.5004 29.7594 15.5532 29.8531 15.6469C29.9468 15.7406 29.9996 15.8675 30 16ZM26.5 2H21.25C20.3221 2.00106 19.4324 2.37015 18.7763 3.0263C18.1201 3.68244 17.7511 4.57207 17.75 5.5V10.75C17.7511 11.6779 18.1201 12.5676 18.7763 13.2237C19.4324 13.8799 20.3221 14.2489 21.25 14.25H26.5C27.4279 14.2489 28.3176 13.8799 28.9737 13.2237C29.6299 12.5676 29.9989 11.6779 30 10.75V5.5C29.9989 4.57207 29.6299 3.68244 28.9737 3.0263C28.3176 2.37015 27.4279 2.00106 26.5 2ZM26.5 17.74H21.25C20.3221 17.7411 19.4324 18.1101 18.7763 18.7663C18.1201 19.4224 17.7511 20.3121 17.75 21.24V26.49C17.7511 27.4179 18.1201 28.3076 18.7763 28.9637C19.4324 29.6199 20.3221 29.9889 21.25 29.99H26.5C27.4279 29.9889 28.3176 29.6199 28.9737 28.9637C29.6299 28.3076 29.9989 27.4179 30 26.49V21.24C29.9989 20.3121 29.6299 19.4224 28.9737 18.7663C28.3176 18.1101 27.4279 17.7411 26.5 17.74ZM16 17.75C15.8674 17.75 15.7402 17.8027 15.6464 17.8964C15.5527 17.9902 15.5 18.1174 15.5 18.25V29.5C15.5 29.6326 15.5527 29.7598 15.6464 29.8536C15.7402 29.9473 15.8674 30 16 30C16.1326 30 16.2598 29.9473 16.3536 29.8536C16.4473 29.7598 16.5 29.6326 16.5 29.5V18.25C16.5 18.1174 16.4473 17.9902 16.3536 17.8964C16.2598 17.8027 16.1326 17.75 16 17.75ZM10.75 17.75H5.5C4.57207 17.7511 3.68244 18.1201 3.0263 18.7763C2.37015 19.4324 2.00106 20.3221 2 21.25V26.5C2.00106 27.4279 2.37015 28.3176 3.0263 28.9737C3.68244 29.6299 4.57207 29.9989 5.5 30H10.75C11.6779 29.9989 12.5676 29.6299 13.2237 28.9737C13.8799 28.3176 14.2489 27.4279 14.25 26.5V21.25C14.2489 20.3221 13.8799 19.4324 13.2237 18.7763C12.5676 18.1201 11.6779 17.7511 10.75 17.75ZM13.75 15.5H2.5C2.36739 15.5 2.24021 15.5527 2.14645 15.6464C2.05268 15.7402 2 15.8674 2 16C2 16.1326 2.05268 16.2598 2.14645 16.3536C2.24021 16.4473 2.36739 16.5 2.5 16.5H13.75C13.8826 16.5 14.0098 16.4473 14.1036 16.3536C14.1973 16.2598 14.25 16.1326 14.25 16C14.25 15.8674 14.1973 15.7402 14.1036 15.6464C14.0098 15.5527 13.8826 15.5 13.75 15.5ZM10.75 2H5.5C4.57207 2.00106 3.68244 2.37015 3.0263 3.0263C2.37015 3.68244 2.00106 4.57207 2 5.5V10.75C2.00106 11.6779 2.37015 12.5676 3.0263 13.2237C3.68244 13.8799 4.57207 14.2489 5.5 14.25H10.75C11.6779 14.2489 12.5676 13.8799 13.2237 13.2237C13.8799 12.5676 14.2489 11.6779 14.25 10.75V5.5C14.2489 4.57207 13.8799 3.68244 13.2237 3.0263C12.5676 2.37015 11.6779 2.00106 10.75 2ZM16 2C15.8674 2 15.7402 2.05268 15.6464 2.14645C15.5527 2.24021 15.5 2.36739 15.5 2.5V13.75C15.5 13.8826 15.5527 14.0098 15.6464 14.1036C15.7402 14.1973 15.8674 14.25 16 14.25C16.1326 14.25 16.2598 14.1973 16.3536 14.1036C16.4473 14.0098 16.5 13.8826 16.5 13.75V2.5C16.5 2.36739 16.4473 2.24021 16.3536 2.14645C16.2598 2.05268 16.1326 2 16 2Z" fill="url(#paint0_linear_1563_12923)"/>
<defs>
<linearGradient id="paint0_linear_1563_12923" x1="16" y1="2" x2="16" y2="30" gradientUnits="userSpaceOnUse">
<stop stop-color="#FC8019"/>
<stop offset="1" stop-color="#FF952A"/>
<stop offset="1" stop-color="#FC8019" stop-opacity="0"/>
</linearGradient>
</defs>
</svg>
