<svg width="24" height="24" viewBox="0 0 24 24" fill="none" xmlns="http://www.w3.org/2000/svg">
<path d="M18.9037 7.09844H16.4194C16.2756 7.09844 16.1377 7.15556 16.036 7.25724C15.9343 7.35892 15.8772 7.49683 15.8772 7.64062C15.8772 7.78442 15.9343 7.92233 16.036 8.02401C16.1377 8.12569 16.2756 8.18281 16.4194 8.18281H18.9037C19.6328 8.18281 20.2352 8.84698 20.2352 9.675V15.7781C20.2352 16.6061 19.6328 17.2703 18.9037 17.2703H5.16609C4.43705 17.2703 3.83516 16.6062 3.83516 15.7781V9.675C3.83516 8.84696 4.43705 8.18281 5.16609 8.18281H7.65047C7.79427 8.18281 7.93217 8.12569 8.03385 8.02401C8.13553 7.92233 8.19266 7.78442 8.19266 7.64062C8.19266 7.49683 8.13553 7.35892 8.03385 7.25724C7.93217 7.15556 7.79427 7.09844 7.65047 7.09844H5.16609C3.83089 7.09844 2.75078 8.25742 2.75078 9.675V15.7781C2.75078 17.1957 3.83089 18.3547 5.16609 18.3547H18.9037C20.2389 18.3547 21.3195 17.1957 21.3195 15.7781V9.675C21.3195 8.25741 20.2389 7.09844 18.9037 7.09844Z" fill="#FB7E18" stroke="#FB7E18" stroke-width="0.1"/>
<path d="M11.4598 12.1442L11.4653 4.45309V4.45308C11.4654 4.30925 11.5227 4.17135 11.6244 4.0697C11.7262 3.96804 11.8641 3.91094 12.0079 3.91094C12.0791 3.91094 12.1496 3.92497 12.2154 3.95222C12.2811 3.97948 12.3409 4.01943 12.3912 4.06979C12.4415 4.12014 12.4814 4.17992 12.5086 4.24571L11.4598 12.1442ZM11.4598 12.1442L9.64565 10.3296L9.64561 10.3296C9.59516 10.2793 9.53529 10.2393 9.46942 10.2121C9.40355 10.1849 9.33296 10.171 9.26169 10.171C9.19042 10.1711 9.11987 10.1852 9.05405 10.2126C8.98823 10.2399 8.92844 10.2799 8.8781 10.3304C8.82776 10.3808 8.78784 10.4407 8.76063 10.5066C8.73343 10.5724 8.71946 10.643 8.71953 10.7143C8.7196 10.7856 8.73371 10.8561 8.76105 10.9219C8.78839 10.9877 8.82841 11.0475 8.87885 11.0979L11.4598 12.1442ZM8.87887 11.0979L11.6009 13.8186C11.6515 13.8741 11.713 13.9186 11.7817 13.949L8.87887 11.0979ZM12.0009 13.9953C12.0894 13.9954 12.1765 13.9738 12.2546 13.9324C12.3313 13.8917 12.3971 13.8332 12.4464 13.7618L15.0072 11.201C15.0576 11.1506 15.0975 11.0909 15.1247 11.0251C15.152 10.9593 15.166 10.8888 15.166 10.8176C15.166 10.7464 15.152 10.6759 15.1247 10.6101C15.0975 10.5443 15.0576 10.4845 15.0072 10.4342C14.9569 10.3838 14.8971 10.3439 14.8313 10.3166C14.7655 10.2894 14.695 10.2754 14.6238 10.2754C14.5526 10.2754 14.4821 10.2894 14.4163 10.3166C14.3505 10.3439 14.2908 10.3838 14.2404 10.4342L12.5446 12.13L12.5497 4.45317L12.0009 13.9953Z" fill="#FB7E18" stroke="#FB7E18" stroke-width="0.1"/>
</svg>
