<svg width="281" height="58" viewBox="0 0 281 58" fill="none" xmlns="http://www.w3.org/2000/svg">
<path fill-rule="evenodd" clip-rule="evenodd" d="M1.99945 0C1.46916 0 0.960595 0.217833 0.585625 0.605583C0.210656 0.993334 0 1.51924 0 2.0676C0 2.61596 0.210656 3.14186 0.585625 3.52961C0.960595 3.91737 1.46916 4.1352 1.99945 4.1352H5.96462C6.27007 4.13663 6.57194 4.2032 6.85137 4.33074C7.13081 4.45827 7.38181 4.64404 7.58867 4.87643C7.79554 5.10882 7.95383 5.38283 8.05366 5.68134C8.15348 5.97986 8.19269 6.29645 8.16883 6.61134L6.27538 30.0898C6.17793 31.2848 6.32165 32.4877 6.69742 33.6222C7.07318 34.7567 7.67281 35.7981 8.45827 36.6804C9.24373 37.5626 10.1979 38.2665 11.2603 38.7474C12.3226 39.2282 13.47 39.4756 14.6297 39.4738H38.9049C43.2411 39.4738 46.975 35.8517 47.305 31.4126L48.218 18.2896H57.5624C58.0927 18.2896 58.6013 18.0717 58.9763 17.684C59.3512 17.2962 59.5619 16.7703 59.5619 16.222C59.5619 15.6736 59.3512 15.1477 58.9763 14.7599C58.6013 14.3722 58.0927 14.1544 57.5624 14.1544H48.5047L48.536 13.7309C48.6315 12.5356 48.4843 11.3329 48.1039 10.1999C47.7235 9.06697 47.1184 8.0287 46.3272 7.15172C45.5361 6.27475 44.5765 5.57844 43.5098 5.10745C42.4432 4.63645 41.2932 4.40117 40.1335 4.4167H11.857C11.4459 3.13473 10.6551 2.01903 9.5967 1.22767C8.53829 0.436307 7.2659 0.00941739 5.9598 0.00747296L1.99945 0ZM44.5034 14.1469L44.554 13.4245C44.608 12.7964 44.5333 12.1637 44.3348 11.5675C44.1363 10.9713 43.8184 10.4251 43.4019 9.96462C42.9855 9.5041 42.4797 9.13958 41.9178 8.89487C41.3559 8.65015 40.7503 8.53074 40.1407 8.54442H12.0208L10.255 30.4386C10.2046 31.063 10.2802 31.6914 10.4771 32.2839C10.674 32.8765 10.9879 33.4203 11.3987 33.8808C11.8096 34.3413 12.3086 34.7084 12.8639 34.9589C13.4193 35.2095 14.019 35.3379 14.6249 35.3361H38.9049C41.1332 35.3361 43.1447 33.4005 43.3182 31.1012L44.2119 18.2846H17.9999C17.4696 18.2846 16.961 18.0667 16.586 17.679C16.2111 17.2912 16.0004 16.7653 16.0004 16.217C16.0004 15.6686 16.2111 15.1427 16.586 14.755C16.961 14.3672 17.4696 14.1494 17.9999 14.1494L44.5034 14.1469Z" fill="#272D2F"/>
<path d="M16.9789 49.7894C16.9789 50.3131 16.8287 50.8251 16.5473 51.2605C16.266 51.696 15.866 52.0354 15.3981 52.2358C14.9302 52.4363 14.4153 52.4887 13.9186 52.3865C13.4219 52.2843 12.9656 52.0322 12.6074 51.6618C12.2493 51.2915 12.0054 50.8197 11.9066 50.306C11.8078 49.7923 11.8585 49.2599 12.0523 48.776C12.2462 48.2922 12.5744 47.8786 12.9955 47.5876C13.4166 47.2967 13.9117 47.1414 14.4182 47.1414C14.7545 47.141 15.0877 47.2093 15.3985 47.3423C15.7093 47.4752 15.9917 47.6703 16.2296 47.9162C16.4674 48.1622 16.656 48.4542 16.7846 48.7756C16.9132 49.0971 16.9792 49.4415 16.9789 49.7894Z" fill="#272D2F"/>
<path d="M41.2905 49.7894C41.29 50.3125 41.1396 50.8237 40.8582 51.2585C40.5768 51.6932 40.177 52.0319 39.7095 52.2318C39.242 52.4316 38.7277 52.4836 38.2316 52.3813C37.7355 52.2789 37.2798 52.0268 36.9223 51.6567C36.5648 51.2866 36.3213 50.8152 36.2228 50.3021C36.1243 49.789 36.1751 49.2572 36.3688 48.7739C36.5625 48.2907 36.8904 47.8776 37.3111 47.587C37.7317 47.2965 38.2263 47.1414 38.7322 47.1414C39.0684 47.141 39.4014 47.2093 39.7121 47.3423C40.0228 47.4753 40.3051 47.6704 40.5427 47.9164C40.7804 48.1624 40.9688 48.4544 41.0971 48.7758C41.2254 49.0972 41.2911 49.4417 41.2905 49.7894Z" fill="#272D2F"/>
<path fill-rule="evenodd" clip-rule="evenodd" d="M43.5815 49.7296C43.5912 50.7833 43.1969 51.7981 42.485 52.552C41.7731 53.3059 40.8014 53.7376 39.7825 53.7527H13.8162C12.7844 53.7527 11.7948 53.3289 11.0652 52.5744C10.3356 51.8199 9.92572 50.7966 9.92572 49.7296C9.92572 48.6626 10.3356 47.6393 11.0652 46.8849C11.7948 46.1304 12.7844 45.7065 13.8162 45.7065H26.7994H39.7825C40.8014 45.7216 41.7731 46.1533 42.485 46.9073C43.1969 47.6612 43.5912 48.6759 43.5815 49.7296ZM46.5662 53.8349C45.8977 55.0914 44.9165 56.1402 43.7241 56.8725C42.5318 57.6049 41.1718 57.9942 39.785 58H13.8162C9.50174 58 6.00391 54.2958 6.00391 49.7296C6.00391 45.1635 9.50174 41.4592 13.8162 41.4592H26.7994H39.7825C44.0946 41.4592 47.5924 45.161 47.5924 49.7296C47.5965 51.1664 47.2431 52.5802 46.5662 53.8349Z" fill="#FB7E18"/>
<path d="M89.005 29.5404C89.0221 31.6842 88.6545 33.8127 87.9209 35.8179C87.2207 37.7233 86.1759 39.4734 84.8423 40.9744C83.5293 42.4482 81.9346 43.6239 80.1592 44.4271C78.2949 45.2564 76.2867 45.6841 74.2572 45.6841C72.2278 45.6841 70.2196 45.2564 68.3553 44.4271C66.5917 43.6076 65.0032 42.434 63.6818 40.9744C62.3715 39.4637 61.3424 37.7155 60.6465 35.8179C59.2012 31.7663 59.2012 27.3144 60.6465 23.2628C61.3361 21.3755 62.3661 19.6409 63.6818 18.1511C65.7472 15.8867 68.4381 14.3366 71.3871 13.7124C74.3361 13.0882 77.3996 13.4204 80.1592 14.6636C81.9418 15.4695 83.5381 16.6583 84.8423 18.1511C86.1812 19.631 87.227 21.3675 87.9209 23.2628C88.6545 25.268 89.0221 27.3965 89.005 29.5404ZM83.3632 29.5404C83.3905 27.6618 82.9894 25.8031 82.1924 24.1148C81.4734 22.5451 80.3665 21.1995 78.9837 20.2137C77.5737 19.2771 75.9331 18.7791 74.2572 18.7791C72.5814 18.7791 70.9408 19.2771 69.5308 20.2137C68.159 21.1875 67.055 22.5128 66.3269 24.06C65.5535 25.7745 65.1679 27.6487 65.1995 29.5404C65.1741 31.4314 65.5594 33.3042 66.3269 35.0208C67.055 36.5722 68.1608 37.9011 69.5357 38.877C70.9456 39.8136 72.5862 40.3116 74.2621 40.3116C75.9379 40.3116 77.5785 39.8136 78.9885 38.877C80.3634 37.9011 81.4691 36.5722 82.1972 35.0208C82.9909 33.3119 83.39 31.4359 83.3632 29.5404Z" fill="#272D2F"/>
<path d="M96.2221 45.8163C95.8774 45.8275 95.5342 45.7656 95.2136 45.6345C94.8929 45.5034 94.6016 45.3059 94.3575 45.054C93.8687 44.5234 93.6036 43.8137 93.6204 43.0811V24.5623C93.6096 24.2059 93.6694 23.851 93.7961 23.5194C93.9229 23.1878 94.114 22.8866 94.3575 22.6342C94.601 22.3784 94.8912 22.1753 95.2113 22.0366C95.5314 21.898 95.875 21.8266 96.2221 21.8266C96.5691 21.8266 96.9127 21.898 97.2328 22.0366C97.5529 22.1753 97.8432 22.3784 98.0866 22.6342C98.3302 22.8866 98.5213 23.1878 98.648 23.5194C98.7748 23.851 98.8346 24.2059 98.8238 24.5623V28.7772L98.5202 25.773C98.8192 25.0812 99.2261 24.4449 99.7247 23.8897C100.228 23.3348 100.814 22.8657 101.459 22.4997C102.093 22.1118 102.78 21.8246 103.497 21.6477C104.207 21.47 104.935 21.3797 105.665 21.3787C106.454 21.3505 107.225 21.6217 107.833 22.141C108.11 22.3458 108.336 22.6146 108.494 22.9261C108.653 23.2375 108.738 23.5829 108.744 23.9346C108.744 24.921 108.498 25.6385 108.007 26.0869C107.562 26.4875 106.993 26.7101 106.402 26.7146C105.881 26.7204 105.364 26.6135 104.885 26.4007C104.407 26.1821 103.889 26.075 103.367 26.0869C102.81 26.0959 102.262 26.2338 101.763 26.4904C101.196 26.7655 100.694 27.1631 100.288 27.6562C99.819 28.2604 99.4524 28.9427 99.2044 29.674C98.9266 30.572 98.7947 31.5115 98.8141 32.4541V43.0761C98.831 43.8088 98.5658 44.5184 98.077 45.049C97.8345 45.3006 97.5449 45.4983 97.226 45.6302C96.907 45.7622 96.5655 45.8255 96.2221 45.8163Z" fill="#272D2F"/>
<path d="M130.512 12.1611C130.857 12.1502 131.2 12.2121 131.521 12.3432C131.842 12.4743 132.134 12.6717 132.379 12.9234C132.625 13.183 132.817 13.4919 132.944 13.8312C133.071 14.1705 133.129 14.5329 133.116 14.8964V42.6022C133.133 43.3349 132.867 44.0445 132.379 44.5752C131.873 45.065 131.206 45.3376 130.513 45.3376C129.82 45.3376 129.153 45.065 128.647 44.5752C128.159 44.0438 127.894 43.3347 127.91 42.6022V40.4101L128.874 40.8136C128.874 41.2022 128.669 41.6805 128.264 42.2485C127.787 42.8592 127.234 43.402 126.619 43.8627C125.858 44.4378 125.027 44.9053 124.147 45.2527C123.174 45.6197 122.145 45.802 121.109 45.7908C119.195 45.8133 117.314 45.2688 115.689 44.2214C114.057 43.1279 112.729 41.6134 111.835 39.8271C110.908 37.9439 110.446 35.7916 110.447 33.3703C110.447 30.919 110.91 28.7667 111.835 26.9134C112.705 25.1249 114.019 23.6081 115.643 22.5191C117.216 21.4482 119.061 20.8862 120.943 20.9049C122.108 20.8917 123.267 21.089 124.366 21.4878C125.332 21.8343 126.24 22.3335 127.057 22.9675C127.747 23.4706 128.348 24.0924 128.835 24.8059C129.269 25.4038 129.485 25.9119 129.485 26.3304L127.91 26.9084V14.8964C127.899 14.538 127.959 14.1812 128.087 13.8478C128.214 13.5145 128.407 13.2118 128.652 12.9583C128.89 12.6972 129.179 12.4911 129.499 12.3537C129.82 12.2163 130.165 12.1507 130.512 12.1611ZM121.753 40.8585C122.937 40.8827 124.101 40.5353 125.091 39.862C126.055 39.1928 126.821 38.2619 127.305 37.1717C127.864 35.9853 128.147 34.6799 128.129 33.3603C128.15 32.026 127.868 30.7052 127.305 29.5041C126.821 28.4138 126.055 27.4829 125.091 26.8137C124.097 26.1691 122.948 25.8272 121.774 25.8272C120.601 25.8272 119.451 26.1691 118.457 26.8137C117.489 27.488 116.711 28.4165 116.205 29.5041C115.668 30.7127 115.401 32.0306 115.424 33.3603C115.404 34.6752 115.671 35.9779 116.205 37.1717C116.711 38.2592 117.489 39.1878 118.457 39.862C119.434 40.5297 120.582 40.877 121.753 40.8585Z" fill="#272D2F"/>
<path d="M149.747 45.7648C147.29 45.7648 145.151 45.2416 143.33 44.1954C141.582 43.1643 140.142 41.6562 139.167 39.836C138.194 37.9309 137.702 35.8024 137.736 33.6481C137.736 30.9578 138.256 28.6709 139.297 26.7877C140.282 24.9673 141.719 23.4519 143.46 22.3984C145.105 21.4 146.979 20.8754 148.887 20.8788C150.325 20.8705 151.747 21.1921 153.05 21.8204C154.373 22.4432 155.566 23.3266 156.562 24.4211C157.581 25.5087 158.391 26.787 158.947 28.1877C159.556 29.6299 159.866 31.1878 159.858 32.7613C159.851 33.0965 159.774 33.4262 159.632 33.7274C159.49 34.0286 159.286 34.294 159.034 34.5051C158.525 34.9492 157.878 35.1881 157.213 35.1777H140.641L139.34 30.6937H155.254L154.291 31.5905V30.3798C154.236 29.5218 153.917 28.7045 153.38 28.0482C152.827 27.3629 152.138 26.8082 151.36 26.4215C150.582 26.0348 149.733 25.8249 148.87 25.8062C148.048 25.7995 147.23 25.9204 146.442 26.1649C145.705 26.3952 145.034 26.8112 144.491 27.3756C143.894 28.0253 143.449 28.8075 143.19 29.6624C142.84 30.838 142.677 32.0647 142.708 33.2944C142.708 34.9086 143.029 36.2837 143.672 37.4196C144.289 38.477 145.154 39.3562 146.187 39.9755C147.201 40.539 148.335 40.8335 149.487 40.8324C150.347 40.8561 151.207 40.7657 152.045 40.5634C152.577 40.428 153.088 40.2167 153.563 39.9356C153.968 39.6666 154.329 39.4424 154.647 39.263C155.101 39.0116 155.606 38.8734 156.121 38.8595C156.413 38.8497 156.703 38.9046 156.972 39.0207C157.242 39.1367 157.484 39.3111 157.682 39.5321C157.889 39.7339 158.053 39.9772 158.165 40.2471C158.277 40.517 158.334 40.8078 158.333 41.1015C158.333 41.9086 157.931 42.6409 157.128 43.2986C156.377 43.9629 155.322 44.5441 153.963 45.0424C152.606 45.5227 151.181 45.7668 149.747 45.7648Z" fill="#272D2F"/>
<path d="M167.07 45.8163C166.725 45.8275 166.382 45.7656 166.061 45.6345C165.741 45.5034 165.449 45.3059 165.205 45.054C164.716 44.5234 164.451 43.8137 164.468 43.0811V24.5623C164.457 24.2059 164.517 23.851 164.644 23.5194C164.771 23.1878 164.962 22.8866 165.205 22.6342C165.449 22.3787 165.739 22.1759 166.059 22.0374C166.379 21.8989 166.723 21.8276 167.07 21.8276C167.417 21.8276 167.76 21.8989 168.08 22.0374C168.4 22.1759 168.691 22.3787 168.934 22.6342C169.178 22.8866 169.369 23.1878 169.496 23.5194C169.622 23.851 169.682 24.2059 169.671 24.5623V28.7772L169.363 25.773C169.662 25.0812 170.069 24.4449 170.568 23.8897C171.071 23.3348 171.657 22.8657 172.302 22.4997C172.936 22.1118 173.623 21.8246 174.34 21.6477C175.05 21.47 175.778 21.3797 176.508 21.3787C177.297 21.3505 178.068 21.6217 178.676 22.141C178.953 22.3458 179.179 22.6146 179.337 22.9261C179.495 23.2375 179.581 23.5829 179.587 23.9346C179.587 24.921 179.341 25.6385 178.85 26.0869C178.404 26.4875 177.835 26.7101 177.245 26.7146C176.724 26.7204 176.207 26.6135 175.728 26.4007C175.25 26.1821 174.732 26.075 174.21 26.0869C173.653 26.0959 173.105 26.2338 172.606 26.4904C172.039 26.7655 171.536 27.1631 171.131 27.6562C170.662 28.2604 170.295 28.9427 170.047 29.674C169.769 30.572 169.638 31.5115 169.657 32.4541V43.0761C169.674 43.8088 169.409 44.5184 168.92 45.049C168.678 45.2999 168.389 45.4973 168.071 45.6292C167.753 45.7611 167.412 45.8248 167.07 45.8163Z" fill="#272D2F"/>
<path d="M193.57 45.7911C192.834 45.8196 192.117 45.5455 191.576 45.0289C191.323 44.7714 191.124 44.463 190.991 44.1228C190.858 43.7826 190.794 43.4178 190.803 43.0509V17.049H196.44V43.0509C196.445 43.4214 196.375 43.7889 196.233 44.129C196.091 44.4692 195.88 44.7742 195.616 45.0239C195.059 45.5495 194.324 45.8254 193.57 45.7911ZM183.988 19.56C183.287 19.5791 182.605 19.3227 182.08 18.8426C181.835 18.6008 181.642 18.3078 181.515 17.9831C181.388 17.6583 181.329 17.3093 181.343 16.9593C181.326 16.6156 181.384 16.2724 181.511 15.9545C181.639 15.6366 181.833 15.3519 182.08 15.1209C182.605 14.6407 183.287 14.3843 183.988 14.4034H203.24C203.929 14.3791 204.599 14.6369 205.105 15.1209C205.351 15.3638 205.548 15.6559 205.682 15.9797C205.816 16.3034 205.885 16.6519 205.885 17.0041C205.885 17.3563 205.816 17.7049 205.682 18.0286C205.548 18.3523 205.351 18.6445 205.105 18.8874C204.587 19.3457 203.921 19.5858 203.24 19.56H183.988Z" fill="#FB7E18"/>
<path d="M226.662 20.88C227.007 20.8687 227.35 20.9306 227.671 21.0617C227.991 21.1928 228.282 21.3903 228.527 21.6422C228.773 21.9018 228.965 22.2108 229.092 22.55C229.219 22.8893 229.277 23.2517 229.264 23.6152V42.5773C229.281 43.31 229.015 44.0196 228.527 44.5503C228.021 45.0399 227.355 45.3124 226.662 45.3124C225.969 45.3124 225.303 45.0399 224.797 44.5503C224.309 44.0196 224.043 43.31 224.06 42.5773V40.3852L225.024 40.7887C225.024 41.1773 224.822 41.6556 224.417 42.2236C223.939 42.8343 223.385 43.3771 222.769 43.8378C222.009 44.4134 221.178 44.8809 220.298 45.2278C219.325 45.5951 218.297 45.7774 217.262 45.7659C215.348 45.7891 213.467 45.2445 211.842 44.1965C210.21 43.1028 208.882 41.5883 207.988 39.8022C207.035 37.7946 206.56 35.5811 206.6 33.3454C206.6 30.8941 207.063 28.7418 207.988 26.8885C208.86 25.0992 210.177 23.5825 211.803 22.4942C213.375 21.4225 215.221 20.8604 217.103 20.88C218.269 20.8666 219.428 21.0639 220.529 21.4629C221.493 21.8094 222.4 22.3086 223.217 22.9426C223.907 23.4457 224.508 24.0675 224.995 24.781C225.429 25.3789 225.645 25.887 225.645 26.3055L224.084 26.8885V23.6152C224.074 23.2588 224.133 22.9039 224.26 22.5723C224.387 22.2407 224.578 21.9394 224.822 21.6871C225.056 21.4265 225.342 21.22 225.659 21.081C225.976 20.9419 226.318 20.8734 226.662 20.88ZM217.903 40.8336C219.088 40.857 220.251 40.5097 221.242 39.8371C222.205 39.1685 222.97 38.2374 223.453 37.1468C224.014 35.9608 224.296 34.6551 224.277 33.3354C224.299 32.0009 224.017 30.6799 223.453 29.4792C222.97 28.3885 222.205 27.4574 221.242 26.7888C220.251 26.1163 219.088 25.7689 217.903 25.7924C216.732 25.7732 215.584 26.1205 214.608 26.7888C213.639 27.4636 212.861 28.392 212.353 29.4792C211.817 30.6882 211.551 32.0058 211.572 33.3354C211.553 34.6502 211.82 35.9526 212.353 37.1468C212.861 38.2339 213.639 39.1623 214.608 39.8371C215.584 40.5054 216.732 40.8527 217.903 40.8336Z" fill="#272D2F"/>
<path d="M247.368 21.3771C249.507 21.3771 251.125 21.8404 252.224 22.7671C253.364 23.7136 254.171 25.0213 254.522 26.4888C254.974 28.1518 255.193 29.8732 255.173 31.6005V43.0744C255.189 43.8071 254.924 44.5167 254.435 45.0474C253.93 45.5371 253.263 45.8095 252.571 45.8095C251.878 45.8095 251.212 45.5371 250.706 45.0474C250.218 44.5167 249.952 43.8071 249.969 43.0744V31.6005C249.983 30.7023 249.851 29.8082 249.579 28.955C249.368 28.1787 248.91 27.4991 248.278 27.0269C247.636 26.5486 246.725 26.3094 245.546 26.3094C244.52 26.277 243.503 26.5244 242.598 27.0269C241.834 27.4878 241.204 28.1541 240.777 28.955C240.362 29.7701 240.154 30.6799 240.17 31.6005V43.0744C240.186 43.8071 239.921 44.5167 239.432 45.0474C238.927 45.5371 238.26 45.8095 237.568 45.8095C236.875 45.8095 236.209 45.5371 235.703 45.0474C235.214 44.5167 234.949 43.8071 234.966 43.0744V24.5607C234.955 24.2043 235.015 23.8494 235.142 23.5178C235.269 23.1862 235.46 22.885 235.703 22.6326C235.947 22.3771 236.237 22.1742 236.557 22.0358C236.877 21.8973 237.221 21.826 237.568 21.826C237.915 21.826 238.258 21.8973 238.578 22.0358C238.898 22.1742 239.189 22.3771 239.432 22.6326C239.676 22.885 239.867 23.1862 239.994 23.5178C240.121 23.8494 240.18 24.2043 240.17 24.5607V26.4888L239.519 26.3543C239.831 25.7714 240.209 25.2294 240.646 24.74C241.161 24.1199 241.743 23.5633 242.381 23.081C243.068 22.5607 243.829 22.1524 244.636 21.8703C245.51 21.535 246.435 21.3678 247.368 21.3771Z" fill="#272D2F"/>
<path d="M263.906 45.839C263.561 45.8502 263.218 45.7883 262.897 45.6572C262.577 45.5261 262.285 45.3286 262.041 45.0767C261.552 44.546 261.287 43.8364 261.304 43.1037V15.3929C261.293 15.0365 261.353 14.6816 261.48 14.35C261.606 14.0184 261.798 13.7172 262.041 13.4648C262.285 13.2093 262.575 13.0064 262.895 12.868C263.215 12.7295 263.559 12.6582 263.906 12.6582C264.253 12.6582 264.596 12.7295 264.916 12.868C265.236 13.0064 265.527 13.2093 265.77 13.4648C266.014 13.7172 266.205 14.0184 266.332 14.35C266.458 14.6816 266.518 15.0365 266.507 15.3929V43.0988C266.524 43.8314 266.259 44.5411 265.77 45.0717C265.527 45.3245 265.235 45.523 264.915 45.6549C264.594 45.7869 264.251 45.8495 263.906 45.839ZM277.695 21.8498C278.026 21.8514 278.354 21.9285 278.654 22.0758C278.954 22.223 279.218 22.4367 279.429 22.7017C279.921 23.2697 280.166 23.8227 280.166 24.3608C280.166 25.0782 279.819 25.7508 279.126 26.3786L266.074 38.7991L265.857 32.6113L275.787 22.7017C276.032 22.4326 276.327 22.2182 276.655 22.0717C276.984 21.9251 277.337 21.8496 277.695 21.8498ZM278.345 45.7941C277.983 45.7985 277.624 45.7204 277.295 45.5654C276.965 45.4104 276.672 45.1823 276.437 44.8973L268.415 36.1088L272.361 32.3422L280.176 41.1308C280.435 41.3946 280.641 41.7086 280.782 42.0548C280.924 42.4011 280.998 42.7727 281 43.1486C281.005 43.5213 280.925 43.89 280.767 44.225C280.609 44.5599 280.377 44.8517 280.089 45.0767C279.606 45.5179 278.989 45.7715 278.345 45.7941Z" fill="#272D2F"/>
</svg>
