<svg width="32" height="32" viewBox="0 0 32 32" fill="none" xmlns="http://www.w3.org/2000/svg">
<path fill-rule="evenodd" clip-rule="evenodd" d="M13.1815 3.42992L17.1276 4.9643L5.34644 9.5453L1.219 7.94036L12.8191 3.42992C12.9402 3.38273 13.0603 3.38273 13.1815 3.42992ZM25.4692 16.6059C28.7827 16.6059 31.4688 19.292 31.4688 22.6055C31.4688 25.919 28.7827 28.6052 25.4692 28.6052C22.1558 28.6052 19.4695 25.919 19.4695 22.6055C19.4695 19.292 22.1558 16.6059 25.4692 16.6059ZM27.7409 19.8695L24.1869 23.4235L22.9741 21.8972C22.6758 21.522 22.1296 21.4596 21.7544 21.7579C21.379 22.0562 21.3166 22.6024 21.615 22.9777L23.3999 25.2237C23.7086 25.6658 24.344 25.7263 24.7286 25.3417L28.9708 21.0994C29.3105 20.7598 29.3105 20.2092 28.9708 19.8695C28.6311 19.5299 28.0806 19.5299 27.7409 19.8695ZM21.3413 6.60273C17.4143 8.12986 13.4873 9.65692 9.56006 11.1837L13.0002 12.5213L24.7815 7.94036L21.3413 6.60273ZM25.4692 8.74236L13.5002 13.3963V27.2595L18.944 25.1428C18.6379 24.3562 18.4696 23.5006 18.4696 22.6055C18.4696 18.7398 21.6034 15.606 25.4692 15.606V8.74236ZM12.5002 27.2594V13.3963L8.87256 11.9858V14.9132C8.87256 15.0547 8.70725 15.131 8.59962 15.0393L6.67431 13.3995L4.87375 13.9595C4.84896 13.9673 4.82267 13.9692 4.79703 13.9649C4.77138 13.9607 4.7471 13.9505 4.72615 13.935C4.70521 13.9196 4.6882 13.8995 4.67651 13.8763C4.66482 13.8531 4.65878 13.8274 4.65887 13.8014V10.3474L0.53125 8.74242V22.2634C0.53125 22.4739 0.654063 22.6533 0.85025 22.7295L12.5002 27.2594Z" fill="url(#paint0_linear_1578_288)"/>
<defs>
<linearGradient id="paint0_linear_1578_288" x1="16" y1="3.39453" x2="16" y2="28.6052" gradientUnits="userSpaceOnUse">
<stop stop-color="#FC8019"/>
<stop offset="1" stop-color="#FF952A"/>
<stop offset="1" stop-color="#FC8019" stop-opacity="0"/>
</linearGradient>
</defs>
</svg>
