<svg width="185" height="39" viewBox="0 0 185 39" fill="none" xmlns="http://www.w3.org/2000/svg">
<path fill-rule="evenodd" clip-rule="evenodd" d="M1.31636 0C0.967242 0 0.63242 0.143413 0.385554 0.398693C0.138688 0.653974 0 1.00021 0 1.36123C0 1.72225 0.138688 2.06849 0.385554 2.32377C0.63242 2.57905 0.967242 2.72246 1.31636 2.72246H3.92689C4.12798 2.72341 4.32672 2.76723 4.51069 2.8512C4.69466 2.93516 4.85991 3.05747 4.9961 3.21046C5.1323 3.36346 5.23651 3.54386 5.30223 3.74039C5.36795 3.93691 5.39376 4.14535 5.37806 4.35266L4.13148 19.81C4.06732 20.5968 4.16194 21.3887 4.40933 22.1356C4.65672 22.8825 5.05149 23.5681 5.56861 24.149C6.08573 24.7298 6.71391 25.1932 7.41334 25.5098C8.11276 25.8264 8.86816 25.9893 9.63165 25.9881H25.6136C28.4683 25.9881 30.9266 23.6034 31.1439 20.6809L31.745 12.0412H37.897C38.2461 12.0412 38.5809 11.8977 38.8278 11.6425C39.0747 11.3872 39.2133 11.041 39.2133 10.6799C39.2133 10.3189 39.0747 9.97268 38.8278 9.7174C38.5809 9.46212 38.2461 9.3187 37.897 9.3187H31.9337L31.9543 9.03989C32.0171 8.25299 31.9202 7.46118 31.6698 6.71527C31.4194 5.96935 31.021 5.2858 30.5001 4.70843C29.9793 4.13107 29.3475 3.67264 28.6453 3.36256C27.9431 3.05247 27.1859 2.89757 26.4224 2.90779H7.80619C7.53554 2.06379 7.01493 1.32925 6.31811 0.80825C5.62129 0.287249 4.7836 0.00620006 3.92371 0.00491992L1.31636 0ZM29.2994 9.31378L29.3327 8.83817C29.3682 8.42469 29.3191 8.0081 29.1884 7.61561C29.0577 7.22311 28.8484 6.86353 28.5742 6.56034C28.3 6.25715 27.9671 6.01716 27.5971 5.85605C27.2272 5.69494 26.8285 5.61632 26.4272 5.62533H7.91404L6.75152 20.0396C6.71833 20.4507 6.76812 20.8644 6.89775 21.2546C7.02737 21.6447 7.234 22.0027 7.50451 22.3058C7.77502 22.609 8.10351 22.8507 8.46914 23.0157C8.83478 23.1806 9.22958 23.2652 9.62848 23.264H25.6136C27.0806 23.264 28.4049 21.9896 28.5191 20.4759L29.1075 12.0379H11.8504C11.5013 12.0379 11.1665 11.8945 10.9196 11.6392C10.6728 11.3839 10.5341 11.0377 10.5341 10.6767C10.5341 10.3156 10.6728 9.9694 10.9196 9.71412C11.1665 9.45883 11.5013 9.31542 11.8504 9.31542L29.2994 9.31378Z" fill="#272D2F"/>
<path d="M11.1765 32.7795C11.1765 33.1243 11.0776 33.4614 10.8924 33.7481C10.7071 34.0347 10.4438 34.2582 10.1357 34.3901C9.82769 34.5221 9.48872 34.5566 9.16168 34.4894C8.83465 34.4221 8.53425 34.2561 8.29848 34.0122C8.0627 33.7684 7.90213 33.4578 7.83708 33.1196C7.77203 32.7814 7.80542 32.4309 7.93302 32.1123C8.06062 31.7938 8.27671 31.5215 8.55395 31.3299C8.83119 31.1384 9.15715 31.0361 9.49059 31.0361C9.71204 31.0359 9.93136 31.0809 10.136 31.1684C10.3406 31.2559 10.5266 31.3843 10.6832 31.5463C10.8397 31.7082 10.9639 31.9005 11.0486 32.1121C11.1332 32.3237 11.1767 32.5505 11.1765 32.7795Z" fill="#272D2F"/>
<path d="M27.185 32.7795C27.1847 33.1239 27.0857 33.4605 26.9004 33.7467C26.7151 34.0329 26.452 34.2559 26.1442 34.3875C25.8364 34.519 25.4978 34.5533 25.1712 34.4859C24.8445 34.4185 24.5446 34.2525 24.3092 34.0089C24.0738 33.7652 23.9135 33.4549 23.8487 33.117C23.7838 32.7792 23.8172 32.4291 23.9448 32.1109C24.0723 31.7928 24.2882 31.5209 24.5651 31.3296C24.8421 31.1382 25.1677 31.0361 25.5007 31.0361C25.7221 31.0359 25.9413 31.0809 26.1459 31.1684C26.3504 31.256 26.5363 31.3844 26.6927 31.5464C26.8492 31.7083 26.9732 31.9006 27.0577 32.1122C27.1422 32.3238 27.1854 32.5506 27.185 32.7795Z" fill="#272D2F"/>
<path fill-rule="evenodd" clip-rule="evenodd" d="M28.6928 32.7401C28.6992 33.4338 28.4396 34.1019 27.9709 34.5982C27.5022 35.0946 26.8625 35.3788 26.1917 35.3888H9.09646C8.41714 35.3888 7.76565 35.1097 7.2853 34.613C6.80496 34.1163 6.5351 33.4426 6.5351 32.7401C6.5351 32.0376 6.80496 31.3639 7.2853 30.8672C7.76565 30.3705 8.41714 30.0914 9.09646 30.0914H26.1917C26.8625 30.1014 27.5022 30.3856 27.9709 30.882C28.4396 31.3783 28.6992 32.0464 28.6928 32.7401ZM30.6579 35.4429C30.2178 36.2701 29.5717 36.9606 28.7867 37.4427C28.0017 37.9249 27.1063 38.1812 26.1933 38.185H9.09646C6.25597 38.185 3.95312 35.7463 3.95312 32.7401C3.95312 29.7339 6.25597 27.2952 9.09646 27.2952H26.1917C29.0306 27.2952 31.3335 29.7323 31.3335 32.7401C31.3361 33.686 31.1035 34.6168 30.6579 35.4429Z" fill="#FB7E18"/>
<path d="M58.5967 19.4482C58.608 20.8596 58.366 22.2609 57.883 23.5811C57.4221 24.8356 56.7342 25.9877 55.8562 26.976C54.9917 27.9462 53.9418 28.7203 52.773 29.2491C51.5456 29.795 50.2235 30.0766 48.8874 30.0766C47.5512 30.0766 46.2291 29.795 45.0017 29.2491C43.8407 28.7095 42.7948 27.9369 41.9249 26.976C41.0622 25.9813 40.3847 24.8304 39.9266 23.5811C38.975 20.9137 38.975 17.9827 39.9266 15.3153C40.3806 14.0727 41.0587 12.9307 41.9249 11.9499C43.2847 10.4591 45.0563 9.43857 46.9978 9.02764C48.9393 8.61671 50.9562 8.8354 52.773 9.65387C53.9466 10.1844 54.9976 10.9671 55.8562 11.9499C56.7376 12.9242 57.4262 14.0675 57.883 15.3153C58.366 16.6354 58.608 18.0368 58.5967 19.4482ZM54.8824 19.4482C54.9004 18.2114 54.6363 16.9877 54.1116 15.8762C53.6382 14.8428 52.9095 13.9568 51.9991 13.3079C51.0708 12.6912 49.9907 12.3634 48.8874 12.3634C47.784 12.3634 46.704 12.6912 45.7757 13.3079C44.8725 13.949 44.1457 14.8215 43.6663 15.8401C43.1571 16.9689 42.9033 18.2028 42.9241 19.4482C42.9074 20.6932 43.161 21.9261 43.6663 23.0563C44.1457 24.0777 44.8737 24.9526 45.7788 25.595C46.7071 26.2117 47.7872 26.5396 48.8905 26.5396C49.9939 26.5396 51.074 26.2117 52.0022 25.595C52.9074 24.9526 53.6354 24.0777 54.1148 23.0563C54.6373 21.9312 54.9001 20.6961 54.8824 19.4482Z" fill="#272D2F"/>
<path d="M63.3484 30.1638C63.1215 30.1712 62.8956 30.1305 62.6845 30.0442C62.4734 29.9579 62.2816 29.8278 62.1209 29.662C61.7991 29.3126 61.6245 28.8454 61.6356 28.3631V16.171C61.6285 15.9364 61.6678 15.7027 61.7513 15.4844C61.8347 15.2661 61.9605 15.0678 62.1209 14.9016C62.2812 14.7332 62.4723 14.5995 62.683 14.5082C62.8937 14.4169 63.12 14.3699 63.3484 14.3699C63.5769 14.3699 63.8031 14.4169 64.0139 14.5082C64.2246 14.5995 64.4157 14.7332 64.576 14.9016C64.7364 15.0678 64.8621 15.2661 64.9456 15.4844C65.0291 15.7027 65.0684 15.9364 65.0613 16.171V18.946L64.8615 16.9681C65.0583 16.5126 65.3262 16.0937 65.6545 15.7282C65.9861 15.3629 66.3715 15.054 66.7964 14.8131C67.2139 14.5577 67.6662 14.3686 68.1381 14.2522C68.6055 14.1351 69.0846 14.0757 69.5655 14.075C70.0846 14.0565 70.5923 14.235 70.9929 14.5769C71.175 14.7117 71.324 14.8887 71.4281 15.0938C71.5322 15.2988 71.5884 15.5262 71.5924 15.7577C71.5924 16.4072 71.4306 16.8795 71.1071 17.1747C70.814 17.4385 70.4393 17.5851 70.0508 17.588C69.7075 17.5918 69.3671 17.5214 69.0516 17.3814C68.7373 17.2375 68.3961 17.1669 68.0525 17.1747C67.6856 17.1807 67.3247 17.2714 66.9962 17.4404C66.6233 17.6215 66.2923 17.8833 66.0256 18.2079C65.7165 18.6057 65.4752 19.0549 65.3119 19.5364C65.129 20.1276 65.0422 20.7461 65.055 21.3667V28.3598C65.066 28.8422 64.8915 29.3093 64.5697 29.6587C64.41 29.8243 64.2193 29.9545 64.0094 30.0414C63.7994 30.1282 63.5745 30.1699 63.3484 30.1638Z" fill="#272D2F"/>
<path d="M85.9225 8.00643C86.1496 7.99921 86.3758 8.04 86.5871 8.12629C86.7985 8.21258 86.9906 8.34256 87.1516 8.50828C87.3138 8.6792 87.4405 8.88258 87.524 9.10593C87.6074 9.32929 87.6459 9.56792 87.637 9.80719V28.0477C87.6481 28.5301 87.4735 28.9973 87.1516 29.3466C86.8187 29.6691 86.3795 29.8486 85.9233 29.8486C85.4671 29.8486 85.028 29.6691 84.695 29.3466C84.3739 28.9968 84.1994 28.5299 84.2097 28.0477V26.6045L84.8441 26.8702C84.8441 27.126 84.7092 27.4409 84.4428 27.8148C84.1286 28.2169 83.7644 28.5742 83.3596 28.8776C82.859 29.2562 82.3118 29.564 81.7324 29.7927C81.0918 30.0343 80.4143 30.1543 79.7324 30.147C78.472 30.1618 77.2337 29.8033 76.164 29.1137C75.0894 28.3938 74.2148 27.3967 73.6264 26.2207C73.0163 24.9808 72.7118 23.5638 72.7129 21.9697C72.7129 20.3559 73.0174 18.9389 73.6264 17.7187C74.199 16.5413 75.0644 15.5427 76.1339 14.8257C77.1689 14.1207 78.3837 13.7507 79.623 13.763C80.3901 13.7543 81.1528 13.8842 81.8767 14.1467C82.5123 14.3749 83.1099 14.7035 83.6482 15.1209C84.1025 15.4522 84.4984 15.8615 84.8187 16.3313C85.1042 16.7249 85.2469 17.0594 85.2469 17.335L84.2097 17.7155V9.80719C84.2024 9.57128 84.2421 9.33635 84.3261 9.11689C84.4101 8.89743 84.5367 8.69811 84.6981 8.53124C84.8548 8.35933 85.0449 8.22368 85.256 8.13322C85.467 8.04276 85.6942 7.99955 85.9225 8.00643ZM80.1559 26.8997C80.9359 26.9156 81.7022 26.6869 82.3541 26.2437C82.9882 25.8031 83.4925 25.1902 83.8116 24.4724C84.1797 23.6914 84.3655 22.8319 84.354 21.9632C84.3676 21.0847 84.1818 20.2152 83.8116 19.4244C83.4925 18.7066 82.9882 18.0937 82.3541 17.6531C81.6996 17.2287 80.9427 17.0037 80.1702 17.0037C79.3977 17.0037 78.6408 17.2287 77.9863 17.6531C77.3488 18.097 76.837 18.7084 76.5034 19.4244C76.1501 20.2201 75.9745 21.0878 75.9895 21.9632C75.9764 22.8289 76.1521 23.6865 76.5034 24.4724C76.837 25.1884 77.3488 25.7998 77.9863 26.2437C78.6291 26.6833 79.3853 26.9119 80.1559 26.8997Z" fill="#272D2F"/>
<path d="M98.5865 30.1299C96.9688 30.1299 95.5605 29.7855 94.3615 29.0967C93.2108 28.4179 92.2628 27.425 91.6209 26.2266C90.9802 24.9724 90.6561 23.5711 90.6789 22.1528C90.6789 20.3816 91.0214 18.876 91.7066 17.6361C92.3549 16.4376 93.301 15.44 94.4471 14.7464C95.5305 14.0891 96.7643 13.7437 98.0203 13.746C98.967 13.7405 99.903 13.9522 100.761 14.3659C101.632 14.7759 102.417 15.3575 103.073 16.0781C103.744 16.7941 104.277 17.6357 104.643 18.5578C105.044 19.5073 105.248 20.533 105.243 21.5689C105.239 21.7896 105.188 22.0067 105.094 22.205C105.001 22.4033 104.866 22.578 104.7 22.717C104.366 23.0094 103.94 23.1666 103.501 23.1598H92.5915L91.7351 20.2077H102.212L101.578 20.7981V20.0011C101.542 19.4362 101.332 18.8981 100.978 18.466C100.614 18.0148 100.161 17.6497 99.6485 17.3951C99.1364 17.1404 98.5774 17.0023 98.0092 16.9899C97.4679 16.9855 96.929 17.0651 96.4106 17.2261C95.9252 17.3777 95.4837 17.6516 95.1259 18.0232C94.7332 18.4509 94.4402 18.9659 94.2695 19.5287C94.039 20.3027 93.9319 21.1103 93.9523 21.9199C93.9523 22.9826 94.1638 23.888 94.5867 24.6358C94.9928 25.3319 95.5623 25.9107 96.2425 26.3185C96.9104 26.6895 97.657 26.8833 98.4153 26.8827C98.9817 26.8982 99.5477 26.8387 100.1 26.7055C100.45 26.6164 100.786 26.4773 101.099 26.2922C101.365 26.1151 101.603 25.9675 101.812 25.8494C102.112 25.6839 102.444 25.5929 102.783 25.5838C102.975 25.5773 103.166 25.6135 103.343 25.6899C103.521 25.7663 103.68 25.8811 103.811 26.0266C103.947 26.1594 104.055 26.3196 104.128 26.4973C104.202 26.675 104.24 26.8665 104.239 27.0598C104.239 27.5912 103.975 28.0733 103.446 28.5063C102.951 28.9436 102.257 29.3263 101.362 29.6543C100.469 29.9705 99.5308 30.1313 98.5865 30.1299Z" fill="#272D2F"/>
<path d="M109.991 30.1638C109.764 30.1712 109.538 30.1305 109.327 30.0442C109.116 29.9579 108.924 29.8278 108.763 29.662C108.442 29.3126 108.267 28.8454 108.278 28.3631V16.171C108.271 15.9364 108.31 15.7027 108.394 15.4844C108.477 15.2661 108.603 15.0678 108.763 14.9016C108.924 14.7334 109.115 14.5999 109.326 14.5087C109.536 14.4175 109.763 14.3706 109.991 14.3706C110.219 14.3706 110.446 14.4175 110.656 14.5087C110.867 14.5999 111.058 14.7334 111.219 14.9016C111.379 15.0678 111.505 15.2661 111.588 15.4844C111.672 15.7027 111.711 15.9364 111.704 16.171V18.946L111.501 16.9681C111.698 16.5126 111.966 16.0937 112.294 15.7282C112.626 15.3629 113.011 15.054 113.436 14.8131C113.853 14.5577 114.306 14.3686 114.778 14.2522C115.245 14.1351 115.724 14.0757 116.205 14.075C116.724 14.0565 117.232 14.235 117.632 14.5769C117.814 14.7117 117.963 14.8887 118.068 15.0938C118.172 15.2988 118.228 15.5262 118.232 15.7577C118.232 16.4072 118.07 16.8795 117.746 17.1747C117.453 17.4385 117.079 17.5851 116.69 17.588C116.347 17.5918 116.007 17.5214 115.691 17.3814C115.377 17.2375 115.036 17.1669 114.692 17.1747C114.325 17.1807 113.964 17.2714 113.636 17.4404C113.263 17.6215 112.932 17.8833 112.665 18.2079C112.356 18.6057 112.115 19.0549 111.951 19.5364C111.768 20.1276 111.682 20.7461 111.694 21.3667V28.3598C111.705 28.8422 111.531 29.3093 111.209 29.6587C111.05 29.8239 110.86 29.9539 110.65 30.0407C110.441 30.1275 110.217 30.1694 109.991 30.1638Z" fill="#272D2F"/>
<path d="M127.439 30.1472C126.954 30.166 126.482 29.9855 126.126 29.6454C125.959 29.4759 125.828 29.2728 125.741 29.0489C125.653 28.8249 125.611 28.5847 125.617 28.3432V11.2245H129.328V28.3432C129.332 28.5871 129.285 28.829 129.192 29.053C129.098 29.2769 128.96 29.4777 128.785 29.6421C128.419 29.9881 127.935 30.1698 127.439 30.1472ZM121.13 12.8776C120.668 12.8902 120.22 12.7214 119.874 12.4053C119.712 12.2461 119.586 12.0532 119.502 11.8394C119.418 11.6256 119.38 11.3959 119.388 11.1654C119.378 10.9391 119.416 10.7132 119.5 10.5039C119.584 10.2946 119.711 10.1071 119.874 9.95506C120.22 9.63893 120.668 9.47014 121.13 9.48273H133.805C134.258 9.46669 134.7 9.63645 135.033 9.95506C135.195 10.115 135.324 10.3073 135.413 10.5205C135.501 10.7336 135.546 10.9631 135.546 11.1949C135.546 11.4268 135.501 11.6563 135.413 11.8694C135.324 12.0825 135.195 12.2749 135.033 12.4348C134.692 12.7365 134.253 12.8946 133.805 12.8776H121.13Z" fill="#FB7E18"/>
<path d="M149.225 13.7467C149.452 13.7393 149.678 13.78 149.889 13.8663C150.1 13.9527 150.292 14.0827 150.453 14.2486C150.615 14.4195 150.742 14.6228 150.825 14.8462C150.909 15.0696 150.947 15.3082 150.938 15.5475V28.0314C150.949 28.5138 150.775 28.981 150.453 29.3304C150.12 29.6527 149.681 29.8321 149.225 29.8321C148.769 29.8321 148.33 29.6527 147.998 29.3304C147.676 28.981 147.501 28.5138 147.512 28.0314V26.5882L148.147 26.8539C148.147 27.1097 148.014 27.4246 147.747 27.7986C147.432 28.2006 147.068 28.558 146.662 28.8613C146.162 29.2402 145.615 29.548 145.035 29.7764C144.395 30.0182 143.718 30.1382 143.037 30.1307C141.776 30.146 140.538 29.7874 139.468 29.0975C138.394 28.3774 137.519 27.3803 136.931 26.2044C136.304 24.8827 135.991 23.4254 136.017 21.9535C136.017 20.3397 136.322 18.9227 136.931 17.7025C137.505 16.5245 138.372 15.526 139.443 14.8094C140.478 14.1039 141.693 13.7338 142.932 13.7467C143.7 13.7379 144.463 13.8678 145.187 14.1305C145.822 14.3586 146.42 14.6872 146.957 15.1047C147.412 15.4359 147.807 15.8453 148.128 16.315C148.413 16.7086 148.556 17.0432 148.556 17.3187L147.528 17.7025V15.5475C147.521 15.3128 147.56 15.0792 147.644 14.8609C147.727 14.6426 147.853 14.4442 148.014 14.2781C148.168 14.1066 148.356 13.9706 148.565 13.8791C148.773 13.7875 148.999 13.7424 149.225 13.7467ZM143.459 26.8834C144.239 26.8988 145.005 26.6702 145.657 26.2274C146.291 25.7872 146.795 25.1742 147.113 24.4562C147.482 23.6754 147.667 22.8158 147.655 21.9469C147.669 21.0683 147.484 20.1986 147.113 19.4081C146.795 18.6901 146.291 18.077 145.657 17.6369C145.005 17.1941 144.239 16.9654 143.459 16.9809C142.688 16.9682 141.932 17.1969 141.289 17.6369C140.651 18.0812 140.139 18.6923 139.805 19.4081C139.452 20.2041 139.276 21.0716 139.291 21.9469C139.278 22.8125 139.454 23.67 139.805 24.4562C140.139 25.1719 140.651 25.7831 141.289 26.2274C141.932 26.6674 142.688 26.896 143.459 26.8834Z" fill="#272D2F"/>
<path d="M162.857 14.074C164.265 14.074 165.331 14.379 166.054 14.9891C166.805 15.6123 167.336 16.4732 167.567 17.4393C167.865 18.5342 168.009 19.6675 167.995 20.8047V28.3587C168.007 28.8411 167.832 29.3083 167.51 29.6576C167.177 29.98 166.739 30.1594 166.283 30.1594C165.827 30.1594 165.388 29.98 165.055 29.6576C164.733 29.3083 164.559 28.8411 164.57 28.3587V20.8047C164.578 20.2134 164.492 19.6247 164.313 19.063C164.174 18.5519 163.872 18.1045 163.456 17.7936C163.033 17.4787 162.434 17.3212 161.658 17.3212C160.982 17.2999 160.312 17.4628 159.717 17.7936C159.214 18.0971 158.799 18.5357 158.518 19.063C158.245 19.5996 158.108 20.1986 158.118 20.8047V28.3587C158.129 28.8411 157.954 29.3083 157.633 29.6576C157.3 29.98 156.861 30.1594 156.405 30.1594C155.949 30.1594 155.51 29.98 155.178 29.6576C154.856 29.3083 154.681 28.8411 154.692 28.3587V16.1699C154.685 15.9353 154.724 15.7016 154.808 15.4833C154.891 15.265 155.017 15.0667 155.178 14.9006C155.338 14.7324 155.529 14.5988 155.74 14.5076C155.951 14.4165 156.177 14.3695 156.405 14.3695C156.634 14.3695 156.86 14.4165 157.07 14.5076C157.281 14.5988 157.472 14.7324 157.633 14.9006C157.793 15.0667 157.919 15.265 158.002 15.4833C158.086 15.7016 158.125 15.9353 158.118 16.1699V17.4393L157.69 17.3508C157.895 16.967 158.144 16.6102 158.432 16.288C158.771 15.8798 159.154 15.5133 159.574 15.1958C160.026 14.8532 160.527 14.5844 161.058 14.3987C161.634 14.1779 162.243 14.0679 162.857 14.074Z" fill="#272D2F"/>
<path d="M173.745 30.1787C173.518 30.1861 173.292 30.1454 173.081 30.0591C172.87 29.9728 172.678 29.8427 172.517 29.6769C172.196 29.3275 172.021 28.8603 172.032 28.3779V10.1342C172.025 9.89952 172.064 9.66586 172.148 9.44756C172.231 9.22925 172.357 9.03092 172.517 8.86476C172.678 8.69657 172.869 8.56301 173.08 8.47185C173.29 8.38068 173.516 8.33374 173.745 8.33374C173.973 8.33374 174.2 8.38068 174.41 8.47185C174.621 8.56301 174.812 8.69657 174.972 8.86476C175.133 9.03092 175.259 9.22925 175.342 9.44756C175.426 9.66586 175.465 9.89952 175.458 10.1342V28.3747C175.469 28.857 175.294 29.3242 174.972 29.6736C174.812 29.84 174.62 29.9707 174.409 30.0576C174.198 30.1444 173.972 30.1857 173.745 30.1787ZM182.823 14.3851C183.042 14.3862 183.257 14.437 183.455 14.5339C183.652 14.6309 183.826 14.7716 183.965 14.946C184.289 15.32 184.45 15.684 184.45 16.0383C184.45 16.5106 184.222 16.9534 183.765 17.3667L175.172 25.544L175.03 21.4701L181.567 14.946C181.728 14.7688 181.923 14.6277 182.139 14.5312C182.355 14.4347 182.588 14.385 182.823 14.3851ZM183.251 30.1492C183.013 30.1521 182.777 30.1007 182.56 29.9986C182.343 29.8966 182.15 29.7464 181.995 29.5588L176.714 23.7727L179.312 21.293L184.457 27.079C184.627 27.2527 184.763 27.4594 184.856 27.6874C184.949 27.9153 184.998 28.16 184.999 28.4075C185.002 28.6529 184.95 28.8956 184.846 29.1161C184.742 29.3366 184.589 29.5287 184.4 29.6769C184.081 29.9673 183.675 30.1343 183.251 30.1492Z" fill="#272D2F"/>
</svg>
