<svg width="14" height="14" viewBox="0 0 14 14" fill="none" xmlns="http://www.w3.org/2000/svg">
<path fill-rule="evenodd" clip-rule="evenodd" d="M1.16603 12.1762V5.11449C1.16372 4.75399 1.45386 4.45974 1.81436 4.45699H4.40686C4.76737 4.45974 5.05751 4.75399 5.0552 5.11449V1.82449C5.05288 1.46431 5.34252 1.1702 5.7027 1.16699H8.29603C8.65653 1.16974 8.94667 1.46399 8.94436 1.82449V3.79866C8.94205 3.43815 9.23219 3.14391 9.5927 3.14116H12.1852C12.5454 3.14437 12.835 3.43848 12.8327 3.79866V12.1762C12.835 12.5367 12.5449 12.8309 12.1844 12.8337H1.81436C1.45386 12.8309 1.16372 12.5367 1.16603 12.1762V12.1762Z" stroke="#FB7E18" stroke-width="1.5" stroke-linecap="round" stroke-linejoin="round"/>
<path d="M4.31055 12.8334C4.31055 13.2476 4.64633 13.5834 5.06055 13.5834C5.47476 13.5834 5.81055 13.2476 5.81055 12.8334H4.31055ZM5.81055 5.11426C5.81055 4.70004 5.47476 4.36426 5.06055 4.36426C4.64633 4.36426 4.31055 4.70004 4.31055 5.11426H5.81055ZM8.13932 12.8338C8.13932 13.248 8.47511 13.5838 8.88932 13.5838C9.30354 13.5838 9.63932 13.248 9.63932 12.8338H8.13932ZM9.63932 3.79883C9.63932 3.38461 9.30354 3.04883 8.88932 3.04883C8.47511 3.04883 8.13932 3.38461 8.13932 3.79883H9.63932ZM5.81055 12.8334V5.11426H4.31055V12.8334H5.81055ZM9.63932 12.8338V3.79883H8.13932V12.8338H9.63932Z" fill="#FB7E18"/>
</svg>
