<svg width="12" height="14" viewBox="0 0 12 14" fill="none" xmlns="http://www.w3.org/2000/svg">
<path fill-rule="evenodd" clip-rule="evenodd" d="M7.73031 12.8337H4.26969C2.71447 12.8067 1.47487 11.5012 1.50039 9.91699V7.00033C1.48621 5.6889 2.3374 4.53081 3.57675 4.17533V3.79199C3.53545 2.38596 4.61972 1.21141 6 1.16699C7.38028 1.21141 8.46455 2.38596 8.42325 3.79199V4.17533C9.6626 4.53081 10.5138 5.6889 10.4996 7.00033V9.91699C10.5251 11.5012 9.28553 12.8067 7.73031 12.8337Z" stroke="#FB7E18" stroke-width="1.5" stroke-linecap="round" stroke-linejoin="round"/>
<path d="M5.3739 9.91732C5.3739 10.3315 5.70969 10.6673 6.1239 10.6673C6.53811 10.6673 6.8739 10.3315 6.8739 9.91732H5.3739ZM6.8739 8.45898C6.8739 8.04477 6.53811 7.70898 6.1239 7.70898C5.70969 7.70898 5.3739 8.04477 5.3739 8.45898H6.8739ZM8.35105 4.89964C8.7509 5.00778 9.1627 4.7713 9.27084 4.37145C9.37897 3.9716 9.14249 3.5598 8.74265 3.45166L8.35105 4.89964ZM7.85472 4.08399V4.83399L7.85543 4.83399L7.85472 4.08399ZM4.39329 4.08399L4.39259 4.83399H4.39329V4.08399ZM3.50537 3.45166C3.10552 3.5598 2.86904 3.9716 2.97718 4.37145C3.08532 4.7713 3.49712 5.00778 3.89697 4.89964L3.50537 3.45166ZM6.8739 9.91732V8.45898H5.3739V9.91732H6.8739ZM8.74265 3.45166C8.45285 3.37329 8.15411 3.3337 7.85402 3.33399L7.85543 4.83399C8.02262 4.83383 8.18921 4.85588 8.35105 4.89964L8.74265 3.45166ZM7.85472 3.33399H4.39329V4.83399H7.85472V3.33399ZM4.394 3.33399C4.09391 3.3337 3.79517 3.37329 3.50537 3.45166L3.89697 4.89964C4.0588 4.85588 4.2254 4.83383 4.39259 4.83399L4.394 3.33399Z" fill="#FB7E18"/>
</svg>
