<svg width="16" height="16" viewBox="0 0 16 16" fill="none" xmlns="http://www.w3.org/2000/svg">
<path d="M0.916016 7.24984C0.501802 7.24984 0.166016 7.58562 0.166016 7.99984C0.166016 8.41405 0.501802 8.74984 0.916016 8.74984V7.24984ZM7.99935 8.74984C8.41356 8.74984 8.74935 8.41405 8.74935 7.99984C8.74935 7.58562 8.41356 7.24984 7.99935 7.24984V8.74984ZM8 7.24984C7.58579 7.24984 7.25 7.58562 7.25 7.99984C7.25 8.41405 7.58579 8.74984 8 8.74984V7.24984ZM15.0833 8.74984C15.4975 8.74984 15.8333 8.41405 15.8333 7.99984C15.8333 7.58562 15.4975 7.24984 15.0833 7.24984V8.74984ZM8.74935 7.99984C8.74935 7.58562 8.41356 7.24984 7.99935 7.24984C7.58514 7.24984 7.24935 7.58562 7.24935 7.99984H8.74935ZM7.24935 15.0832C7.24935 15.4974 7.58514 15.8332 7.99935 15.8332C8.41356 15.8332 8.74935 15.4974 8.74935 15.0832H7.24935ZM7.24935 7.99984C7.24935 8.41405 7.58514 8.74984 7.99935 8.74984C8.41356 8.74984 8.74935 8.41405 8.74935 7.99984H7.24935ZM8.74935 0.916504C8.74935 0.50229 8.41356 0.166504 7.99935 0.166504C7.58514 0.166504 7.24935 0.50229 7.24935 0.916504H8.74935ZM0.916016 8.74984H7.99935V7.24984H0.916016V8.74984ZM8 8.74984H15.0833V7.24984H8V8.74984ZM7.99935 7.99984H7.24935V7.99984C7.24935 7.99984 7.24935 7.99984 7.24935 7.99984C7.24935 7.99984 7.24935 7.99984 7.24935 7.99984C7.24935 7.99984 7.24935 7.99984 7.24935 7.99984C7.24935 7.99985 7.24935 7.99985 7.24935 7.99985C7.24935 7.99985 7.24935 7.99985 7.24935 7.99986C7.24935 7.99986 7.24935 7.99986 7.24935 7.99986C7.24935 7.99987 7.24935 7.99987 7.24935 7.99988C7.24935 7.99988 7.24935 7.99988 7.24935 7.99989C7.24935 7.9999 7.24935 7.9999 7.24935 7.99991C7.24935 7.99991 7.24935 7.99992 7.24935 7.99993C7.24935 7.99994 7.24935 7.99994 7.24935 7.99995C7.24935 7.99996 7.24935 7.99997 7.24935 7.99998C7.24935 7.99999 7.24935 8 7.24935 8.00002C7.24935 8.00003 7.24935 8.00004 7.24935 8.00005C7.24935 8.00007 7.24935 8.00008 7.24935 8.0001C7.24935 8.00011 7.24935 8.00013 7.24935 8.00014C7.24935 8.00016 7.24935 8.00018 7.24935 8.0002C7.24935 8.00022 7.24935 8.00024 7.24935 8.00026C7.24935 8.00028 7.24935 8.0003 7.24935 8.00033C7.24935 8.00035 7.24935 8.00037 7.24935 8.0004C7.24935 8.00042 7.24935 8.00045 7.24935 8.00048C7.24935 8.00051 7.24935 8.00054 7.24935 8.00057C7.24935 8.0006 7.24935 8.00063 7.24935 8.00066C7.24935 8.00069 7.24935 8.00073 7.24935 8.00076C7.24935 8.0008 7.24935 8.00084 7.24935 8.00088C7.24935 8.00091 7.24935 8.00095 7.24935 8.001C7.24935 8.00104 7.24935 8.00108 7.24935 8.00112C7.24935 8.00117 7.24935 8.00121 7.24935 8.00126C7.24935 8.00131 7.24935 8.00136 7.24935 8.00141C7.24935 8.00146 7.24935 8.00151 7.24935 8.00157C7.24935 8.00162 7.24935 8.00168 7.24935 8.00173C7.24935 8.00179 7.24935 8.00185 7.24935 8.00191C7.24935 8.00197 7.24935 8.00204 7.24935 8.0021C7.24935 8.00216 7.24935 8.00223 7.24935 8.0023C7.24935 8.00237 7.24935 8.00244 7.24935 8.00251C7.24935 8.00258 7.24935 8.00266 7.24935 8.00273C7.24935 8.00281 7.24935 8.00289 7.24935 8.00297C7.24935 8.00305 7.24935 8.00313 7.24935 8.00321C7.24935 8.0033 7.24935 8.00339 7.24935 8.00347C7.24935 8.00356 7.24935 8.00365 7.24935 8.00375C7.24935 8.00384 7.24935 8.00394 7.24935 8.00403C7.24935 8.00413 7.24935 8.00423 7.24935 8.00433C7.24935 8.00443 7.24935 8.00454 7.24935 8.00465C7.24935 8.00475 7.24935 8.00486 7.24935 8.00497C7.24935 8.00509 7.24935 8.0052 7.24935 8.00532C7.24935 8.00543 7.24935 8.00555 7.24935 8.00567C7.24935 8.0058 7.24935 8.00592 7.24935 8.00605C7.24935 8.00617 7.24935 8.0063 7.24935 8.00643C7.24935 8.00657 7.24935 8.0067 7.24935 8.00684C7.24935 8.00697 7.24935 8.00711 7.24935 8.00726C7.24935 8.0074 7.24935 8.00755 7.24935 8.00769C7.24935 8.00784 7.24935 8.00799 7.24935 8.00815C7.24935 8.0083 7.24935 8.00846 7.24935 8.00862C7.24935 8.00878 7.24935 8.00894 7.24935 8.00911C7.24935 8.00927 7.24935 8.00944 7.24935 8.00961C7.24935 8.00978 7.24935 8.00996 7.24935 8.01013C7.24935 8.01031 7.24935 8.01049 7.24935 8.01068C7.24935 8.01086 7.24935 8.01105 7.24935 8.01124C7.24935 8.01143 7.24935 8.01162 7.24935 8.01182C7.24935 8.01201 7.24935 8.01221 7.24935 8.01241C7.24935 8.01262 7.24935 8.01282 7.24935 8.01303C7.24935 8.01324 7.24935 8.01346 7.24935 8.01367C7.24935 8.01389 7.24935 8.01411 7.24935 8.01433C7.24935 8.01455 7.24935 8.01478 7.24935 8.01501C7.24935 8.01524 7.24935 8.01547 7.24935 8.01571C7.24935 8.01595 7.24935 8.01619 7.24935 8.01643C7.24935 8.01667 7.24935 8.01692 7.24935 8.01717C7.24935 8.01743 7.24935 8.01768 7.24935 8.01794C7.24935 8.0182 7.24935 8.01846 7.24935 8.01873C7.24935 8.01899 7.24935 8.01926 7.24935 8.01954C7.24935 8.01981 7.24935 8.02009 7.24935 8.02037C7.24935 8.02065 7.24935 8.02093 7.24935 8.02122C7.24935 8.02151 7.24935 8.0218 7.24935 8.0221C7.24935 8.0224 7.24935 8.0227 7.24935 8.023C7.24935 8.02331 7.24935 8.02362 7.24935 8.02393C7.24935 8.02424 7.24935 8.02456 7.24935 8.02488C7.24935 8.0252 7.24935 8.02553 7.24935 8.02586C7.24935 8.02619 7.24935 8.02652 7.24935 8.02686C7.24935 8.0272 7.24935 8.02754 7.24935 8.02788C7.24935 8.02823 7.24935 8.02858 7.24935 8.02894C7.24935 8.02929 7.24935 8.02965 7.24935 8.03001C7.24935 8.03038 7.24935 8.03074 7.24935 8.03112C7.24935 8.03149 7.24935 8.03187 7.24935 8.03225C7.24935 8.03263 7.24935 8.03301 7.24935 8.0334C7.24935 8.0338 7.24935 8.03419 7.24935 8.03459C7.24935 8.03499 7.24935 8.03539 7.24935 8.0358C7.24935 8.03621 7.24935 8.03662 7.24935 8.03704C7.24935 8.03746 7.24935 8.03788 7.24935 8.03831C7.24935 8.03874 7.24935 8.03917 7.24935 8.03961C7.24935 8.04004 7.24935 8.04049 7.24935 8.04093C7.24935 8.04138 7.24935 8.04183 7.24935 8.04229C7.24935 8.04274 7.24935 8.0432 7.24935 8.04367C7.24935 8.04414 7.24935 8.04461 7.24935 8.04508C7.24935 8.04556 7.24935 8.04604 7.24935 8.04653C7.24935 8.04702 7.24935 8.04751 7.24935 8.048C7.24935 8.0485 7.24935 8.049 7.24935 8.04951C7.24935 8.05002 7.24935 8.05053 7.24935 8.05104C7.24935 8.05156 7.24935 8.05208 7.24935 8.05261C7.24935 8.05314 7.24935 8.05367 7.24935 8.05421C7.24935 8.05475 7.24935 8.05529 7.24935 8.05584C7.24935 8.05639 7.24935 8.05695 7.24935 8.05751C7.24935 8.05807 7.24935 8.05863 7.24935 8.0592C7.24935 8.05977 7.24935 8.06035 7.24935 8.06093C7.24935 8.06151 7.24935 8.0621 7.24935 8.06269C7.24935 8.06329 7.24935 8.06388 7.24935 8.06449C7.24935 8.06509 7.24935 8.0657 7.24935 8.06632C7.24935 8.06693 7.24935 8.06755 7.24935 8.06818C7.24935 8.06881 7.24935 8.06944 7.24935 8.07008C7.24935 8.07072 7.24935 8.07136 7.24935 8.07201C7.24935 8.07266 7.24935 8.07332 7.24935 8.07398C7.24935 8.07464 7.24935 8.07531 7.24935 8.07599C7.24935 8.07666 7.24935 8.07734 7.24935 8.07803C7.24935 8.07871 7.24935 8.0794 7.24935 8.0801C7.24935 8.0808 7.24935 8.0815 7.24935 8.08221C7.24935 8.08292 7.24935 8.08364 7.24935 8.08436C7.24935 8.08508 7.24935 8.08581 7.24935 8.08655C7.24935 8.08728 7.24935 8.08802 7.24935 8.08877C7.24935 8.08952 7.24935 8.09027 7.24935 8.09103C7.24935 8.09179 7.24935 8.09256 7.24935 8.09333C7.24935 8.0941 7.24935 8.09488 7.24935 8.09567C7.24935 8.09645 7.24935 8.09725 7.24935 8.09804C7.24935 8.09884 7.24935 8.09965 7.24935 8.10046C7.24935 8.10127 7.24935 8.10209 7.24935 8.10291C7.24935 8.10374 7.24935 8.10457 7.24935 8.10541C7.24935 8.10624 7.24935 8.10709 7.24935 8.10794C7.24935 8.10879 7.24935 8.10965 7.24935 8.11051C7.24935 8.11138 7.24935 8.11225 7.24935 8.11313C7.24935 8.11401 7.24935 8.11489 7.24935 8.11578C7.24935 8.11668 7.24935 8.11757 7.24935 8.11848C7.24935 8.11939 7.24935 8.1203 7.24935 8.12122C7.24935 8.12214 7.24935 8.12306 7.24935 8.124C7.24935 8.12493 7.24935 8.12587 7.24935 8.12682C7.24935 8.12777 7.24935 8.12872 7.24935 8.12968C7.24935 8.13064 7.24935 8.13161 7.24935 8.13259C7.24935 8.13357 7.24935 8.13455 7.24935 8.13554C7.24935 8.13653 7.24935 8.13753 7.24935 8.13853C7.24935 8.13954 7.24935 8.14055 7.24935 8.14157C7.24935 8.14259 7.24935 8.14362 7.24935 8.14465C7.24935 8.14569 7.24935 8.14673 7.24935 8.14778C7.24935 8.14883 7.24935 8.14988 7.24935 8.15095C7.24935 8.15201 7.24935 8.15308 7.24935 8.15416C7.24935 8.15524 7.24935 8.15633 7.24935 8.15742C7.24935 8.15852 7.24935 8.15962 7.24935 8.16073C7.24935 8.16184 7.24935 8.16295 7.24935 8.16408C7.24935 8.16521 7.24935 8.16634 7.24935 8.16748C7.24935 8.16862 7.24935 8.16977 7.24935 8.17092C7.24935 8.17208 7.24935 8.17324 7.24935 8.17441C7.24935 8.17559 7.24935 8.17676 7.24935 8.17795C7.24935 8.17914 7.24935 8.18034 7.24935 8.18154C7.24935 8.18274 7.24935 8.18395 7.24935 8.18517C7.24935 8.18639 7.24935 8.18762 7.24935 8.18885C7.24935 8.19009 7.24935 8.19133 7.24935 8.19258C7.24935 8.19384 7.24935 8.1951 7.24935 8.19636C7.24935 8.19763 7.24935 8.19891 7.24935 8.20019C7.24935 8.20148 7.24935 8.20277 7.24935 8.20407C7.24935 8.20537 7.24935 8.20668 7.24935 8.208C7.24935 8.20932 7.24935 8.21064 7.24935 8.21198C7.24935 8.21331 7.24935 8.21465 7.24935 8.216C7.24935 8.21735 7.24935 8.21871 7.24935 8.22008C7.24935 8.22145 7.24935 8.22283 7.24935 8.22421C7.24935 8.2256 7.24935 8.22699 7.24935 8.22839C7.24935 8.22979 7.24935 8.2312 7.24935 8.23262C7.24935 8.23404 7.24935 8.23547 7.24935 8.23691C7.24935 8.23835 7.24935 8.23979 7.24935 8.24125C7.24935 8.2427 7.24935 8.24416 7.24935 8.24563C7.24935 8.24711 7.24935 8.24859 7.24935 8.25008C7.24935 8.25157 7.24935 8.25306 7.24935 8.25457C7.24935 8.25608 7.24935 8.2576 7.24935 8.25912C7.24935 8.26065 7.24935 8.26218 7.24935 8.26372C7.24935 8.26527 7.24935 8.26682 7.24935 8.26838C7.24935 8.26994 7.24935 8.27151 7.24935 8.27309C7.24935 8.27467 7.24935 8.27626 7.24935 8.27786C7.24935 8.27945 7.24935 8.28106 7.24935 8.28268C7.24935 8.28429 7.24935 8.28592 7.24935 8.28755C7.24935 8.28919 7.24935 8.29083 7.24935 8.29249C7.24935 8.29414 7.24935 8.2958 7.24935 8.29747C7.24935 8.29915 7.24935 8.30083 7.24935 8.30252C7.24935 8.30421 7.24935 8.30591 7.24935 8.30762C7.24935 8.30933 7.24935 8.31105 7.24935 8.31278C7.24935 8.31451 7.24935 8.31625 7.24935 8.31799C7.24935 8.31974 7.24935 8.3215 7.24935 8.32327C7.24935 8.32504 7.24935 8.32681 7.24935 8.3286C7.24935 8.33039 7.24935 8.33218 7.24935 8.33399C7.24935 8.33579 7.24935 8.33761 7.24935 8.33944C7.24935 8.34126 7.24935 8.3431 7.24935 8.34494C7.24935 8.34679 7.24935 8.34864 7.24935 8.35051C7.24935 8.35237 7.24935 8.35425 7.24935 8.35613C7.24935 8.35802 7.24935 8.35992 7.24935 8.36182C7.24935 8.36373 7.24935 8.36564 7.24935 8.36757C7.24935 8.36949 7.24935 8.37143 7.24935 8.37337C7.24935 8.37532 7.24935 8.37727 7.24935 8.37924C7.24935 8.38121 7.24935 8.38318 7.24935 8.38517C7.24935 8.38715 7.24935 8.38915 7.24935 8.39116C7.24935 8.39316 7.24935 8.39518 7.24935 8.39721C7.24935 8.39924 7.24935 8.40127 7.24935 8.40332C7.24935 8.40537 7.24935 8.40743 7.24935 8.4095C7.24935 8.41157 7.24935 8.41365 7.24935 8.41574C7.24935 8.41783 7.24935 8.41993 7.24935 8.42204C7.24935 8.42415 7.24935 8.42627 7.24935 8.4284C7.24935 8.43053 7.24935 8.43268 7.24935 8.43483C7.24935 8.43698 7.24935 8.43915 7.24935 8.44132C7.24935 8.4435 7.24935 8.44568 7.24935 8.44788C7.24935 8.45007 7.24935 8.45228 7.24935 8.4545C7.24935 8.45672 7.24935 8.45895 7.24935 8.46119C7.24935 8.46343 7.24935 8.46568 7.24935 8.46794C7.24935 8.4702 7.24935 8.47247 7.24935 8.47475C7.24935 8.47704 7.24935 8.47933 7.24935 8.48164C7.24935 8.48394 7.24935 8.48626 7.24935 8.48859C7.24935 8.49091 7.24935 8.49325 7.24935 8.4956C7.24935 8.49795 7.24935 8.50031 7.24935 8.50268C7.24935 8.50506 7.24935 8.50744 7.24935 8.50983C7.24935 8.51223 7.24935 8.51463 7.24935 8.51705C7.24935 8.51947 7.24935 8.52189 7.24935 8.52433C7.24935 8.52677 7.24935 8.52922 7.24935 8.53169C7.24935 8.53415 7.24935 8.53662 7.24935 8.53911C7.24935 8.54159 7.24935 8.54409 7.24935 8.5466C7.24935 8.54911 7.24935 8.55163 7.24935 8.55416C7.24935 8.55669 7.24935 8.55923 7.24935 8.56178C7.24935 8.56434 7.24935 8.56691 7.24935 8.56948C7.24935 8.57206 7.24935 8.57465 7.24935 8.57725C7.24935 8.57985 7.24935 8.58246 7.24935 8.58509C7.24935 8.58771 7.24935 8.59035 7.24935 8.593C7.24935 8.59564 7.24935 8.5983 7.24935 8.60098C7.24935 8.60365 7.24935 8.60633 7.24935 8.60903C7.24935 8.61172 7.24935 8.61443 7.24935 8.61715C7.24935 8.61987 7.24935 8.6226 7.24935 8.62534C7.24935 8.62809 7.24935 8.63084 7.24935 8.63361C7.24935 8.63638 7.24935 8.63916 7.24935 8.64195C7.24935 8.64474 7.24935 8.64755 7.24935 8.65036C7.24935 8.65318 7.24935 8.65601 7.24935 8.65885C7.24935 8.66169 7.24935 8.66454 7.24935 8.66741C7.24935 8.67027 7.24935 8.67315 7.24935 8.67604C7.24935 8.67893 7.24935 8.68183 7.24935 8.68474C7.24935 8.68766 7.24935 8.69059 7.24935 8.69352C7.24935 8.69646 7.24935 8.69942 7.24935 8.70238C7.24935 8.70534 7.24935 8.70832 7.24935 8.71131C7.24935 8.7143 7.24935 8.7173 7.24935 8.72032C7.24935 8.72333 7.24935 8.72636 7.24935 8.7294C7.24935 8.73244 7.24935 8.73549 7.24935 8.73856C7.24935 8.74162 7.24935 8.7447 7.24935 8.74779C7.24935 8.75088 7.24935 8.75398 7.24935 8.7571C7.24935 8.76022 7.24935 8.76335 7.24935 8.76649C7.24935 8.76963 7.24935 8.77278 7.24935 8.77595C7.24935 8.77912 7.24935 8.7823 7.24935 8.78549C7.24935 8.78869 7.24935 8.79189 7.24935 8.79511C7.24935 8.79833 7.24935 8.80157 7.24935 8.80481C7.24935 8.80806 7.24935 8.81132 7.24935 8.81459C7.24935 8.81786 7.24935 8.82115 7.24935 8.82445C7.24935 8.82774 7.24935 8.83106 7.24935 8.83438C7.24935 8.83771 7.24935 8.84104 7.24935 8.8444C7.24935 8.84775 7.24935 8.85111 7.24935 8.85449C7.24935 8.85787 7.24935 8.86126 7.24935 8.86466C7.24935 8.86807 7.24935 8.87149 7.24935 8.87492C7.24935 8.87835 7.24935 8.88179 7.24935 8.88525C7.24935 8.88871 7.24935 8.89218 7.24935 8.89567C7.24935 8.89916 7.24935 8.90266 7.24935 8.90617C7.24935 8.90968 7.24935 8.91321 7.24935 8.91675C7.24935 8.92029 7.24935 8.92384 7.24935 8.92741C7.24935 8.93098 7.24935 8.93456 7.24935 8.93815C7.24935 8.94175 7.24935 8.94536 7.24935 8.94898C7.24935 8.9526 7.24935 8.95624 7.24935 8.95989C7.24935 8.96354 7.24935 8.9672 7.24935 8.97088C7.24935 8.97456 7.24935 8.97825 7.24935 8.98196C7.24935 8.98567 7.24935 8.98939 7.24935 8.99312C7.24935 8.99685 7.24935 9.0006 7.24935 9.00436C7.24935 9.00813 7.24935 9.0119 7.24935 9.01569C7.24935 9.01948 7.24935 9.02329 7.24935 9.02711C7.24935 9.03093 7.24935 9.03476 7.24935 9.03861C7.24935 9.04245 7.24935 9.04632 7.24935 9.05019C7.24935 9.05407 7.24935 9.05796 7.24935 9.06186C7.24935 9.06577 7.24935 9.06968 7.24935 9.07362C7.24935 9.07755 7.24935 9.0815 7.24935 9.08546C7.24935 9.08942 7.24935 9.0934 7.24935 9.09739C7.24935 9.10138 7.24935 9.10539 7.24935 9.10941C7.24935 9.11343 7.24935 9.11746 7.24935 9.12151C7.24935 9.12556 7.24935 9.12963 7.24935 9.1337C7.24935 9.13778 7.24935 9.14188 7.24935 9.14598C7.24935 9.15009 7.24935 9.15421 7.24935 9.15835C7.24935 9.16249 7.24935 9.16664 7.24935 9.17081C7.24935 9.17498 7.24935 9.17916 7.24935 9.18336C7.24935 9.18755 7.24935 9.19176 7.24935 9.19599C7.24935 9.20022 7.24935 9.20446 7.24935 9.20872C7.24935 9.21297 7.24935 9.21724 7.24935 9.22153C7.24935 9.22582 7.24935 9.23012 7.24935 9.23444C7.24935 9.23875 7.24935 9.24308 7.24935 9.24743C7.24935 9.25178 7.24935 9.25614 7.24935 9.26052C7.24935 9.2649 7.24935 9.26929 7.24935 9.2737C7.24935 9.2781 7.24935 9.28253 7.24935 9.28697C7.24935 9.2914 7.24935 9.29586 7.24935 9.30033C7.24935 9.3048 7.24935 9.30928 7.24935 9.31378C7.24935 9.31828 7.24935 9.32279 7.24935 9.32732C7.24935 9.33186 7.24935 9.3364 7.24935 9.34096C7.24935 9.34553 7.24935 9.3501 7.24935 9.3547C7.24935 9.35929 7.24935 9.3639 7.24935 9.36852C7.24935 9.37314 7.24935 9.37778 7.24935 9.38244C7.24935 9.38709 7.24935 9.39176 7.24935 9.39645C7.24935 9.40114 7.24935 9.40584 7.24935 9.41056C7.24935 9.41528 7.24935 9.42001 7.24935 9.42476C7.24935 9.42951 7.24935 9.43428 7.24935 9.43906C7.24935 9.44384 7.24935 9.44864 7.24935 9.45345C7.24935 9.45826 7.24935 9.46309 7.24935 9.46794C7.24935 9.47278 7.24935 9.47764 7.24935 9.48252C7.24935 9.4874 7.24935 9.49229 7.24935 9.4972C7.24935 9.50211 7.24935 9.50704 7.24935 9.51198C7.24935 9.51692 7.24935 9.52188 7.24935 9.52685C7.24935 9.53183 7.24935 9.53681 7.24935 9.54182C7.24935 9.54683 7.24935 9.55185 7.24935 9.55689C7.24935 9.56193 7.24935 9.56698 7.24935 9.57206C7.24935 9.57713 7.24935 9.58222 7.24935 9.58732C7.24935 9.59242 7.24935 9.59754 7.24935 9.60268C7.24935 9.60782 7.24935 9.61297 7.24935 9.61814C7.24935 9.62331 7.24935 9.6285 7.24935 9.6337C7.24935 9.63891 7.24935 9.64413 7.24935 9.64936C7.24935 9.6546 7.24935 9.65985 7.24935 9.66512C7.24935 9.67039 7.24935 9.67568 7.24935 9.68098C7.24935 9.68629 7.24935 9.69161 7.24935 9.69694C7.24935 9.70228 7.24935 9.70763 7.24935 9.71301C7.24935 9.71838 7.24935 9.72376 7.24935 9.72917C7.24935 9.73457 7.24935 9.73999 7.24935 9.74543C7.24935 9.75087 7.24935 9.75632 7.24935 9.76179C7.24935 9.76727 7.24935 9.77276 7.24935 9.77826C7.24935 9.78377 7.24935 9.78929 7.24935 9.79483C7.24935 9.80037 7.24935 9.80593 7.24935 9.8115C7.24935 9.81708 7.24935 9.82267 7.24935 9.82828C7.24935 9.83389 7.24935 9.83951 7.24935 9.84515C7.24935 9.8508 7.24935 9.85646 7.24935 9.86214C7.24935 9.86781 7.24935 9.87351 7.24935 9.87922C7.24935 9.88493 7.24935 9.89066 7.24935 9.89641C7.24935 9.90216 7.24935 9.90792 7.24935 9.9137C7.24935 9.91949 7.24935 9.92529 7.24935 9.9311C7.24935 9.93692 7.24935 9.94275 7.24935 9.94861C7.24935 9.95446 7.24935 9.96033 7.24935 9.96622C7.24935 9.9721 7.24935 9.97801 7.24935 9.98393C7.24935 9.98985 7.24935 9.99579 7.24935 10.0018C7.24935 10.0077 7.24935 10.0137 7.24935 10.0197C7.24935 10.0257 7.24935 10.0317 7.24935 10.0377C7.24935 10.0437 7.24935 10.0498 7.24935 10.0559C7.24935 10.0619 7.24935 10.068 7.24935 10.0741C7.24935 10.0802 7.24935 10.0863 7.24935 10.0925C7.24935 10.0986 7.24935 10.1048 7.24935 10.1109C7.24935 10.1171 7.24935 10.1233 7.24935 10.1295C7.24935 10.1357 7.24935 10.1419 7.24935 10.1482C7.24935 10.1544 7.24935 10.1607 7.24935 10.167C7.24935 10.1732 7.24935 10.1795 7.24935 10.1859C7.24935 10.1922 7.24935 10.1985 7.24935 10.2049C7.24935 10.2112 7.24935 10.2176 7.24935 10.224C7.24935 10.2304 7.24935 10.2368 7.24935 10.2432C7.24935 10.2497 7.24935 10.2561 7.24935 10.2626C7.24935 10.269 7.24935 10.2755 7.24935 10.282C7.24935 10.2885 7.24935 10.295 7.24935 10.3016C7.24935 10.3081 7.24935 10.3147 7.24935 10.3212C7.24935 10.3278 7.24935 10.3344 7.24935 10.341C7.24935 10.3476 7.24935 10.3543 7.24935 10.3609C7.24935 10.3676 7.24935 10.3742 7.24935 10.3809C7.24935 10.3876 7.24935 10.3943 7.24935 10.4011C7.24935 10.4078 7.24935 10.4145 7.24935 10.4213C7.24935 10.4281 7.24935 10.4348 7.24935 10.4416C7.24935 10.4484 7.24935 10.4553 7.24935 10.4621C7.24935 10.4689 7.24935 10.4758 7.24935 10.4827C7.24935 10.4896 7.24935 10.4965 7.24935 10.5034C7.24935 10.5103 7.24935 10.5172 7.24935 10.5242C7.24935 10.5311 7.24935 10.5381 7.24935 10.5451C7.24935 10.5521 7.24935 10.5591 7.24935 10.5661C7.24935 10.5732 7.24935 10.5802 7.24935 10.5873C7.24935 10.5944 7.24935 10.6014 7.24935 10.6085C7.24935 10.6157 7.24935 10.6228 7.24935 10.6299C7.24935 10.6371 7.24935 10.6442 7.24935 10.6514C7.24935 10.6586 7.24935 10.6658 7.24935 10.673C7.24935 10.6803 7.24935 10.6875 7.24935 10.6948C7.24935 10.702 7.24935 10.7093 7.24935 10.7166C7.24935 10.7239 7.24935 10.7313 7.24935 10.7386C7.24935 10.7459 7.24935 10.7533 7.24935 10.7607C7.24935 10.7681 7.24935 10.7755 7.24935 10.7829C7.24935 10.7903 7.24935 10.7978 7.24935 10.8052C7.24935 10.8127 7.24935 10.8202 7.24935 10.8277C7.24935 10.8352 7.24935 10.8427 7.24935 10.8502C7.24935 10.8578 7.24935 10.8653 7.24935 10.8729C7.24935 10.8805 7.24935 10.8881 7.24935 10.8957C7.24935 10.9033 7.24935 10.911 7.24935 10.9186C7.24935 10.9263 7.24935 10.934 7.24935 10.9417C7.24935 10.9494 7.24935 10.9571 7.24935 10.9648C7.24935 10.9726 7.24935 10.9803 7.24935 10.9881C7.24935 10.9959 7.24935 11.0037 7.24935 11.0115C7.24935 11.0193 7.24935 11.0272 7.24935 11.0351C7.24935 11.0429 7.24935 11.0508 7.24935 11.0587C7.24935 11.0666 7.24935 11.0745 7.24935 11.0825C7.24935 11.0904 7.24935 11.0984 7.24935 11.1064C7.24935 11.1144 7.24935 11.1224 7.24935 11.1304C7.24935 11.1384 7.24935 11.1465 7.24935 11.1545C7.24935 11.1626 7.24935 11.1707 7.24935 11.1788C7.24935 11.1869 7.24935 11.195 7.24935 11.2032C7.24935 11.2113 7.24935 11.2195 7.24935 11.2277C7.24935 11.2359 7.24935 11.2441 7.24935 11.2524C7.24935 11.2606 7.24935 11.2688 7.24935 11.2771C7.24935 11.2854 7.24935 11.2937 7.24935 11.302C7.24935 11.3103 7.24935 11.3187 7.24935 11.327C7.24935 11.3354 7.24935 11.3438 7.24935 11.3522C7.24935 11.3606 7.24935 11.369 7.24935 11.3774C7.24935 11.3859 7.24935 11.3943 7.24935 11.4028C7.24935 11.4113 7.24935 11.4198 7.24935 11.4284C7.24935 11.4369 7.24935 11.4454 7.24935 11.454C7.24935 11.4626 7.24935 11.4712 7.24935 11.4798C7.24935 11.4884 7.24935 11.497 7.24935 11.5057C7.24935 11.5143 7.24935 11.523 7.24935 11.5317C7.24935 11.5404 7.24935 11.5491 7.24935 11.5579C7.24935 11.5666 7.24935 11.5754 7.24935 11.5842C7.24935 11.593 7.24935 11.6018 7.24935 11.6106C7.24935 11.6194 7.24935 11.6283 7.24935 11.6371C7.24935 11.646 7.24935 11.6549 7.24935 11.6638C7.24935 11.6727 7.24935 11.6817 7.24935 11.6906C7.24935 11.6996 7.24935 11.7086 7.24935 11.7176C7.24935 11.7266 7.24935 11.7356 7.24935 11.7446C7.24935 11.7537 7.24935 11.7628 7.24935 11.7718C7.24935 11.7809 7.24935 11.79 7.24935 11.7992C7.24935 11.8083 7.24935 11.8175 7.24935 11.8266C7.24935 11.8358 7.24935 11.845 7.24935 11.8542C7.24935 11.8635 7.24935 11.8727 7.24935 11.882C7.24935 11.8912 7.24935 11.9005 7.24935 11.9098C7.24935 11.9191 7.24935 11.9285 7.24935 11.9378C7.24935 11.9472 7.24935 11.9566 7.24935 11.966C7.24935 11.9753 7.24935 11.9848 7.24935 11.9942C7.24935 12.0037 7.24935 12.0131 7.24935 12.0226C7.24935 12.0321 7.24935 12.0416 7.24935 12.0511C7.24935 12.0607 7.24935 12.0702 7.24935 12.0798C7.24935 12.0894 7.24935 12.099 7.24935 12.1086C7.24935 12.1182 7.24935 12.1279 7.24935 12.1375C7.24935 12.1472 7.24935 12.1569 7.24935 12.1666C7.24935 12.1763 7.24935 12.1861 7.24935 12.1958C7.24935 12.2056 7.24935 12.2154 7.24935 12.2252C7.24935 12.235 7.24935 12.2448 7.24935 12.2546C7.24935 12.2645 7.24935 12.2744 7.24935 12.2843C7.24935 12.2941 7.24935 12.3041 7.24935 12.314C7.24935 12.3239 7.24935 12.3339 7.24935 12.3439C7.24935 12.3539 7.24935 12.3639 7.24935 12.3739C7.24935 12.384 7.24935 12.394 7.24935 12.4041C7.24935 12.4142 7.24935 12.4243 7.24935 12.4344C7.24935 12.4445 7.24935 12.4547 7.24935 12.4648C7.24935 12.475 7.24935 12.4852 7.24935 12.4954C7.24935 12.5056 7.24935 12.5159 7.24935 12.5261C7.24935 12.5364 7.24935 12.5467 7.24935 12.557C7.24935 12.5673 7.24935 12.5776 7.24935 12.588C7.24935 12.5984 7.24935 12.6087 7.24935 12.6191C7.24935 12.6295 7.24935 12.64 7.24935 12.6504C7.24935 12.6609 7.24935 12.6713 7.24935 12.6818C7.24935 12.6923 7.24935 12.7029 7.24935 12.7134C7.24935 12.724 7.24935 12.7345 7.24935 12.7451C7.24935 12.7557 7.24935 12.7663 7.24935 12.777C7.24935 12.7876 7.24935 12.7983 7.24935 12.809C7.24935 12.8196 7.24935 12.8304 7.24935 12.8411C7.24935 12.8518 7.24935 12.8626 7.24935 12.8734C7.24935 12.8841 7.24935 12.8949 7.24935 12.9058C7.24935 12.9166 7.24935 12.9275 7.24935 12.9383C7.24935 12.9492 7.24935 12.9601 7.24935 12.971C7.24935 12.982 7.24935 12.9929 7.24935 13.0039C7.24935 13.0149 7.24935 13.0259 7.24935 13.0369C7.24935 13.0479 7.24935 13.059 7.24935 13.07C7.24935 13.0811 7.24935 13.0922 7.24935 13.1033C7.24935 13.1144 7.24935 13.1256 7.24935 13.1367C7.24935 13.1479 7.24935 13.1591 7.24935 13.1703C7.24935 13.1815 7.24935 13.1928 7.24935 13.204C7.24935 13.2153 7.24935 13.2266 7.24935 13.2379C7.24935 13.2492 7.24935 13.2606 7.24935 13.2719C7.24935 13.2833 7.24935 13.2947 7.24935 13.3061C7.24935 13.3175 7.24935 13.3289 7.24935 13.3404C7.24935 13.3518 7.24935 13.3633 7.24935 13.3748C7.24935 13.3863 7.24935 13.3979 7.24935 13.4094C7.24935 13.421 7.24935 13.4326 7.24935 13.4442C7.24935 13.4558 7.24935 13.4674 7.24935 13.4791C7.24935 13.4907 7.24935 13.5024 7.24935 13.5141C7.24935 13.5258 7.24935 13.5376 7.24935 13.5493C7.24935 13.5611 7.24935 13.5729 7.24935 13.5847C7.24935 13.5965 7.24935 13.6083 7.24935 13.6202C7.24935 13.632 7.24935 13.6439 7.24935 13.6558C7.24935 13.6677 7.24935 13.6797 7.24935 13.6916C7.24935 13.7036 7.24935 13.7156 7.24935 13.7276C7.24935 13.7396 7.24935 13.7516 7.24935 13.7637C7.24935 13.7757 7.24935 13.7878 7.24935 13.7999C7.24935 13.812 7.24935 13.8242 7.24935 13.8363C7.24935 13.8485 7.24935 13.8607 7.24935 13.8729C7.24935 13.8851 7.24935 13.8973 7.24935 13.9096C7.24935 13.9218 7.24935 13.9341 7.24935 13.9464C7.24935 13.9588 7.24935 13.9711 7.24935 13.9835C7.24935 13.9958 7.24935 14.0082 7.24935 14.0206C7.24935 14.033 7.24935 14.0455 7.24935 14.0579C7.24935 14.0704 7.24935 14.0829 7.24935 14.0954C7.24935 14.1079 7.24935 14.1205 7.24935 14.133C7.24935 14.1456 7.24935 14.1582 7.24935 14.1708C7.24935 14.1834 7.24935 14.1961 7.24935 14.2088C7.24935 14.2214 7.24935 14.2341 7.24935 14.2468C7.24935 14.2596 7.24935 14.2723 7.24935 14.2851C7.24935 14.2979 7.24935 14.3107 7.24935 14.3235C7.24935 14.3363 7.24935 14.3492 7.24935 14.3621C7.24935 14.3749 7.24935 14.3878 7.24935 14.4008C7.24935 14.4137 7.24935 14.4267 7.24935 14.4396C7.24935 14.4526 7.24935 14.4656 7.24935 14.4787C7.24935 14.4917 7.24935 14.5048 7.24935 14.5179C7.24935 14.5309 7.24935 14.5441 7.24935 14.5572C7.24935 14.5703 7.24935 14.5835 7.24935 14.5967C7.24935 14.6099 7.24935 14.6231 7.24935 14.6364C7.24935 14.6496 7.24935 14.6629 7.24935 14.6762C7.24935 14.6895 7.24935 14.7028 7.24935 14.7162C7.24935 14.7295 7.24935 14.7429 7.24935 14.7563C7.24935 14.7697 7.24935 14.7831 7.24935 14.7966C7.24935 14.8101 7.24935 14.8235 7.24935 14.8371C7.24935 14.8506 7.24935 14.8641 7.24935 14.8777C7.24935 14.8912 7.24935 14.9048 7.24935 14.9184C7.24935 14.9321 7.24935 14.9457 7.24935 14.9594C7.24935 14.9731 7.24935 14.9868 7.24935 15.0005C7.24935 15.0142 7.24935 15.028 7.24935 15.0417C7.24935 15.0555 7.24935 15.0693 7.24935 15.0832H8.74935C8.74935 15.0693 8.74935 15.0555 8.74935 15.0417C8.74935 15.028 8.74935 15.0142 8.74935 15.0005C8.74935 14.9868 8.74935 14.9731 8.74935 14.9594C8.74935 14.9457 8.74935 14.9321 8.74935 14.9184C8.74935 14.9048 8.74935 14.8912 8.74935 14.8777C8.74935 14.8641 8.74935 14.8506 8.74935 14.8371C8.74935 14.8235 8.74935 14.8101 8.74935 14.7966C8.74935 14.7831 8.74935 14.7697 8.74935 14.7563C8.74935 14.7429 8.74935 14.7295 8.74935 14.7162C8.74935 14.7028 8.74935 14.6895 8.74935 14.6762C8.74935 14.6629 8.74935 14.6496 8.74935 14.6364C8.74935 14.6231 8.74935 14.6099 8.74935 14.5967C8.74935 14.5835 8.74935 14.5703 8.74935 14.5572C8.74935 14.5441 8.74935 14.5309 8.74935 14.5179C8.74935 14.5048 8.74935 14.4917 8.74935 14.4787C8.74935 14.4656 8.74935 14.4526 8.74935 14.4396C8.74935 14.4267 8.74935 14.4137 8.74935 14.4008C8.74935 14.3878 8.74935 14.3749 8.74935 14.3621C8.74935 14.3492 8.74935 14.3363 8.74935 14.3235C8.74935 14.3107 8.74935 14.2979 8.74935 14.2851C8.74935 14.2723 8.74935 14.2596 8.74935 14.2468C8.74935 14.2341 8.74935 14.2214 8.74935 14.2088C8.74935 14.1961 8.74935 14.1834 8.74935 14.1708C8.74935 14.1582 8.74935 14.1456 8.74935 14.133C8.74935 14.1205 8.74935 14.1079 8.74935 14.0954C8.74935 14.0829 8.74935 14.0704 8.74935 14.0579C8.74935 14.0455 8.74935 14.033 8.74935 14.0206C8.74935 14.0082 8.74935 13.9958 8.74935 13.9835C8.74935 13.9711 8.74935 13.9588 8.74935 13.9464C8.74935 13.9341 8.74935 13.9218 8.74935 13.9096C8.74935 13.8973 8.74935 13.8851 8.74935 13.8729C8.74935 13.8607 8.74935 13.8485 8.74935 13.8363C8.74935 13.8242 8.74935 13.812 8.74935 13.7999C8.74935 13.7878 8.74935 13.7757 8.74935 13.7637C8.74935 13.7516 8.74935 13.7396 8.74935 13.7276C8.74935 13.7156 8.74935 13.7036 8.74935 13.6916C8.74935 13.6797 8.74935 13.6677 8.74935 13.6558C8.74935 13.6439 8.74935 13.632 8.74935 13.6202C8.74935 13.6083 8.74935 13.5965 8.74935 13.5847C8.74935 13.5729 8.74935 13.5611 8.74935 13.5493C8.74935 13.5376 8.74935 13.5258 8.74935 13.5141C8.74935 13.5024 8.74935 13.4907 8.74935 13.4791C8.74935 13.4674 8.74935 13.4558 8.74935 13.4442C8.74935 13.4326 8.74935 13.421 8.74935 13.4094C8.74935 13.3979 8.74935 13.3863 8.74935 13.3748C8.74935 13.3633 8.74935 13.3518 8.74935 13.3404C8.74935 13.3289 8.74935 13.3175 8.74935 13.3061C8.74935 13.2947 8.74935 13.2833 8.74935 13.2719C8.74935 13.2606 8.74935 13.2492 8.74935 13.2379C8.74935 13.2266 8.74935 13.2153 8.74935 13.204C8.74935 13.1928 8.74935 13.1815 8.74935 13.1703C8.74935 13.1591 8.74935 13.1479 8.74935 13.1367C8.74935 13.1256 8.74935 13.1144 8.74935 13.1033C8.74935 13.0922 8.74935 13.0811 8.74935 13.07C8.74935 13.059 8.74935 13.0479 8.74935 13.0369C8.74935 13.0259 8.74935 13.0149 8.74935 13.0039C8.74935 12.9929 8.74935 12.982 8.74935 12.971C8.74935 12.9601 8.74935 12.9492 8.74935 12.9383C8.74935 12.9275 8.74935 12.9166 8.74935 12.9058C8.74935 12.8949 8.74935 12.8841 8.74935 12.8734C8.74935 12.8626 8.74935 12.8518 8.74935 12.8411C8.74935 12.8304 8.74935 12.8196 8.74935 12.809C8.74935 12.7983 8.74935 12.7876 8.74935 12.777C8.74935 12.7663 8.74935 12.7557 8.74935 12.7451C8.74935 12.7345 8.74935 12.724 8.74935 12.7134C8.74935 12.7029 8.74935 12.6923 8.74935 12.6818C8.74935 12.6713 8.74935 12.6609 8.74935 12.6504C8.74935 12.64 8.74935 12.6295 8.74935 12.6191C8.74935 12.6087 8.74935 12.5984 8.74935 12.588C8.74935 12.5776 8.74935 12.5673 8.74935 12.557C8.74935 12.5467 8.74935 12.5364 8.74935 12.5261C8.74935 12.5159 8.74935 12.5056 8.74935 12.4954C8.74935 12.4852 8.74935 12.475 8.74935 12.4648C8.74935 12.4547 8.74935 12.4445 8.74935 12.4344C8.74935 12.4243 8.74935 12.4142 8.74935 12.4041C8.74935 12.394 8.74935 12.384 8.74935 12.3739C8.74935 12.3639 8.74935 12.3539 8.74935 12.3439C8.74935 12.3339 8.74935 12.3239 8.74935 12.314C8.74935 12.3041 8.74935 12.2941 8.74935 12.2843C8.74935 12.2744 8.74935 12.2645 8.74935 12.2546C8.74935 12.2448 8.74935 12.235 8.74935 12.2252C8.74935 12.2154 8.74935 12.2056 8.74935 12.1958C8.74935 12.1861 8.74935 12.1763 8.74935 12.1666C8.74935 12.1569 8.74935 12.1472 8.74935 12.1375C8.74935 12.1279 8.74935 12.1182 8.74935 12.1086C8.74935 12.099 8.74935 12.0894 8.74935 12.0798C8.74935 12.0702 8.74935 12.0607 8.74935 12.0511C8.74935 12.0416 8.74935 12.0321 8.74935 12.0226C8.74935 12.0131 8.74935 12.0037 8.74935 11.9942C8.74935 11.9848 8.74935 11.9753 8.74935 11.966C8.74935 11.9566 8.74935 11.9472 8.74935 11.9378C8.74935 11.9285 8.74935 11.9191 8.74935 11.9098C8.74935 11.9005 8.74935 11.8912 8.74935 11.882C8.74935 11.8727 8.74935 11.8635 8.74935 11.8542C8.74935 11.845 8.74935 11.8358 8.74935 11.8266C8.74935 11.8175 8.74935 11.8083 8.74935 11.7992C8.74935 11.79 8.74935 11.7809 8.74935 11.7718C8.74935 11.7628 8.74935 11.7537 8.74935 11.7446C8.74935 11.7356 8.74935 11.7266 8.74935 11.7176C8.74935 11.7086 8.74935 11.6996 8.74935 11.6906C8.74935 11.6817 8.74935 11.6727 8.74935 11.6638C8.74935 11.6549 8.74935 11.646 8.74935 11.6371C8.74935 11.6283 8.74935 11.6194 8.74935 11.6106C8.74935 11.6018 8.74935 11.593 8.74935 11.5842C8.74935 11.5754 8.74935 11.5666 8.74935 11.5579C8.74935 11.5491 8.74935 11.5404 8.74935 11.5317C8.74935 11.523 8.74935 11.5143 8.74935 11.5057C8.74935 11.497 8.74935 11.4884 8.74935 11.4798C8.74935 11.4712 8.74935 11.4626 8.74935 11.454C8.74935 11.4454 8.74935 11.4369 8.74935 11.4284C8.74935 11.4198 8.74935 11.4113 8.74935 11.4028C8.74935 11.3943 8.74935 11.3859 8.74935 11.3774C8.74935 11.369 8.74935 11.3606 8.74935 11.3522C8.74935 11.3438 8.74935 11.3354 8.74935 11.327C8.74935 11.3187 8.74935 11.3103 8.74935 11.302C8.74935 11.2937 8.74935 11.2854 8.74935 11.2771C8.74935 11.2688 8.74935 11.2606 8.74935 11.2524C8.74935 11.2441 8.74935 11.2359 8.74935 11.2277C8.74935 11.2195 8.74935 11.2113 8.74935 11.2032C8.74935 11.195 8.74935 11.1869 8.74935 11.1788C8.74935 11.1707 8.74935 11.1626 8.74935 11.1545C8.74935 11.1465 8.74935 11.1384 8.74935 11.1304C8.74935 11.1224 8.74935 11.1144 8.74935 11.1064C8.74935 11.0984 8.74935 11.0904 8.74935 11.0825C8.74935 11.0745 8.74935 11.0666 8.74935 11.0587C8.74935 11.0508 8.74935 11.0429 8.74935 11.0351C8.74935 11.0272 8.74935 11.0193 8.74935 11.0115C8.74935 11.0037 8.74935 10.9959 8.74935 10.9881C8.74935 10.9803 8.74935 10.9726 8.74935 10.9648C8.74935 10.9571 8.74935 10.9494 8.74935 10.9417C8.74935 10.934 8.74935 10.9263 8.74935 10.9186C8.74935 10.911 8.74935 10.9033 8.74935 10.8957C8.74935 10.8881 8.74935 10.8805 8.74935 10.8729C8.74935 10.8653 8.74935 10.8578 8.74935 10.8502C8.74935 10.8427 8.74935 10.8352 8.74935 10.8277C8.74935 10.8202 8.74935 10.8127 8.74935 10.8052C8.74935 10.7978 8.74935 10.7903 8.74935 10.7829C8.74935 10.7755 8.74935 10.7681 8.74935 10.7607C8.74935 10.7533 8.74935 10.7459 8.74935 10.7386C8.74935 10.7313 8.74935 10.7239 8.74935 10.7166C8.74935 10.7093 8.74935 10.702 8.74935 10.6948C8.74935 10.6875 8.74935 10.6803 8.74935 10.673C8.74935 10.6658 8.74935 10.6586 8.74935 10.6514C8.74935 10.6442 8.74935 10.6371 8.74935 10.6299C8.74935 10.6228 8.74935 10.6157 8.74935 10.6085C8.74935 10.6014 8.74935 10.5944 8.74935 10.5873C8.74935 10.5802 8.74935 10.5732 8.74935 10.5661C8.74935 10.5591 8.74935 10.5521 8.74935 10.5451C8.74935 10.5381 8.74935 10.5311 8.74935 10.5242C8.74935 10.5172 8.74935 10.5103 8.74935 10.5034C8.74935 10.4965 8.74935 10.4896 8.74935 10.4827C8.74935 10.4758 8.74935 10.4689 8.74935 10.4621C8.74935 10.4553 8.74935 10.4484 8.74935 10.4416C8.74935 10.4348 8.74935 10.4281 8.74935 10.4213C8.74935 10.4145 8.74935 10.4078 8.74935 10.4011C8.74935 10.3943 8.74935 10.3876 8.74935 10.3809C8.74935 10.3742 8.74935 10.3676 8.74935 10.3609C8.74935 10.3543 8.74935 10.3476 8.74935 10.341C8.74935 10.3344 8.74935 10.3278 8.74935 10.3212C8.74935 10.3147 8.74935 10.3081 8.74935 10.3016C8.74935 10.295 8.74935 10.2885 8.74935 10.282C8.74935 10.2755 8.74935 10.269 8.74935 10.2626C8.74935 10.2561 8.74935 10.2497 8.74935 10.2432C8.74935 10.2368 8.74935 10.2304 8.74935 10.224C8.74935 10.2176 8.74935 10.2112 8.74935 10.2049C8.74935 10.1985 8.74935 10.1922 8.74935 10.1859C8.74935 10.1795 8.74935 10.1732 8.74935 10.167C8.74935 10.1607 8.74935 10.1544 8.74935 10.1482C8.74935 10.1419 8.74935 10.1357 8.74935 10.1295C8.74935 10.1233 8.74935 10.1171 8.74935 10.1109C8.74935 10.1048 8.74935 10.0986 8.74935 10.0925C8.74935 10.0863 8.74935 10.0802 8.74935 10.0741C8.74935 10.068 8.74935 10.0619 8.74935 10.0559C8.74935 10.0498 8.74935 10.0437 8.74935 10.0377C8.74935 10.0317 8.74935 10.0257 8.74935 10.0197C8.74935 10.0137 8.74935 10.0077 8.74935 10.0018C8.74935 9.99579 8.74935 9.98985 8.74935 9.98393C8.74935 9.97801 8.74935 9.9721 8.74935 9.96622C8.74935 9.96033 8.74935 9.95446 8.74935 9.94861C8.74935 9.94275 8.74935 9.93692 8.74935 9.9311C8.74935 9.92529 8.74935 9.91949 8.74935 9.9137C8.74935 9.90792 8.74935 9.90216 8.74935 9.89641C8.74935 9.89066 8.74935 9.88493 8.74935 9.87922C8.74935 9.87351 8.74935 9.86781 8.74935 9.86214C8.74935 9.85646 8.74935 9.8508 8.74935 9.84515C8.74935 9.83951 8.74935 9.83389 8.74935 9.82828C8.74935 9.82267 8.74935 9.81708 8.74935 9.8115C8.74935 9.80593 8.74935 9.80037 8.74935 9.79483C8.74935 9.78929 8.74935 9.78377 8.74935 9.77826C8.74935 9.77276 8.74935 9.76727 8.74935 9.76179C8.74935 9.75632 8.74935 9.75087 8.74935 9.74543C8.74935 9.73999 8.74935 9.73457 8.74935 9.72917C8.74935 9.72376 8.74935 9.71838 8.74935 9.71301C8.74935 9.70763 8.74935 9.70228 8.74935 9.69694C8.74935 9.69161 8.74935 9.68629 8.74935 9.68098C8.74935 9.67568 8.74935 9.67039 8.74935 9.66512C8.74935 9.65985 8.74935 9.6546 8.74935 9.64936C8.74935 9.64413 8.74935 9.63891 8.74935 9.6337C8.74935 9.6285 8.74935 9.62331 8.74935 9.61814C8.74935 9.61297 8.74935 9.60782 8.74935 9.60268C8.74935 9.59754 8.74935 9.59242 8.74935 9.58732C8.74935 9.58222 8.74935 9.57713 8.74935 9.57206C8.74935 9.56698 8.74935 9.56193 8.74935 9.55689C8.74935 9.55185 8.74935 9.54683 8.74935 9.54182C8.74935 9.53681 8.74935 9.53183 8.74935 9.52685C8.74935 9.52188 8.74935 9.51692 8.74935 9.51198C8.74935 9.50704 8.74935 9.50211 8.74935 9.4972C8.74935 9.49229 8.74935 9.4874 8.74935 9.48252C8.74935 9.47764 8.74935 9.47278 8.74935 9.46794C8.74935 9.46309 8.74935 9.45826 8.74935 9.45345C8.74935 9.44864 8.74935 9.44384 8.74935 9.43906C8.74935 9.43428 8.74935 9.42951 8.74935 9.42476C8.74935 9.42001 8.74935 9.41528 8.74935 9.41056C8.74935 9.40584 8.74935 9.40114 8.74935 9.39645C8.74935 9.39176 8.74935 9.38709 8.74935 9.38244C8.74935 9.37778 8.74935 9.37314 8.74935 9.36852C8.74935 9.3639 8.74935 9.35929 8.74935 9.3547C8.74935 9.3501 8.74935 9.34553 8.74935 9.34096C8.74935 9.3364 8.74935 9.33186 8.74935 9.32732C8.74935 9.32279 8.74935 9.31828 8.74935 9.31378C8.74935 9.30928 8.74935 9.3048 8.74935 9.30033C8.74935 9.29586 8.74935 9.2914 8.74935 9.28697C8.74935 9.28253 8.74935 9.2781 8.74935 9.2737C8.74935 9.26929 8.74935 9.2649 8.74935 9.26052C8.74935 9.25614 8.74935 9.25178 8.74935 9.24743C8.74935 9.24308 8.74935 9.23875 8.74935 9.23444C8.74935 9.23012 8.74935 9.22582 8.74935 9.22153C8.74935 9.21724 8.74935 9.21297 8.74935 9.20872C8.74935 9.20446 8.74935 9.20022 8.74935 9.19599C8.74935 9.19176 8.74935 9.18755 8.74935 9.18336C8.74935 9.17916 8.74935 9.17498 8.74935 9.17081C8.74935 9.16664 8.74935 9.16249 8.74935 9.15835C8.74935 9.15421 8.74935 9.15009 8.74935 9.14598C8.74935 9.14188 8.74935 9.13778 8.74935 9.1337C8.74935 9.12963 8.74935 9.12556 8.74935 9.12151C8.74935 9.11746 8.74935 9.11343 8.74935 9.10941C8.74935 9.10539 8.74935 9.10138 8.74935 9.09739C8.74935 9.0934 8.74935 9.08942 8.74935 9.08546C8.74935 9.0815 8.74935 9.07755 8.74935 9.07362C8.74935 9.06968 8.74935 9.06577 8.74935 9.06186C8.74935 9.05796 8.74935 9.05407 8.74935 9.05019C8.74935 9.04632 8.74935 9.04245 8.74935 9.03861C8.74935 9.03476 8.74935 9.03093 8.74935 9.02711C8.74935 9.02329 8.74935 9.01948 8.74935 9.01569C8.74935 9.0119 8.74935 9.00813 8.74935 9.00436C8.74935 9.0006 8.74935 8.99685 8.74935 8.99312C8.74935 8.98939 8.74935 8.98567 8.74935 8.98196C8.74935 8.97825 8.74935 8.97456 8.74935 8.97088C8.74935 8.9672 8.74935 8.96354 8.74935 8.95989C8.74935 8.95624 8.74935 8.9526 8.74935 8.94898C8.74935 8.94536 8.74935 8.94175 8.74935 8.93815C8.74935 8.93456 8.74935 8.93098 8.74935 8.92741C8.74935 8.92384 8.74935 8.92029 8.74935 8.91675C8.74935 8.91321 8.74935 8.90968 8.74935 8.90617C8.74935 8.90266 8.74935 8.89916 8.74935 8.89567C8.74935 8.89218 8.74935 8.88871 8.74935 8.88525C8.74935 8.88179 8.74935 8.87835 8.74935 8.87492C8.74935 8.87149 8.74935 8.86807 8.74935 8.86466C8.74935 8.86126 8.74935 8.85787 8.74935 8.85449C8.74935 8.85111 8.74935 8.84775 8.74935 8.8444C8.74935 8.84104 8.74935 8.83771 8.74935 8.83438C8.74935 8.83106 8.74935 8.82774 8.74935 8.82445C8.74935 8.82115 8.74935 8.81786 8.74935 8.81459C8.74935 8.81132 8.74935 8.80806 8.74935 8.80481C8.74935 8.80157 8.74935 8.79833 8.74935 8.79511C8.74935 8.79189 8.74935 8.78869 8.74935 8.78549C8.74935 8.7823 8.74935 8.77912 8.74935 8.77595C8.74935 8.77278 8.74935 8.76963 8.74935 8.76649C8.74935 8.76335 8.74935 8.76022 8.74935 8.7571C8.74935 8.75398 8.74935 8.75088 8.74935 8.74779C8.74935 8.7447 8.74935 8.74162 8.74935 8.73856C8.74935 8.73549 8.74935 8.73244 8.74935 8.7294C8.74935 8.72636 8.74935 8.72333 8.74935 8.72032C8.74935 8.7173 8.74935 8.7143 8.74935 8.71131C8.74935 8.70832 8.74935 8.70534 8.74935 8.70238C8.74935 8.69942 8.74935 8.69646 8.74935 8.69352C8.74935 8.69059 8.74935 8.68766 8.74935 8.68474C8.74935 8.68183 8.74935 8.67893 8.74935 8.67604C8.74935 8.67315 8.74935 8.67027 8.74935 8.66741C8.74935 8.66454 8.74935 8.66169 8.74935 8.65885C8.74935 8.65601 8.74935 8.65318 8.74935 8.65036C8.74935 8.64755 8.74935 8.64474 8.74935 8.64195C8.74935 8.63916 8.74935 8.63638 8.74935 8.63361C8.74935 8.63084 8.74935 8.62809 8.74935 8.62534C8.74935 8.6226 8.74935 8.61987 8.74935 8.61715C8.74935 8.61443 8.74935 8.61172 8.74935 8.60903C8.74935 8.60633 8.74935 8.60365 8.74935 8.60098C8.74935 8.5983 8.74935 8.59564 8.74935 8.593C8.74935 8.59035 8.74935 8.58771 8.74935 8.58509C8.74935 8.58246 8.74935 8.57985 8.74935 8.57725C8.74935 8.57465 8.74935 8.57206 8.74935 8.56948C8.74935 8.56691 8.74935 8.56434 8.74935 8.56178C8.74935 8.55923 8.74935 8.55669 8.74935 8.55416C8.74935 8.55163 8.74935 8.54911 8.74935 8.5466C8.74935 8.54409 8.74935 8.54159 8.74935 8.53911C8.74935 8.53662 8.74935 8.53415 8.74935 8.53169C8.74935 8.52922 8.74935 8.52677 8.74935 8.52433C8.74935 8.52189 8.74935 8.51947 8.74935 8.51705C8.74935 8.51463 8.74935 8.51223 8.74935 8.50983C8.74935 8.50744 8.74935 8.50506 8.74935 8.50268C8.74935 8.50031 8.74935 8.49795 8.74935 8.4956C8.74935 8.49325 8.74935 8.49091 8.74935 8.48859C8.74935 8.48626 8.74935 8.48394 8.74935 8.48164C8.74935 8.47933 8.74935 8.47704 8.74935 8.47475C8.74935 8.47247 8.74935 8.4702 8.74935 8.46794C8.74935 8.46568 8.74935 8.46343 8.74935 8.46119C8.74935 8.45895 8.74935 8.45672 8.74935 8.4545C8.74935 8.45228 8.74935 8.45007 8.74935 8.44788C8.74935 8.44568 8.74935 8.4435 8.74935 8.44132C8.74935 8.43915 8.74935 8.43698 8.74935 8.43483C8.74935 8.43268 8.74935 8.43053 8.74935 8.4284C8.74935 8.42627 8.74935 8.42415 8.74935 8.42204C8.74935 8.41993 8.74935 8.41783 8.74935 8.41574C8.74935 8.41365 8.74935 8.41157 8.74935 8.4095C8.74935 8.40743 8.74935 8.40537 8.74935 8.40332C8.74935 8.40127 8.74935 8.39924 8.74935 8.39721C8.74935 8.39518 8.74935 8.39316 8.74935 8.39116C8.74935 8.38915 8.74935 8.38715 8.74935 8.38517C8.74935 8.38318 8.74935 8.38121 8.74935 8.37924C8.74935 8.37727 8.74935 8.37532 8.74935 8.37337C8.74935 8.37143 8.74935 8.36949 8.74935 8.36757C8.74935 8.36564 8.74935 8.36373 8.74935 8.36182C8.74935 8.35992 8.74935 8.35802 8.74935 8.35613C8.74935 8.35425 8.74935 8.35237 8.74935 8.35051C8.74935 8.34864 8.74935 8.34679 8.74935 8.34494C8.74935 8.3431 8.74935 8.34126 8.74935 8.33944C8.74935 8.33761 8.74935 8.33579 8.74935 8.33399C8.74935 8.33218 8.74935 8.33039 8.74935 8.3286C8.74935 8.32681 8.74935 8.32504 8.74935 8.32327C8.74935 8.3215 8.74935 8.31974 8.74935 8.31799C8.74935 8.31625 8.74935 8.31451 8.74935 8.31278C8.74935 8.31105 8.74935 8.30933 8.74935 8.30762C8.74935 8.30591 8.74935 8.30421 8.74935 8.30252C8.74935 8.30083 8.74935 8.29915 8.74935 8.29747C8.74935 8.2958 8.74935 8.29414 8.74935 8.29249C8.74935 8.29083 8.74935 8.28919 8.74935 8.28755C8.74935 8.28592 8.74935 8.28429 8.74935 8.28268C8.74935 8.28106 8.74935 8.27945 8.74935 8.27786C8.74935 8.27626 8.74935 8.27467 8.74935 8.27309C8.74935 8.27151 8.74935 8.26994 8.74935 8.26838C8.74935 8.26682 8.74935 8.26527 8.74935 8.26372C8.74935 8.26218 8.74935 8.26065 8.74935 8.25912C8.74935 8.2576 8.74935 8.25608 8.74935 8.25457C8.74935 8.25306 8.74935 8.25157 8.74935 8.25008C8.74935 8.24859 8.74935 8.24711 8.74935 8.24563C8.74935 8.24416 8.74935 8.2427 8.74935 8.24125C8.74935 8.23979 8.74935 8.23835 8.74935 8.23691C8.74935 8.23547 8.74935 8.23404 8.74935 8.23262C8.74935 8.2312 8.74935 8.22979 8.74935 8.22839C8.74935 8.22699 8.74935 8.2256 8.74935 8.22421C8.74935 8.22283 8.74935 8.22145 8.74935 8.22008C8.74935 8.21871 8.74935 8.21735 8.74935 8.216C8.74935 8.21465 8.74935 8.21331 8.74935 8.21198C8.74935 8.21064 8.74935 8.20932 8.74935 8.208C8.74935 8.20668 8.74935 8.20537 8.74935 8.20407C8.74935 8.20277 8.74935 8.20148 8.74935 8.20019C8.74935 8.19891 8.74935 8.19763 8.74935 8.19636C8.74935 8.1951 8.74935 8.19384 8.74935 8.19258C8.74935 8.19133 8.74935 8.19009 8.74935 8.18885C8.74935 8.18762 8.74935 8.18639 8.74935 8.18517C8.74935 8.18395 8.74935 8.18274 8.74935 8.18154C8.74935 8.18034 8.74935 8.17914 8.74935 8.17795C8.74935 8.17676 8.74935 8.17559 8.74935 8.17441C8.74935 8.17324 8.74935 8.17208 8.74935 8.17092C8.74935 8.16977 8.74935 8.16862 8.74935 8.16748C8.74935 8.16634 8.74935 8.16521 8.74935 8.16408C8.74935 8.16295 8.74935 8.16184 8.74935 8.16073C8.74935 8.15962 8.74935 8.15852 8.74935 8.15742C8.74935 8.15633 8.74935 8.15524 8.74935 8.15416C8.74935 8.15308 8.74935 8.15201 8.74935 8.15095C8.74935 8.14988 8.74935 8.14883 8.74935 8.14778C8.74935 8.14673 8.74935 8.14569 8.74935 8.14465C8.74935 8.14362 8.74935 8.14259 8.74935 8.14157C8.74935 8.14055 8.74935 8.13954 8.74935 8.13853C8.74935 8.13753 8.74935 8.13653 8.74935 8.13554C8.74935 8.13455 8.74935 8.13357 8.74935 8.13259C8.74935 8.13161 8.74935 8.13064 8.74935 8.12968C8.74935 8.12872 8.74935 8.12777 8.74935 8.12682C8.74935 8.12587 8.74935 8.12493 8.74935 8.124C8.74935 8.12306 8.74935 8.12214 8.74935 8.12122C8.74935 8.1203 8.74935 8.11939 8.74935 8.11848C8.74935 8.11757 8.74935 8.11668 8.74935 8.11578C8.74935 8.11489 8.74935 8.11401 8.74935 8.11313C8.74935 8.11225 8.74935 8.11138 8.74935 8.11051C8.74935 8.10965 8.74935 8.10879 8.74935 8.10794C8.74935 8.10709 8.74935 8.10624 8.74935 8.10541C8.74935 8.10457 8.74935 8.10374 8.74935 8.10291C8.74935 8.10209 8.74935 8.10127 8.74935 8.10046C8.74935 8.09965 8.74935 8.09884 8.74935 8.09804C8.74935 8.09725 8.74935 8.09645 8.74935 8.09567C8.74935 8.09488 8.74935 8.0941 8.74935 8.09333C8.74935 8.09256 8.74935 8.09179 8.74935 8.09103C8.74935 8.09027 8.74935 8.08952 8.74935 8.08877C8.74935 8.08802 8.74935 8.08728 8.74935 8.08655C8.74935 8.08581 8.74935 8.08508 8.74935 8.08436C8.74935 8.08364 8.74935 8.08292 8.74935 8.08221C8.74935 8.0815 8.74935 8.0808 8.74935 8.0801C8.74935 8.0794 8.74935 8.07871 8.74935 8.07803C8.74935 8.07734 8.74935 8.07666 8.74935 8.07599C8.74935 8.07531 8.74935 8.07464 8.74935 8.07398C8.74935 8.07332 8.74935 8.07266 8.74935 8.07201C8.74935 8.07136 8.74935 8.07072 8.74935 8.07008C8.74935 8.06944 8.74935 8.06881 8.74935 8.06818C8.74935 8.06755 8.74935 8.06693 8.74935 8.06632C8.74935 8.0657 8.74935 8.06509 8.74935 8.06449C8.74935 8.06388 8.74935 8.06329 8.74935 8.06269C8.74935 8.0621 8.74935 8.06151 8.74935 8.06093C8.74935 8.06035 8.74935 8.05977 8.74935 8.0592C8.74935 8.05863 8.74935 8.05807 8.74935 8.05751C8.74935 8.05695 8.74935 8.05639 8.74935 8.05584C8.74935 8.05529 8.74935 8.05475 8.74935 8.05421C8.74935 8.05367 8.74935 8.05314 8.74935 8.05261C8.74935 8.05208 8.74935 8.05156 8.74935 8.05104C8.74935 8.05053 8.74935 8.05002 8.74935 8.04951C8.74935 8.049 8.74935 8.0485 8.74935 8.048C8.74935 8.04751 8.74935 8.04702 8.74935 8.04653C8.74935 8.04604 8.74935 8.04556 8.74935 8.04508C8.74935 8.04461 8.74935 8.04414 8.74935 8.04367C8.74935 8.0432 8.74935 8.04274 8.74935 8.04229C8.74935 8.04183 8.74935 8.04138 8.74935 8.04093C8.74935 8.04049 8.74935 8.04004 8.74935 8.03961C8.74935 8.03917 8.74935 8.03874 8.74935 8.03831C8.74935 8.03788 8.74935 8.03746 8.74935 8.03704C8.74935 8.03662 8.74935 8.03621 8.74935 8.0358C8.74935 8.03539 8.74935 8.03499 8.74935 8.03459C8.74935 8.03419 8.74935 8.0338 8.74935 8.0334C8.74935 8.03301 8.74935 8.03263 8.74935 8.03225C8.74935 8.03187 8.74935 8.03149 8.74935 8.03112C8.74935 8.03074 8.74935 8.03038 8.74935 8.03001C8.74935 8.02965 8.74935 8.02929 8.74935 8.02894C8.74935 8.02858 8.74935 8.02823 8.74935 8.02788C8.74935 8.02754 8.74935 8.0272 8.74935 8.02686C8.74935 8.02652 8.74935 8.02619 8.74935 8.02586C8.74935 8.02553 8.74935 8.0252 8.74935 8.02488C8.74935 8.02456 8.74935 8.02424 8.74935 8.02393C8.74935 8.02362 8.74935 8.02331 8.74935 8.023C8.74935 8.0227 8.74935 8.0224 8.74935 8.0221C8.74935 8.0218 8.74935 8.02151 8.74935 8.02122C8.74935 8.02093 8.74935 8.02065 8.74935 8.02037C8.74935 8.02009 8.74935 8.01981 8.74935 8.01954C8.74935 8.01926 8.74935 8.01899 8.74935 8.01873C8.74935 8.01846 8.74935 8.0182 8.74935 8.01794C8.74935 8.01768 8.74935 8.01743 8.74935 8.01717C8.74935 8.01692 8.74935 8.01667 8.74935 8.01643C8.74935 8.01619 8.74935 8.01595 8.74935 8.01571C8.74935 8.01547 8.74935 8.01524 8.74935 8.01501C8.74935 8.01478 8.74935 8.01455 8.74935 8.01433C8.74935 8.01411 8.74935 8.01389 8.74935 8.01367C8.74935 8.01346 8.74935 8.01324 8.74935 8.01303C8.74935 8.01282 8.74935 8.01262 8.74935 8.01241C8.74935 8.01221 8.74935 8.01201 8.74935 8.01182C8.74935 8.01162 8.74935 8.01143 8.74935 8.01124C8.74935 8.01105 8.74935 8.01086 8.74935 8.01068C8.74935 8.01049 8.74935 8.01031 8.74935 8.01013C8.74935 8.00996 8.74935 8.00978 8.74935 8.00961C8.74935 8.00944 8.74935 8.00927 8.74935 8.00911C8.74935 8.00894 8.74935 8.00878 8.74935 8.00862C8.74935 8.00846 8.74935 8.0083 8.74935 8.00815C8.74935 8.00799 8.74935 8.00784 8.74935 8.00769C8.74935 8.00755 8.74935 8.0074 8.74935 8.00726C8.74935 8.00711 8.74935 8.00697 8.74935 8.00684C8.74935 8.0067 8.74935 8.00657 8.74935 8.00643C8.74935 8.0063 8.74935 8.00617 8.74935 8.00605C8.74935 8.00592 8.74935 8.0058 8.74935 8.00567C8.74935 8.00555 8.74935 8.00543 8.74935 8.00532C8.74935 8.0052 8.74935 8.00509 8.74935 8.00497C8.74935 8.00486 8.74935 8.00475 8.74935 8.00465C8.74935 8.00454 8.74935 8.00443 8.74935 8.00433C8.74935 8.00423 8.74935 8.00413 8.74935 8.00403C8.74935 8.00394 8.74935 8.00384 8.74935 8.00375C8.74935 8.00365 8.74935 8.00356 8.74935 8.00347C8.74935 8.00339 8.74935 8.0033 8.74935 8.00321C8.74935 8.00313 8.74935 8.00305 8.74935 8.00297C8.74935 8.00289 8.74935 8.00281 8.74935 8.00273C8.74935 8.00266 8.74935 8.00258 8.74935 8.00251C8.74935 8.00244 8.74935 8.00237 8.74935 8.0023C8.74935 8.00223 8.74935 8.00216 8.74935 8.0021C8.74935 8.00204 8.74935 8.00197 8.74935 8.00191C8.74935 8.00185 8.74935 8.00179 8.74935 8.00173C8.74935 8.00168 8.74935 8.00162 8.74935 8.00157C8.74935 8.00151 8.74935 8.00146 8.74935 8.00141C8.74935 8.00136 8.74935 8.00131 8.74935 8.00126C8.74935 8.00121 8.74935 8.00117 8.74935 8.00112C8.74935 8.00108 8.74935 8.00104 8.74935 8.001C8.74935 8.00095 8.74935 8.00091 8.74935 8.00088C8.74935 8.00084 8.74935 8.0008 8.74935 8.00076C8.74935 8.00073 8.74935 8.00069 8.74935 8.00066C8.74935 8.00063 8.74935 8.0006 8.74935 8.00057C8.74935 8.00054 8.74935 8.00051 8.74935 8.00048C8.74935 8.00045 8.74935 8.00042 8.74935 8.0004C8.74935 8.00037 8.74935 8.00035 8.74935 8.00033C8.74935 8.0003 8.74935 8.00028 8.74935 8.00026C8.74935 8.00024 8.74935 8.00022 8.74935 8.0002C8.74935 8.00018 8.74935 8.00016 8.74935 8.00014C8.74935 8.00013 8.74935 8.00011 8.74935 8.0001C8.74935 8.00008 8.74935 8.00007 8.74935 8.00005C8.74935 8.00004 8.74935 8.00003 8.74935 8.00002C8.74935 8 8.74935 7.99999 8.74935 7.99998C8.74935 7.99997 8.74935 7.99996 8.74935 7.99995C8.74935 7.99994 8.74935 7.99994 8.74935 7.99993C8.74935 7.99992 8.74935 7.99991 8.74935 7.99991C8.74935 7.9999 8.74935 7.9999 8.74935 7.99989C8.74935 7.99988 8.74935 7.99988 8.74935 7.99988C8.74935 7.99987 8.74935 7.99987 8.74935 7.99986C8.74935 7.99986 8.74935 7.99986 8.74935 7.99986C8.74935 7.99985 8.74935 7.99985 8.74935 7.99985C8.74935 7.99985 8.74935 7.99985 8.74935 7.99984C8.74935 7.99984 8.74935 7.99984 8.74935 7.99984C8.74935 7.99984 8.74935 7.99984 8.74935 7.99984C8.74935 7.99984 8.74935 7.99984 8.74935 7.99984V7.99984H7.99935ZM8.74935 7.99984V0.916504H7.24935V7.99984H8.74935Z" fill="#272D2F" fill-opacity="0.1"/>
</svg>
