<svg width="8" height="10" viewBox="0 0 8 10" fill="none" xmlns="http://www.w3.org/2000/svg">
<path d="M2.64616 8.75H6.91602M3.90952 2.21321C3.90952 2.21321 3.90952 2.89431 4.59061 3.5754C5.27171 4.2565 5.9528 4.2565 5.9528 4.2565M1.21586 7.49503L2.64616 7.2907C2.85247 7.26123 3.04366 7.16563 3.19103 7.01826L6.6339 3.5754C7.01005 3.19924 7.01005 2.58937 6.6339 2.21321L5.9528 1.53212C5.57665 1.15596 4.96677 1.15596 4.59062 1.53212L1.14775 4.97498C1.00038 5.12235 0.904786 5.31354 0.875313 5.51986L0.670985 6.95015C0.625578 7.268 0.898016 7.54044 1.21586 7.49503Z" stroke="#272D2F" stroke-width="0.8" stroke-linecap="round"/>
</svg>
