<svg width="32" height="32" viewBox="0 0 32 32" fill="none" xmlns="http://www.w3.org/2000/svg">
<g clip-path="url(#clip0_1580_296)">
<path d="M26.4833 25.808C23.8657 28.608 20.1358 30.3577 15.9988 30.3577C11.8619 30.3577 8.13195 28.608 5.51435 25.808C5.90593 24.6783 6.54936 23.6525 7.39595 22.8083C8.83147 21.376 10.8113 20.4883 12.9991 20.4883H18.9985C22.4612 20.4883 25.4075 22.7101 26.4833 25.808Z" fill="url(#paint0_linear_1580_296)"/>
<path d="M15.9988 17.8761C19.3383 17.8761 22.0455 15.1689 22.0455 11.8294C22.0455 8.4899 19.3383 5.78269 15.9988 5.78269C12.6593 5.78269 9.95211 8.4899 9.95211 11.8294C9.95211 15.1689 12.6593 17.8761 15.9988 17.8761Z" fill="url(#paint1_linear_1580_296)"/>
<path d="M15.9988 31.2003C11.8068 31.2003 7.76075 29.4448 4.89899 26.3833C2.25483 23.56 0.798828 19.8723 0.798828 16.0003C0.798828 7.61917 7.61771 0.800293 15.9988 0.800293C24.3799 0.800293 31.1988 7.61917 31.1988 16.0003C31.1988 19.8726 29.7425 23.56 27.098 26.3837C24.2372 29.4448 20.1911 31.2003 15.9988 31.2003ZM15.9988 2.48541C8.54667 2.48541 2.48395 8.54813 2.48395 16.0003C2.48395 19.4435 3.77867 22.7216 6.12939 25.232C8.67403 27.9542 12.2715 29.5152 15.9988 29.5152C19.7262 29.5152 23.3233 27.9542 25.8676 25.2323C28.219 22.7216 29.5137 19.4435 29.5137 16.0003C29.5137 8.54813 23.451 2.48541 15.9988 2.48541Z" fill="url(#paint2_linear_1580_296)"/>
</g>
<defs>
<linearGradient id="paint0_linear_1580_296" x1="15.9988" y1="0.800293" x2="15.9988" y2="31.2003" gradientUnits="userSpaceOnUse">
<stop stop-color="#FC8019"/>
<stop offset="1" stop-color="#FF952A"/>
<stop offset="1" stop-color="#FC8019" stop-opacity="0"/>
</linearGradient>
<linearGradient id="paint1_linear_1580_296" x1="15.9988" y1="0.800293" x2="15.9988" y2="31.2003" gradientUnits="userSpaceOnUse">
<stop stop-color="#FC8019"/>
<stop offset="1" stop-color="#FF952A"/>
<stop offset="1" stop-color="#FC8019" stop-opacity="0"/>
</linearGradient>
<linearGradient id="paint2_linear_1580_296" x1="15.9988" y1="0.800293" x2="15.9988" y2="31.2003" gradientUnits="userSpaceOnUse">
<stop stop-color="#FC8019"/>
<stop offset="1" stop-color="#FF952A"/>
<stop offset="1" stop-color="#FC8019" stop-opacity="0"/>
</linearGradient>
<clipPath id="clip0_1580_296">
<rect width="32" height="32" fill="white"/>
</clipPath>
</defs>
</svg>
