<svg width="18" height="17" viewBox="0 0 18 17" fill="none" xmlns="http://www.w3.org/2000/svg">
<path d="M16.0335 6.7636H16.0331H15.9731H15.85L15.8752 6.8841C16.1022 7.96733 16.0792 9.08803 15.808 10.161C15.5517 11.1755 15.08 12.122 14.4257 12.9367C13.7637 10.9626 12.505 9.41055 10.9491 8.65338C12.7583 6.81423 11.4236 3.54265 8.76937 3.5611C6.11867 3.54265 4.78424 6.81432 6.59336 8.65338C5.03796 9.41035 3.77946 10.9618 3.11735 12.9351C-1.68965 6.87365 5.01848 -1.54815 12.0552 1.91333L12.1664 1.968L12.1964 1.84783C12.2561 1.6089 12.3392 1.37647 12.4447 1.15393L12.4877 1.0632L12.3968 1.02057C3.99 -2.92287 -3.46221 7.54332 2.9675 14.1894L2.96877 14.1907C8.67527 19.8782 18.3509 14.737 16.8288 6.7848L16.8103 6.68788L16.7131 6.70514C16.4888 6.745 16.2614 6.76457 16.0335 6.7636ZM3.75562 13.7674L3.85235 13.7927C3.8574 13.7734 3.8625 13.7542 3.86767 13.735C3.85308 13.7216 3.83854 13.708 3.82405 13.6944L3.75562 13.7674ZM13.6748 13.735C13.68 13.7542 13.6851 13.7734 13.6901 13.7927L13.7869 13.7674L13.7185 13.6944C13.704 13.708 13.6894 13.7215 13.6748 13.735ZM10.0057 9.29111C10.0183 9.29524 10.0308 9.29944 10.0434 9.3037C10.0557 9.29793 10.0681 9.29208 10.0804 9.28614L10.0369 9.1961L10.0057 9.29111ZM7.46212 9.28614C7.47441 9.29208 7.48674 9.29793 7.4991 9.3037C7.51165 9.29944 7.52422 9.29524 7.53681 9.29111L7.50562 9.1961L7.46212 9.28614ZM10.8331 6.5748C10.7406 9.30279 6.80189 9.30279 6.70942 6.57479C6.79825 3.84891 10.7441 3.84874 10.8331 6.5748Z" fill="#FB7E18" stroke="#FB7E18" stroke-width="0.2"/>
</svg>
