<svg width="14" height="14" viewBox="0 0 14 14" fill="none" xmlns="http://www.w3.org/2000/svg">
<g clip-path="url(#clip0_1729_1106)">
<mask id="path-1-inside-1_1729_1106" fill="white">
<path d="M6.99998 0C3.134 0 0 3.134 0 6.99998C0 10.866 3.134 14 6.99998 14C10.866 14 14 10.866 14 6.99998C13.9959 3.13573 10.8643 0.00413086 6.99998 0ZM6.99998 13C3.68628 13 0.999989 10.3137 0.999989 6.99998C0.999989 3.68628 3.68628 0.999989 6.99998 0.999989C10.3137 0.999989 13 3.68628 13 6.99998C12.9964 10.3122 10.3122 12.9964 6.99998 13Z"/>
</mask>
<path d="M6.99998 0C3.134 0 0 3.134 0 6.99998C0 10.866 3.134 14 6.99998 14C10.866 14 14 10.866 14 6.99998C13.9959 3.13573 10.8643 0.00413086 6.99998 0ZM6.99998 13C3.68628 13 0.999989 10.3137 0.999989 6.99998C0.999989 3.68628 3.68628 0.999989 6.99998 0.999989C10.3137 0.999989 13 3.68628 13 6.99998C12.9964 10.3122 10.3122 12.9964 6.99998 13Z" fill="#FB7E18"/>
<path d="M6.99998 0L7.00113 -1.07143H6.99998V0ZM14 6.99998H15.0714L15.0714 6.99885L14 6.99998ZM6.99998 13V14.0714L7.00114 14.0714L6.99998 13ZM13 6.99998L14.0714 7.00114V6.99998H13ZM6.99998 -1.07143C2.54227 -1.07143 -1.07143 2.54227 -1.07143 6.99998H1.07143C1.07143 3.72573 3.72573 1.07143 6.99998 1.07143V-1.07143ZM-1.07143 6.99998C-1.07143 11.4577 2.54227 15.0714 6.99998 15.0714V12.9285C3.72573 12.9285 1.07143 10.2742 1.07143 6.99998H-1.07143ZM6.99998 15.0714C11.4577 15.0714 15.0714 11.4577 15.0714 6.99998H12.9285C12.9285 10.2742 10.2742 12.9285 6.99998 12.9285V15.0714ZM15.0714 6.99885C15.0667 2.54374 11.4562 -1.06666 7.00113 -1.07143L6.99884 1.07143C10.2723 1.07493 12.9251 3.72772 12.9285 7.00112L15.0714 6.99885ZM6.99998 11.9286C4.27801 11.9286 2.07142 9.72196 2.07142 6.99998H-0.0714386C-0.0714386 10.9054 3.09454 14.0714 6.99998 14.0714V11.9286ZM2.07142 6.99998C2.07142 4.27801 4.27801 2.07142 6.99998 2.07142V-0.0714386C3.09454 -0.0714386 -0.0714386 3.09454 -0.0714386 6.99998H2.07142ZM6.99998 2.07142C9.72196 2.07142 11.9286 4.27801 11.9286 6.99998H14.0714C14.0714 3.09454 10.9054 -0.0714386 6.99998 -0.0714386V2.07142ZM11.9286 6.99883C11.9256 9.72024 9.72024 11.9256 6.99883 11.9286L7.00114 14.0714C10.9042 14.0672 14.0672 10.9042 14.0714 7.00114L11.9286 6.99883Z" fill="#FB7E18" mask="url(#path-1-inside-1_1729_1106)"/>
<path d="M10.4643 6.99999C10.4643 8.91325 8.91325 10.4643 6.99999 10.4643C5.08672 10.4643 3.53571 8.91325 3.53571 6.99999C3.53571 5.08672 5.08672 3.53571 6.99999 3.53571C8.91325 3.53571 10.4643 5.08672 10.4643 6.99999Z" fill="#FB7E18" stroke="#FB7E18" stroke-width="1.07143"/>
</g>
<defs>
<clipPath id="clip0_1729_1106">
<rect width="14" height="14" fill="white"/>
</clipPath>
</defs>
</svg>
