<svg width="16" height="16" viewBox="0 0 16 16" fill="none" xmlns="http://www.w3.org/2000/svg">
<path d="M6.50729 9.57787C6.12396 9.1952 5.89062 8.6752 5.89062 8.09187C5.89062 6.9232 6.83196 5.9812 7.99996 5.9812C8.57796 5.9812 9.10996 6.2152 9.48662 6.59787" stroke="#272D2F" stroke-width="1.5" stroke-linecap="round" stroke-linejoin="round"/>
<path d="M10.0702 8.46606C9.91557 9.32606 9.23824 10.0047 8.37891 10.1607" stroke="#272D2F" stroke-width="1.5" stroke-linecap="round" stroke-linejoin="round"/>
<path d="M4.43732 11.6482C3.37932 10.8176 2.48332 9.60423 1.83398 8.09157C2.48998 6.57223 3.39198 5.35223 4.45665 4.5149C5.51465 3.67757 6.73532 3.2229 8.00065 3.2229C9.27332 3.2229 10.4933 3.68423 11.558 4.52757" stroke="#272D2F" stroke-width="1.5" stroke-linecap="round" stroke-linejoin="round"/>
<path d="M12.9658 5.9939C13.4245 6.60323 13.8278 7.30656 14.1672 8.09123C12.8558 11.1292 10.5385 12.9592 8.0005 12.9592C7.42517 12.9592 6.85783 12.8659 6.3125 12.6839" stroke="#272D2F" stroke-width="1.5" stroke-linecap="round" stroke-linejoin="round"/>
</svg>
