<svg width="34" height="34" viewBox="0 0 34 34" fill="none" xmlns="http://www.w3.org/2000/svg">
<rect x="0.5" y="0.5" width="33" height="33" rx="9.5" stroke="#FB7E18"/>
<rect x="2" y="2" width="30" height="30" rx="8" fill="#FB7E18"/>
<path d="M20.0137 14.2891C20.0137 14.7402 19.9225 15.1322 19.7402 15.4648C19.5579 15.7975 19.3073 16.071 18.9883 16.2852C18.6738 16.4948 18.3092 16.6452 17.8945 16.7363V16.7842C18.6921 16.8844 19.2936 17.1351 19.6992 17.5361C20.1094 17.9372 20.3145 18.4681 20.3145 19.1289C20.3145 19.7077 20.1755 20.2249 19.8975 20.6807C19.6195 21.1318 19.1934 21.4873 18.6191 21.7471C18.0449 22.0068 17.3066 22.1367 16.4043 22.1367C15.862 22.1367 15.3584 22.0934 14.8936 22.0068C14.4333 21.9202 13.9958 21.7812 13.5811 21.5898V20.1611C14.0049 20.3708 14.4561 20.5326 14.9346 20.6465C15.4131 20.7604 15.8665 20.8174 16.2949 20.8174C17.1289 20.8174 17.7236 20.6624 18.0791 20.3525C18.4346 20.0381 18.6123 19.6051 18.6123 19.0537C18.6123 18.6982 18.5189 18.4066 18.332 18.1787C18.1497 17.9508 17.8649 17.7799 17.4775 17.666C17.0947 17.5521 16.6003 17.4951 15.9941 17.4951H15.1123V16.2031H16.001C16.5798 16.2031 17.0446 16.1348 17.3955 15.998C17.7464 15.8568 17.9993 15.6631 18.1543 15.417C18.3138 15.1709 18.3936 14.8838 18.3936 14.5557C18.3936 14.1273 18.2546 13.7946 17.9766 13.5576C17.6986 13.3161 17.2861 13.1953 16.7393 13.1953C16.402 13.1953 16.0944 13.234 15.8164 13.3115C15.543 13.389 15.29 13.487 15.0576 13.6055C14.8252 13.724 14.6042 13.8516 14.3945 13.9883L13.6221 12.874C14.0003 12.5915 14.4515 12.3522 14.9756 12.1562C15.4997 11.9603 16.1104 11.8623 16.8076 11.8623C17.833 11.8623 18.6237 12.0833 19.1797 12.5254C19.7357 12.9629 20.0137 13.5508 20.0137 14.2891Z" fill="white"/>
</svg>
