<svg width="34" height="34" viewBox="0 0 34 34" fill="none" xmlns="http://www.w3.org/2000/svg">
<rect x="0.5" y="0.5" width="33" height="33" rx="9.5" stroke="#FB7E18"/>
<rect x="2" y="2" width="30" height="30" rx="8" fill="#FB7E18"/>
<path d="M20.3965 22H13.6289V20.79L16.2197 18.165C16.721 17.6546 17.1335 17.2148 17.457 16.8457C17.7806 16.472 18.0199 16.1188 18.1748 15.7861C18.3343 15.4535 18.4141 15.0911 18.4141 14.6992C18.4141 14.2161 18.2751 13.8516 17.9971 13.6055C17.7191 13.3548 17.3522 13.2295 16.8965 13.2295C16.4635 13.2295 16.0625 13.3161 15.6934 13.4893C15.3288 13.6579 14.9505 13.8994 14.5586 14.2139L13.6768 13.1543C13.9548 12.9173 14.251 12.7008 14.5654 12.5049C14.8844 12.3089 15.2399 12.154 15.6318 12.04C16.0238 11.9215 16.4704 11.8623 16.9717 11.8623C17.6051 11.8623 18.152 11.9762 18.6123 12.2041C19.0726 12.4274 19.4258 12.7396 19.6719 13.1406C19.9225 13.5417 20.0479 14.0088 20.0479 14.542C20.0479 15.0798 19.9408 15.5765 19.7266 16.0322C19.5124 16.488 19.207 16.9391 18.8105 17.3857C18.4141 17.8278 17.9424 18.3086 17.3955 18.8281L15.666 20.5166V20.5918H20.3965V22Z" fill="white"/>
</svg>
