<svg width="26" height="22" viewBox="0 0 26 22" fill="none" xmlns="http://www.w3.org/2000/svg">
<path d="M5.81711 16.0044C6.231 15.9878 6.55307 15.6388 6.5365 15.225C6.51992 14.8111 6.17097 14.489 5.75708 14.5056L5.81711 16.0044ZM1.66602 11.4767L0.916385 11.4532C0.915772 11.4727 0.915922 11.4922 0.916834 11.5117L1.66602 11.4767ZM4.7586 7.81747L4.90674 8.55269C5.25681 8.48215 5.5086 8.17457 5.5086 7.81747H4.7586ZM4.7586 7.69847L4.00943 7.66316C4.00888 7.67492 4.0086 7.68669 4.0086 7.69847H4.7586ZM8.87827 3.92163L8.84851 4.67104C8.8589 4.67145 8.8693 4.67165 8.8797 4.67163L8.87827 3.92163ZM10.3898 4.18372L10.136 4.88946C10.4904 5.01693 10.8844 4.86176 11.0568 4.52684L10.3898 4.18372ZM15.5748 1.0883L15.5604 1.83816C15.5756 1.83845 15.5909 1.83828 15.6061 1.83765L15.5748 1.0883ZM21.2415 6.28322L21.9915 6.28256C21.9915 6.27148 21.9912 6.2604 21.9907 6.24933L21.2415 6.28322ZM21.0063 7.77072L20.2931 7.53873C20.2247 7.74922 20.2527 7.9792 20.3697 8.1671C20.4866 8.355 20.6806 8.48164 20.8997 8.5131L21.0063 7.77072ZM24.3327 11.4767L25.0819 11.5117C25.0828 11.4914 25.0829 11.471 25.0822 11.4507L24.3327 11.4767ZM20.2416 14.5056C19.8277 14.489 19.4788 14.8111 19.4622 15.2249C19.4456 15.6388 19.7677 15.9878 20.1816 16.0044L20.2416 14.5056ZM13.7493 12.4216C13.7493 12.0074 13.4136 11.6716 12.9993 11.6716C12.5851 11.6716 12.2493 12.0074 12.2493 12.4216H13.7493ZM12.2493 20.9216C12.2493 21.3358 12.5851 21.6716 12.9993 21.6716C13.4136 21.6716 13.7493 21.3358 13.7493 20.9216H12.2493ZM13.5297 12.952C13.8226 12.6591 13.8226 12.1842 13.5297 11.8913C13.2368 11.5984 12.7619 11.5984 12.469 11.8913L13.5297 12.952ZM9.63569 14.7246C9.34279 15.0175 9.34279 15.4924 9.63569 15.7853C9.92858 16.0782 10.4035 16.0782 10.6963 15.7853L9.63569 14.7246ZM13.5303 11.8915C13.2374 11.5987 12.7626 11.5987 12.4697 11.8915C12.1768 12.1844 12.1768 12.6593 12.4697 12.9522L13.5303 11.8915ZM15.303 15.7855C15.5959 16.0784 16.0708 16.0784 16.3637 15.7855C16.6566 15.4926 16.6566 15.0178 16.3637 14.7249L15.303 15.7855ZM5.75708 14.5056C3.99038 14.5763 2.49777 13.2079 2.4152 11.4417L0.916834 11.5117C1.03791 14.1015 3.22655 16.1081 5.81711 16.0044L5.75708 14.5056ZM2.41565 11.5002C2.46089 10.0585 3.49271 8.83761 4.90674 8.55269L4.61046 7.08224C2.51357 7.50475 0.983472 9.31521 0.916385 11.4532L2.41565 11.5002ZM5.5086 7.81747C5.5086 7.81739 5.5086 7.81731 5.5086 7.81723C5.5086 7.81716 5.5086 7.81708 5.5086 7.817C5.5086 7.81692 5.5086 7.81685 5.5086 7.81677C5.5086 7.81669 5.5086 7.81661 5.5086 7.81654C5.5086 7.81646 5.5086 7.81638 5.5086 7.8163C5.5086 7.81623 5.5086 7.81615 5.5086 7.81607C5.5086 7.81599 5.5086 7.81592 5.5086 7.81584C5.5086 7.81576 5.5086 7.81568 5.5086 7.81561C5.5086 7.81553 5.5086 7.81545 5.5086 7.81537C5.5086 7.8153 5.5086 7.81522 5.5086 7.81514C5.5086 7.81506 5.5086 7.81499 5.5086 7.81491C5.5086 7.81483 5.5086 7.81475 5.5086 7.81468C5.5086 7.8146 5.5086 7.81452 5.5086 7.81444C5.5086 7.81437 5.5086 7.81429 5.5086 7.81421C5.5086 7.81413 5.5086 7.81406 5.5086 7.81398C5.5086 7.8139 5.5086 7.81382 5.5086 7.81375C5.5086 7.81367 5.5086 7.81359 5.5086 7.81351C5.5086 7.81344 5.5086 7.81336 5.5086 7.81328C5.5086 7.8132 5.5086 7.81313 5.5086 7.81305C5.5086 7.81297 5.5086 7.81289 5.5086 7.81282C5.5086 7.81274 5.5086 7.81266 5.5086 7.81258C5.5086 7.81251 5.5086 7.81243 5.5086 7.81235C5.5086 7.81227 5.5086 7.8122 5.5086 7.81212C5.5086 7.81204 5.5086 7.81196 5.5086 7.81189C5.5086 7.81181 5.5086 7.81173 5.5086 7.81166C5.5086 7.81158 5.5086 7.8115 5.5086 7.81142C5.5086 7.81135 5.5086 7.81127 5.5086 7.81119C5.5086 7.81111 5.5086 7.81104 5.5086 7.81096C5.5086 7.81088 5.5086 7.8108 5.5086 7.81073C5.5086 7.81065 5.5086 7.81057 5.5086 7.81049C5.5086 7.81042 5.5086 7.81034 5.5086 7.81026C5.5086 7.81018 5.5086 7.81011 5.5086 7.81003C5.5086 7.80995 5.5086 7.80987 5.5086 7.8098C5.5086 7.80972 5.5086 7.80964 5.5086 7.80956C5.5086 7.80949 5.5086 7.80941 5.5086 7.80933C5.5086 7.80925 5.5086 7.80918 5.5086 7.8091C5.5086 7.80902 5.5086 7.80894 5.5086 7.80887C5.5086 7.80879 5.5086 7.80871 5.5086 7.80863C5.5086 7.80856 5.5086 7.80848 5.5086 7.8084C5.5086 7.80832 5.5086 7.80825 5.5086 7.80817C5.5086 7.80809 5.5086 7.80801 5.5086 7.80794C5.5086 7.80786 5.5086 7.80778 5.5086 7.8077C5.5086 7.80763 5.5086 7.80755 5.5086 7.80747C5.5086 7.80739 5.5086 7.80732 5.5086 7.80724C5.5086 7.80716 5.5086 7.80708 5.5086 7.80701C5.5086 7.80693 5.5086 7.80685 5.5086 7.80677C5.5086 7.8067 5.5086 7.80662 5.5086 7.80654C5.5086 7.80646 5.5086 7.80639 5.5086 7.80631C5.5086 7.80623 5.5086 7.80615 5.5086 7.80608C5.5086 7.806 5.5086 7.80592 5.5086 7.80584C5.5086 7.80577 5.5086 7.80569 5.5086 7.80561C5.5086 7.80553 5.5086 7.80546 5.5086 7.80538C5.5086 7.8053 5.5086 7.80522 5.5086 7.80515C5.5086 7.80507 5.5086 7.80499 5.5086 7.80491C5.5086 7.80484 5.5086 7.80476 5.5086 7.80468C5.5086 7.80461 5.5086 7.80453 5.5086 7.80445C5.5086 7.80437 5.5086 7.8043 5.5086 7.80422C5.5086 7.80414 5.5086 7.80406 5.5086 7.80399C5.5086 7.80391 5.5086 7.80383 5.5086 7.80375C5.5086 7.80368 5.5086 7.8036 5.5086 7.80352C5.5086 7.80344 5.5086 7.80337 5.5086 7.80329C5.5086 7.80321 5.5086 7.80313 5.5086 7.80306C5.5086 7.80298 5.5086 7.8029 5.5086 7.80282C5.5086 7.80275 5.5086 7.80267 5.5086 7.80259C5.5086 7.80251 5.5086 7.80244 5.5086 7.80236C5.5086 7.80228 5.5086 7.8022 5.5086 7.80213C5.5086 7.80205 5.5086 7.80197 5.5086 7.80189C5.5086 7.80182 5.5086 7.80174 5.5086 7.80166C5.5086 7.80158 5.5086 7.80151 5.5086 7.80143C5.5086 7.80135 5.5086 7.80127 5.5086 7.8012C5.5086 7.80112 5.5086 7.80104 5.5086 7.80096C5.5086 7.80089 5.5086 7.80081 5.5086 7.80073C5.5086 7.80065 5.5086 7.80058 5.5086 7.8005C5.5086 7.80042 5.5086 7.80034 5.5086 7.80027C5.5086 7.80019 5.5086 7.80011 5.5086 7.80003C5.5086 7.79996 5.5086 7.79988 5.5086 7.7998C5.5086 7.79972 5.5086 7.79965 5.5086 7.79957C5.5086 7.79949 5.5086 7.79941 5.5086 7.79934C5.5086 7.79926 5.5086 7.79918 5.5086 7.7991C5.5086 7.79903 5.5086 7.79895 5.5086 7.79887C5.5086 7.79879 5.5086 7.79872 5.5086 7.79864C5.5086 7.79856 5.5086 7.79848 5.5086 7.79841C5.5086 7.79833 5.5086 7.79825 5.5086 7.79817C5.5086 7.7981 5.5086 7.79802 5.5086 7.79794C5.5086 7.79786 5.5086 7.79779 5.5086 7.79771C5.5086 7.79763 5.5086 7.79755 5.5086 7.79748C5.5086 7.7974 5.5086 7.79732 5.5086 7.79724C5.5086 7.79717 5.5086 7.79709 5.5086 7.79701C5.5086 7.79693 5.5086 7.79686 5.5086 7.79678C5.5086 7.7967 5.5086 7.79663 5.5086 7.79655C5.5086 7.79647 5.5086 7.79639 5.5086 7.79632C5.5086 7.79624 5.5086 7.79616 5.5086 7.79608C5.5086 7.79601 5.5086 7.79593 5.5086 7.79585C5.5086 7.79577 5.5086 7.7957 5.5086 7.79562C5.5086 7.79554 5.5086 7.79546 5.5086 7.79539C5.5086 7.79531 5.5086 7.79523 5.5086 7.79515C5.5086 7.79508 5.5086 7.795 5.5086 7.79492C5.5086 7.79484 5.5086 7.79477 5.5086 7.79469C5.5086 7.79461 5.5086 7.79453 5.5086 7.79446C5.5086 7.79438 5.5086 7.7943 5.5086 7.79422C5.5086 7.79415 5.5086 7.79407 5.5086 7.79399C5.5086 7.79391 5.5086 7.79384 5.5086 7.79376C5.5086 7.79368 5.5086 7.7936 5.5086 7.79353C5.5086 7.79345 5.5086 7.79337 5.5086 7.79329C5.5086 7.79322 5.5086 7.79314 5.5086 7.79306C5.5086 7.79298 5.5086 7.79291 5.5086 7.79283C5.5086 7.79275 5.5086 7.79267 5.5086 7.7926C5.5086 7.79252 5.5086 7.79244 5.5086 7.79236C5.5086 7.79229 5.5086 7.79221 5.5086 7.79213C5.5086 7.79205 5.5086 7.79198 5.5086 7.7919C5.5086 7.79182 5.5086 7.79174 5.5086 7.79167C5.5086 7.79159 5.5086 7.79151 5.5086 7.79143C5.5086 7.79136 5.5086 7.79128 5.5086 7.7912C5.5086 7.79112 5.5086 7.79105 5.5086 7.79097C5.5086 7.79089 5.5086 7.79081 5.5086 7.79074C5.5086 7.79066 5.5086 7.79058 5.5086 7.7905C5.5086 7.79043 5.5086 7.79035 5.5086 7.79027C5.5086 7.79019 5.5086 7.79012 5.5086 7.79004C5.5086 7.78996 5.5086 7.78988 5.5086 7.78981C5.5086 7.78973 5.5086 7.78965 5.5086 7.78957C5.5086 7.7895 5.5086 7.78942 5.5086 7.78934C5.5086 7.78926 5.5086 7.78919 5.5086 7.78911C5.5086 7.78903 5.5086 7.78896 5.5086 7.78888C5.5086 7.7888 5.5086 7.78872 5.5086 7.78865C5.5086 7.78857 5.5086 7.78849 5.5086 7.78841C5.5086 7.78834 5.5086 7.78826 5.5086 7.78818C5.5086 7.7881 5.5086 7.78803 5.5086 7.78795C5.5086 7.78787 5.5086 7.78779 5.5086 7.78772C5.5086 7.78764 5.5086 7.78756 5.5086 7.78748C5.5086 7.78741 5.5086 7.78733 5.5086 7.78725C5.5086 7.78717 5.5086 7.7871 5.5086 7.78702C5.5086 7.78694 5.5086 7.78686 5.5086 7.78679C5.5086 7.78671 5.5086 7.78663 5.5086 7.78655C5.5086 7.78648 5.5086 7.7864 5.5086 7.78632C5.5086 7.78624 5.5086 7.78617 5.5086 7.78609C5.5086 7.78601 5.5086 7.78593 5.5086 7.78586C5.5086 7.78578 5.5086 7.7857 5.5086 7.78562C5.5086 7.78555 5.5086 7.78547 5.5086 7.78539C5.5086 7.78531 5.5086 7.78524 5.5086 7.78516C5.5086 7.78508 5.5086 7.785 5.5086 7.78493C5.5086 7.78485 5.5086 7.78477 5.5086 7.78469C5.5086 7.78462 5.5086 7.78454 5.5086 7.78446C5.5086 7.78438 5.5086 7.78431 5.5086 7.78423C5.5086 7.78415 5.5086 7.78407 5.5086 7.784C5.5086 7.78392 5.5086 7.78384 5.5086 7.78376C5.5086 7.78369 5.5086 7.78361 5.5086 7.78353C5.5086 7.78345 5.5086 7.78338 5.5086 7.7833C5.5086 7.78322 5.5086 7.78314 5.5086 7.78307C5.5086 7.78299 5.5086 7.78291 5.5086 7.78283C5.5086 7.78276 5.5086 7.78268 5.5086 7.7826C5.5086 7.78252 5.5086 7.78245 5.5086 7.78237C5.5086 7.78229 5.5086 7.78221 5.5086 7.78214C5.5086 7.78206 5.5086 7.78198 5.5086 7.7819C5.5086 7.78183 5.5086 7.78175 5.5086 7.78167C5.5086 7.78159 5.5086 7.78152 5.5086 7.78144C5.5086 7.78136 5.5086 7.78129 5.5086 7.78121C5.5086 7.78113 5.5086 7.78105 5.5086 7.78098C5.5086 7.7809 5.5086 7.78082 5.5086 7.78074C5.5086 7.78067 5.5086 7.78059 5.5086 7.78051C5.5086 7.78043 5.5086 7.78036 5.5086 7.78028C5.5086 7.7802 5.5086 7.78012 5.5086 7.78005C5.5086 7.77997 5.5086 7.77989 5.5086 7.77981C5.5086 7.77974 5.5086 7.77966 5.5086 7.77958C5.5086 7.7795 5.5086 7.77943 5.5086 7.77935C5.5086 7.77927 5.5086 7.77919 5.5086 7.77912C5.5086 7.77904 5.5086 7.77896 5.5086 7.77888C5.5086 7.77881 5.5086 7.77873 5.5086 7.77865C5.5086 7.77857 5.5086 7.7785 5.5086 7.77842C5.5086 7.77834 5.5086 7.77826 5.5086 7.77819C5.5086 7.77811 5.5086 7.77803 5.5086 7.77795C5.5086 7.77788 5.5086 7.7778 5.5086 7.77772C5.5086 7.77764 5.5086 7.77757 5.5086 7.77749C5.5086 7.77741 5.5086 7.77733 5.5086 7.77726C5.5086 7.77718 5.5086 7.7771 5.5086 7.77702C5.5086 7.77695 5.5086 7.77687 5.5086 7.77679C5.5086 7.77671 5.5086 7.77664 5.5086 7.77656C5.5086 7.77648 5.5086 7.7764 5.5086 7.77633C5.5086 7.77625 5.5086 7.77617 5.5086 7.77609C5.5086 7.77602 5.5086 7.77594 5.5086 7.77586C5.5086 7.77578 5.5086 7.77571 5.5086 7.77563C5.5086 7.77555 5.5086 7.77547 5.5086 7.7754C5.5086 7.77532 5.5086 7.77524 5.5086 7.77516C5.5086 7.77509 5.5086 7.77501 5.5086 7.77493C5.5086 7.77485 5.5086 7.77478 5.5086 7.7747C5.5086 7.77462 5.5086 7.77454 5.5086 7.77447C5.5086 7.77439 5.5086 7.77431 5.5086 7.77423C5.5086 7.77416 5.5086 7.77408 5.5086 7.774C5.5086 7.77392 5.5086 7.77385 5.5086 7.77377C5.5086 7.77369 5.5086 7.77362 5.5086 7.77354C5.5086 7.77346 5.5086 7.77338 5.5086 7.77331C5.5086 7.77323 5.5086 7.77315 5.5086 7.77307C5.5086 7.773 5.5086 7.77292 5.5086 7.77284C5.5086 7.77276 5.5086 7.77269 5.5086 7.77261C5.5086 7.77253 5.5086 7.77245 5.5086 7.77238C5.5086 7.7723 5.5086 7.77222 5.5086 7.77214C5.5086 7.77207 5.5086 7.77199 5.5086 7.77191C5.5086 7.77183 5.5086 7.77176 5.5086 7.77168C5.5086 7.7716 5.5086 7.77152 5.5086 7.77145C5.5086 7.77137 5.5086 7.77129 5.5086 7.77121C5.5086 7.77114 5.5086 7.77106 5.5086 7.77098C5.5086 7.7709 5.5086 7.77083 5.5086 7.77075C5.5086 7.77067 5.5086 7.77059 5.5086 7.77052C5.5086 7.77044 5.5086 7.77036 5.5086 7.77028C5.5086 7.77021 5.5086 7.77013 5.5086 7.77005C5.5086 7.76997 5.5086 7.7699 5.5086 7.76982C5.5086 7.76974 5.5086 7.76966 5.5086 7.76959C5.5086 7.76951 5.5086 7.76943 5.5086 7.76935C5.5086 7.76928 5.5086 7.7692 5.5086 7.76912C5.5086 7.76904 5.5086 7.76897 5.5086 7.76889C5.5086 7.76881 5.5086 7.76873 5.5086 7.76866C5.5086 7.76858 5.5086 7.7685 5.5086 7.76842C5.5086 7.76835 5.5086 7.76827 5.5086 7.76819C5.5086 7.76811 5.5086 7.76804 5.5086 7.76796C5.5086 7.76788 5.5086 7.7678 5.5086 7.76773C5.5086 7.76765 5.5086 7.76757 5.5086 7.76749C5.5086 7.76742 5.5086 7.76734 5.5086 7.76726C5.5086 7.76718 5.5086 7.76711 5.5086 7.76703C5.5086 7.76695 5.5086 7.76687 5.5086 7.7668C5.5086 7.76672 5.5086 7.76664 5.5086 7.76656C5.5086 7.76649 5.5086 7.76641 5.5086 7.76633C5.5086 7.76625 5.5086 7.76618 5.5086 7.7661C5.5086 7.76602 5.5086 7.76595 5.5086 7.76587C5.5086 7.76579 5.5086 7.76571 5.5086 7.76564C5.5086 7.76556 5.5086 7.76548 5.5086 7.7654C5.5086 7.76533 5.5086 7.76525 5.5086 7.76517C5.5086 7.76509 5.5086 7.76502 5.5086 7.76494C5.5086 7.76486 5.5086 7.76478 5.5086 7.76471C5.5086 7.76463 5.5086 7.76455 5.5086 7.76447C5.5086 7.7644 5.5086 7.76432 5.5086 7.76424C5.5086 7.76416 5.5086 7.76409 5.5086 7.76401C5.5086 7.76393 5.5086 7.76385 5.5086 7.76378C5.5086 7.7637 5.5086 7.76362 5.5086 7.76354C5.5086 7.76347 5.5086 7.76339 5.5086 7.76331C5.5086 7.76323 5.5086 7.76316 5.5086 7.76308C5.5086 7.763 5.5086 7.76292 5.5086 7.76285C5.5086 7.76277 5.5086 7.76269 5.5086 7.76261C5.5086 7.76254 5.5086 7.76246 5.5086 7.76238C5.5086 7.7623 5.5086 7.76223 5.5086 7.76215C5.5086 7.76207 5.5086 7.76199 5.5086 7.76192C5.5086 7.76184 5.5086 7.76176 5.5086 7.76168C5.5086 7.76161 5.5086 7.76153 5.5086 7.76145C5.5086 7.76137 5.5086 7.7613 5.5086 7.76122C5.5086 7.76114 5.5086 7.76106 5.5086 7.76099C5.5086 7.76091 5.5086 7.76083 5.5086 7.76075C5.5086 7.76068 5.5086 7.7606 5.5086 7.76052C5.5086 7.76044 5.5086 7.76037 5.5086 7.76029C5.5086 7.76021 5.5086 7.76013 5.5086 7.76006C5.5086 7.75998 5.5086 7.7599 5.5086 7.75982C5.5086 7.75975 5.5086 7.75967 5.5086 7.75959C5.5086 7.75951 5.5086 7.75944 5.5086 7.75936C5.5086 7.75928 5.5086 7.7592 5.5086 7.75913C5.5086 7.75905 5.5086 7.75897 5.5086 7.75889C5.5086 7.75882 5.5086 7.75874 5.5086 7.75866C5.5086 7.75858 5.5086 7.75851 5.5086 7.75843C5.5086 7.75835 5.5086 7.75828 5.5086 7.7582C5.5086 7.75812 5.5086 7.75804 5.5086 7.75797C5.5086 7.75789 5.5086 7.75781 5.5086 7.75773C5.5086 7.75766 5.5086 7.75758 5.5086 7.7575C5.5086 7.75742 5.5086 7.75735 5.5086 7.75727C5.5086 7.75719 5.5086 7.75711 5.5086 7.75704C5.5086 7.75696 5.5086 7.75688 5.5086 7.7568C5.5086 7.75673 5.5086 7.75665 5.5086 7.75657C5.5086 7.75649 5.5086 7.75642 5.5086 7.75634C5.5086 7.75626 5.5086 7.75618 5.5086 7.75611C5.5086 7.75603 5.5086 7.75595 5.5086 7.75587C5.5086 7.7558 5.5086 7.75572 5.5086 7.75564C5.5086 7.75556 5.5086 7.75549 5.5086 7.75541C5.5086 7.75533 5.5086 7.75525 5.5086 7.75518C5.5086 7.7551 5.5086 7.75502 5.5086 7.75494C5.5086 7.75487 5.5086 7.75479 5.5086 7.75471C5.5086 7.75463 5.5086 7.75456 5.5086 7.75448C5.5086 7.7544 5.5086 7.75432 5.5086 7.75425C5.5086 7.75417 5.5086 7.75409 5.5086 7.75401C5.5086 7.75394 5.5086 7.75386 5.5086 7.75378C5.5086 7.7537 5.5086 7.75363 5.5086 7.75355C5.5086 7.75347 5.5086 7.75339 5.5086 7.75332C5.5086 7.75324 5.5086 7.75316 5.5086 7.75308C5.5086 7.75301 5.5086 7.75293 5.5086 7.75285C5.5086 7.75277 5.5086 7.7527 5.5086 7.75262C5.5086 7.75254 5.5086 7.75246 5.5086 7.75239C5.5086 7.75231 5.5086 7.75223 5.5086 7.75215C5.5086 7.75208 5.5086 7.752 5.5086 7.75192C5.5086 7.75184 5.5086 7.75177 5.5086 7.75169C5.5086 7.75161 5.5086 7.75153 5.5086 7.75146C5.5086 7.75138 5.5086 7.7513 5.5086 7.75122C5.5086 7.75115 5.5086 7.75107 5.5086 7.75099C5.5086 7.75092 5.5086 7.75084 5.5086 7.75076C5.5086 7.75068 5.5086 7.75061 5.5086 7.75053C5.5086 7.75045 5.5086 7.75037 5.5086 7.7503C5.5086 7.75022 5.5086 7.75014 5.5086 7.75006C5.5086 7.74999 5.5086 7.74991 5.5086 7.74983C5.5086 7.74975 5.5086 7.74968 5.5086 7.7496C5.5086 7.74952 5.5086 7.74944 5.5086 7.74937C5.5086 7.74929 5.5086 7.74921 5.5086 7.74913C5.5086 7.74906 5.5086 7.74898 5.5086 7.7489C5.5086 7.74882 5.5086 7.74875 5.5086 7.74867C5.5086 7.74859 5.5086 7.74851 5.5086 7.74844C5.5086 7.74836 5.5086 7.74828 5.5086 7.7482C5.5086 7.74813 5.5086 7.74805 5.5086 7.74797C5.5086 7.74789 5.5086 7.74782 5.5086 7.74774C5.5086 7.74766 5.5086 7.74758 5.5086 7.74751C5.5086 7.74743 5.5086 7.74735 5.5086 7.74727C5.5086 7.7472 5.5086 7.74712 5.5086 7.74704C5.5086 7.74696 5.5086 7.74689 5.5086 7.74681C5.5086 7.74673 5.5086 7.74665 5.5086 7.74658C5.5086 7.7465 5.5086 7.74642 5.5086 7.74634C5.5086 7.74627 5.5086 7.74619 5.5086 7.74611C5.5086 7.74603 5.5086 7.74596 5.5086 7.74588C5.5086 7.7458 5.5086 7.74572 5.5086 7.74565C5.5086 7.74557 5.5086 7.74549 5.5086 7.74541C5.5086 7.74534 5.5086 7.74526 5.5086 7.74518C5.5086 7.7451 5.5086 7.74503 5.5086 7.74495C5.5086 7.74487 5.5086 7.74479 5.5086 7.74472C5.5086 7.74464 5.5086 7.74456 5.5086 7.74448C5.5086 7.74441 5.5086 7.74433 5.5086 7.74425C5.5086 7.74417 5.5086 7.7441 5.5086 7.74402C5.5086 7.74394 5.5086 7.74387 5.5086 7.74379C5.5086 7.74371 5.5086 7.74363 5.5086 7.74356C5.5086 7.74348 5.5086 7.7434 5.5086 7.74332C5.5086 7.74325 5.5086 7.74317 5.5086 7.74309C5.5086 7.74301 5.5086 7.74294 5.5086 7.74286C5.5086 7.74278 5.5086 7.7427 5.5086 7.74263C5.5086 7.74255 5.5086 7.74247 5.5086 7.74239C5.5086 7.74232 5.5086 7.74224 5.5086 7.74216C5.5086 7.74208 5.5086 7.74201 5.5086 7.74193C5.5086 7.74185 5.5086 7.74177 5.5086 7.7417C5.5086 7.74162 5.5086 7.74154 5.5086 7.74146C5.5086 7.74139 5.5086 7.74131 5.5086 7.74123C5.5086 7.74115 5.5086 7.74108 5.5086 7.741C5.5086 7.74092 5.5086 7.74084 5.5086 7.74077C5.5086 7.74069 5.5086 7.74061 5.5086 7.74053C5.5086 7.74046 5.5086 7.74038 5.5086 7.7403C5.5086 7.74022 5.5086 7.74015 5.5086 7.74007C5.5086 7.73999 5.5086 7.73991 5.5086 7.73984C5.5086 7.73976 5.5086 7.73968 5.5086 7.7396C5.5086 7.73953 5.5086 7.73945 5.5086 7.73937C5.5086 7.73929 5.5086 7.73922 5.5086 7.73914C5.5086 7.73906 5.5086 7.73898 5.5086 7.73891C5.5086 7.73883 5.5086 7.73875 5.5086 7.73867C5.5086 7.7386 5.5086 7.73852 5.5086 7.73844C5.5086 7.73836 5.5086 7.73829 5.5086 7.73821C5.5086 7.73813 5.5086 7.73805 5.5086 7.73798C5.5086 7.7379 5.5086 7.73782 5.5086 7.73774C5.5086 7.73767 5.5086 7.73759 5.5086 7.73751C5.5086 7.73743 5.5086 7.73736 5.5086 7.73728C5.5086 7.7372 5.5086 7.73712 5.5086 7.73705C5.5086 7.73697 5.5086 7.73689 5.5086 7.73681C5.5086 7.73674 5.5086 7.73666 5.5086 7.73658C5.5086 7.73651 5.5086 7.73643 5.5086 7.73635C5.5086 7.73627 5.5086 7.7362 5.5086 7.73612C5.5086 7.73604 5.5086 7.73596 5.5086 7.73589C5.5086 7.73581 5.5086 7.73573 5.5086 7.73565C5.5086 7.73558 5.5086 7.7355 5.5086 7.73542C5.5086 7.73534 5.5086 7.73527 5.5086 7.73519C5.5086 7.73511 5.5086 7.73503 5.5086 7.73496C5.5086 7.73488 5.5086 7.7348 5.5086 7.73472C5.5086 7.73465 5.5086 7.73457 5.5086 7.73449C5.5086 7.73441 5.5086 7.73434 5.5086 7.73426C5.5086 7.73418 5.5086 7.7341 5.5086 7.73403C5.5086 7.73395 5.5086 7.73387 5.5086 7.73379C5.5086 7.73372 5.5086 7.73364 5.5086 7.73356C5.5086 7.73348 5.5086 7.73341 5.5086 7.73333C5.5086 7.73325 5.5086 7.73317 5.5086 7.7331C5.5086 7.73302 5.5086 7.73294 5.5086 7.73286C5.5086 7.73279 5.5086 7.73271 5.5086 7.73263C5.5086 7.73255 5.5086 7.73248 5.5086 7.7324C5.5086 7.73232 5.5086 7.73224 5.5086 7.73217C5.5086 7.73209 5.5086 7.73201 5.5086 7.73193C5.5086 7.73186 5.5086 7.73178 5.5086 7.7317C5.5086 7.73162 5.5086 7.73155 5.5086 7.73147C5.5086 7.73139 5.5086 7.73131 5.5086 7.73124C5.5086 7.73116 5.5086 7.73108 5.5086 7.731C5.5086 7.73093 5.5086 7.73085 5.5086 7.73077C5.5086 7.73069 5.5086 7.73062 5.5086 7.73054C5.5086 7.73046 5.5086 7.73038 5.5086 7.73031C5.5086 7.73023 5.5086 7.73015 5.5086 7.73007C5.5086 7.73 5.5086 7.72992 5.5086 7.72984C5.5086 7.72976 5.5086 7.72969 5.5086 7.72961C5.5086 7.72953 5.5086 7.72945 5.5086 7.72938C5.5086 7.7293 5.5086 7.72922 5.5086 7.72915C5.5086 7.72907 5.5086 7.72899 5.5086 7.72891C5.5086 7.72884 5.5086 7.72876 5.5086 7.72868C5.5086 7.7286 5.5086 7.72853 5.5086 7.72845C5.5086 7.72837 5.5086 7.72829 5.5086 7.72822C5.5086 7.72814 5.5086 7.72806 5.5086 7.72798C5.5086 7.72791 5.5086 7.72783 5.5086 7.72775C5.5086 7.72767 5.5086 7.7276 5.5086 7.72752C5.5086 7.72744 5.5086 7.72736 5.5086 7.72729C5.5086 7.72721 5.5086 7.72713 5.5086 7.72705C5.5086 7.72698 5.5086 7.7269 5.5086 7.72682C5.5086 7.72674 5.5086 7.72667 5.5086 7.72659C5.5086 7.72651 5.5086 7.72643 5.5086 7.72636C5.5086 7.72628 5.5086 7.7262 5.5086 7.72612C5.5086 7.72605 5.5086 7.72597 5.5086 7.72589C5.5086 7.72581 5.5086 7.72574 5.5086 7.72566C5.5086 7.72558 5.5086 7.7255 5.5086 7.72543C5.5086 7.72535 5.5086 7.72527 5.5086 7.72519C5.5086 7.72512 5.5086 7.72504 5.5086 7.72496C5.5086 7.72488 5.5086 7.72481 5.5086 7.72473C5.5086 7.72465 5.5086 7.72457 5.5086 7.7245C5.5086 7.72442 5.5086 7.72434 5.5086 7.72426C5.5086 7.72419 5.5086 7.72411 5.5086 7.72403C5.5086 7.72395 5.5086 7.72388 5.5086 7.7238C5.5086 7.72372 5.5086 7.72364 5.5086 7.72357C5.5086 7.72349 5.5086 7.72341 5.5086 7.72333C5.5086 7.72326 5.5086 7.72318 5.5086 7.7231C5.5086 7.72302 5.5086 7.72295 5.5086 7.72287C5.5086 7.72279 5.5086 7.72271 5.5086 7.72264C5.5086 7.72256 5.5086 7.72248 5.5086 7.7224C5.5086 7.72233 5.5086 7.72225 5.5086 7.72217C5.5086 7.7221 5.5086 7.72202 5.5086 7.72194C5.5086 7.72186 5.5086 7.72179 5.5086 7.72171C5.5086 7.72163 5.5086 7.72155 5.5086 7.72148C5.5086 7.7214 5.5086 7.72132 5.5086 7.72124C5.5086 7.72117 5.5086 7.72109 5.5086 7.72101C5.5086 7.72093 5.5086 7.72086 5.5086 7.72078C5.5086 7.7207 5.5086 7.72062 5.5086 7.72055C5.5086 7.72047 5.5086 7.72039 5.5086 7.72031C5.5086 7.72024 5.5086 7.72016 5.5086 7.72008C5.5086 7.72 5.5086 7.71993 5.5086 7.71985C5.5086 7.71977 5.5086 7.71969 5.5086 7.71962C5.5086 7.71954 5.5086 7.71946 5.5086 7.71938C5.5086 7.71931 5.5086 7.71923 5.5086 7.71915C5.5086 7.71907 5.5086 7.719 5.5086 7.71892C5.5086 7.71884 5.5086 7.71876 5.5086 7.71869C5.5086 7.71861 5.5086 7.71853 5.5086 7.71845C5.5086 7.71838 5.5086 7.7183 5.5086 7.71822C5.5086 7.71814 5.5086 7.71807 5.5086 7.71799C5.5086 7.71791 5.5086 7.71783 5.5086 7.71776C5.5086 7.71768 5.5086 7.7176 5.5086 7.71752C5.5086 7.71745 5.5086 7.71737 5.5086 7.71729C5.5086 7.71721 5.5086 7.71714 5.5086 7.71706C5.5086 7.71698 5.5086 7.7169 5.5086 7.71683C5.5086 7.71675 5.5086 7.71667 5.5086 7.71659C5.5086 7.71652 5.5086 7.71644 5.5086 7.71636C5.5086 7.71628 5.5086 7.71621 5.5086 7.71613C5.5086 7.71605 5.5086 7.71597 5.5086 7.7159C5.5086 7.71582 5.5086 7.71574 5.5086 7.71566C5.5086 7.71559 5.5086 7.71551 5.5086 7.71543C5.5086 7.71535 5.5086 7.71528 5.5086 7.7152C5.5086 7.71512 5.5086 7.71504 5.5086 7.71497C5.5086 7.71489 5.5086 7.71481 5.5086 7.71474C5.5086 7.71466 5.5086 7.71458 5.5086 7.7145C5.5086 7.71443 5.5086 7.71435 5.5086 7.71427C5.5086 7.71419 5.5086 7.71412 5.5086 7.71404C5.5086 7.71396 5.5086 7.71388 5.5086 7.71381C5.5086 7.71373 5.5086 7.71365 5.5086 7.71357C5.5086 7.7135 5.5086 7.71342 5.5086 7.71334C5.5086 7.71326 5.5086 7.71319 5.5086 7.71311C5.5086 7.71303 5.5086 7.71295 5.5086 7.71288C5.5086 7.7128 5.5086 7.71272 5.5086 7.71264C5.5086 7.71257 5.5086 7.71249 5.5086 7.71241C5.5086 7.71233 5.5086 7.71226 5.5086 7.71218C5.5086 7.7121 5.5086 7.71202 5.5086 7.71195C5.5086 7.71187 5.5086 7.71179 5.5086 7.71171C5.5086 7.71164 5.5086 7.71156 5.5086 7.71148C5.5086 7.7114 5.5086 7.71133 5.5086 7.71125C5.5086 7.71117 5.5086 7.71109 5.5086 7.71102C5.5086 7.71094 5.5086 7.71086 5.5086 7.71078C5.5086 7.71071 5.5086 7.71063 5.5086 7.71055C5.5086 7.71047 5.5086 7.7104 5.5086 7.71032C5.5086 7.71024 5.5086 7.71016 5.5086 7.71009C5.5086 7.71001 5.5086 7.70993 5.5086 7.70985C5.5086 7.70978 5.5086 7.7097 5.5086 7.70962C5.5086 7.70954 5.5086 7.70947 5.5086 7.70939C5.5086 7.70931 5.5086 7.70923 5.5086 7.70916C5.5086 7.70908 5.5086 7.709 5.5086 7.70892C5.5086 7.70885 5.5086 7.70877 5.5086 7.70869C5.5086 7.70861 5.5086 7.70854 5.5086 7.70846C5.5086 7.70838 5.5086 7.7083 5.5086 7.70823C5.5086 7.70815 5.5086 7.70807 5.5086 7.70799C5.5086 7.70792 5.5086 7.70784 5.5086 7.70776C5.5086 7.70768 5.5086 7.70761 5.5086 7.70753C5.5086 7.70745 5.5086 7.70738 5.5086 7.7073C5.5086 7.70722 5.5086 7.70714 5.5086 7.70707C5.5086 7.70699 5.5086 7.70691 5.5086 7.70683C5.5086 7.70676 5.5086 7.70668 5.5086 7.7066C5.5086 7.70652 5.5086 7.70645 5.5086 7.70637C5.5086 7.70629 5.5086 7.70621 5.5086 7.70614C5.5086 7.70606 5.5086 7.70598 5.5086 7.7059C5.5086 7.70583 5.5086 7.70575 5.5086 7.70567C5.5086 7.70559 5.5086 7.70552 5.5086 7.70544C5.5086 7.70536 5.5086 7.70528 5.5086 7.70521C5.5086 7.70513 5.5086 7.70505 5.5086 7.70497C5.5086 7.7049 5.5086 7.70482 5.5086 7.70474C5.5086 7.70466 5.5086 7.70459 5.5086 7.70451C5.5086 7.70443 5.5086 7.70435 5.5086 7.70428C5.5086 7.7042 5.5086 7.70412 5.5086 7.70404C5.5086 7.70397 5.5086 7.70389 5.5086 7.70381C5.5086 7.70373 5.5086 7.70366 5.5086 7.70358C5.5086 7.7035 5.5086 7.70342 5.5086 7.70335C5.5086 7.70327 5.5086 7.70319 5.5086 7.70311C5.5086 7.70304 5.5086 7.70296 5.5086 7.70288C5.5086 7.7028 5.5086 7.70273 5.5086 7.70265C5.5086 7.70257 5.5086 7.70249 5.5086 7.70242C5.5086 7.70234 5.5086 7.70226 5.5086 7.70218C5.5086 7.70211 5.5086 7.70203 5.5086 7.70195C5.5086 7.70187 5.5086 7.7018 5.5086 7.70172C5.5086 7.70164 5.5086 7.70156 5.5086 7.70149C5.5086 7.70141 5.5086 7.70133 5.5086 7.70125C5.5086 7.70118 5.5086 7.7011 5.5086 7.70102C5.5086 7.70094 5.5086 7.70087 5.5086 7.70079C5.5086 7.70071 5.5086 7.70063 5.5086 7.70056C5.5086 7.70048 5.5086 7.7004 5.5086 7.70032C5.5086 7.70025 5.5086 7.70017 5.5086 7.70009C5.5086 7.70002 5.5086 7.69994 5.5086 7.69986C5.5086 7.69978 5.5086 7.69971 5.5086 7.69963C5.5086 7.69955 5.5086 7.69947 5.5086 7.6994C5.5086 7.69932 5.5086 7.69924 5.5086 7.69916C5.5086 7.69909 5.5086 7.69901 5.5086 7.69893C5.5086 7.69885 5.5086 7.69878 5.5086 7.6987C5.5086 7.69862 5.5086 7.69854 5.5086 7.69847H4.0086C4.0086 7.69854 4.0086 7.69862 4.0086 7.6987C4.0086 7.69878 4.0086 7.69885 4.0086 7.69893C4.0086 7.69901 4.0086 7.69909 4.0086 7.69916C4.0086 7.69924 4.0086 7.69932 4.0086 7.6994C4.0086 7.69947 4.0086 7.69955 4.0086 7.69963C4.0086 7.69971 4.0086 7.69978 4.0086 7.69986C4.0086 7.69994 4.0086 7.70002 4.0086 7.70009C4.0086 7.70017 4.0086 7.70025 4.0086 7.70032C4.0086 7.7004 4.0086 7.70048 4.0086 7.70056C4.0086 7.70063 4.0086 7.70071 4.0086 7.70079C4.0086 7.70087 4.0086 7.70094 4.0086 7.70102C4.0086 7.7011 4.0086 7.70118 4.0086 7.70125C4.0086 7.70133 4.0086 7.70141 4.0086 7.70149C4.0086 7.70156 4.0086 7.70164 4.0086 7.70172C4.0086 7.7018 4.0086 7.70187 4.0086 7.70195C4.0086 7.70203 4.0086 7.70211 4.0086 7.70218C4.0086 7.70226 4.0086 7.70234 4.0086 7.70242C4.0086 7.70249 4.0086 7.70257 4.0086 7.70265C4.0086 7.70273 4.0086 7.7028 4.0086 7.70288C4.0086 7.70296 4.0086 7.70304 4.0086 7.70311C4.0086 7.70319 4.0086 7.70327 4.0086 7.70335C4.0086 7.70342 4.0086 7.7035 4.0086 7.70358C4.0086 7.70366 4.0086 7.70373 4.0086 7.70381C4.0086 7.70389 4.0086 7.70397 4.0086 7.70404C4.0086 7.70412 4.0086 7.7042 4.0086 7.70428C4.0086 7.70435 4.0086 7.70443 4.0086 7.70451C4.0086 7.70459 4.0086 7.70466 4.0086 7.70474C4.0086 7.70482 4.0086 7.7049 4.0086 7.70497C4.0086 7.70505 4.0086 7.70513 4.0086 7.70521C4.0086 7.70528 4.0086 7.70536 4.0086 7.70544C4.0086 7.70552 4.0086 7.70559 4.0086 7.70567C4.0086 7.70575 4.0086 7.70583 4.0086 7.7059C4.0086 7.70598 4.0086 7.70606 4.0086 7.70614C4.0086 7.70621 4.0086 7.70629 4.0086 7.70637C4.0086 7.70645 4.0086 7.70652 4.0086 7.7066C4.0086 7.70668 4.0086 7.70676 4.0086 7.70683C4.0086 7.70691 4.0086 7.70699 4.0086 7.70707C4.0086 7.70714 4.0086 7.70722 4.0086 7.7073C4.0086 7.70738 4.0086 7.70745 4.0086 7.70753C4.0086 7.70761 4.0086 7.70768 4.0086 7.70776C4.0086 7.70784 4.0086 7.70792 4.0086 7.70799C4.0086 7.70807 4.0086 7.70815 4.0086 7.70823C4.0086 7.7083 4.0086 7.70838 4.0086 7.70846C4.0086 7.70854 4.0086 7.70861 4.0086 7.70869C4.0086 7.70877 4.0086 7.70885 4.0086 7.70892C4.0086 7.709 4.0086 7.70908 4.0086 7.70916C4.0086 7.70923 4.0086 7.70931 4.0086 7.70939C4.0086 7.70947 4.0086 7.70954 4.0086 7.70962C4.0086 7.7097 4.0086 7.70978 4.0086 7.70985C4.0086 7.70993 4.0086 7.71001 4.0086 7.71009C4.0086 7.71016 4.0086 7.71024 4.0086 7.71032C4.0086 7.7104 4.0086 7.71047 4.0086 7.71055C4.0086 7.71063 4.0086 7.71071 4.0086 7.71078C4.0086 7.71086 4.0086 7.71094 4.0086 7.71102C4.0086 7.71109 4.0086 7.71117 4.0086 7.71125C4.0086 7.71133 4.0086 7.7114 4.0086 7.71148C4.0086 7.71156 4.0086 7.71164 4.0086 7.71171C4.0086 7.71179 4.0086 7.71187 4.0086 7.71195C4.0086 7.71202 4.0086 7.7121 4.0086 7.71218C4.0086 7.71226 4.0086 7.71233 4.0086 7.71241C4.0086 7.71249 4.0086 7.71257 4.0086 7.71264C4.0086 7.71272 4.0086 7.7128 4.0086 7.71288C4.0086 7.71295 4.0086 7.71303 4.0086 7.71311C4.0086 7.71319 4.0086 7.71326 4.0086 7.71334C4.0086 7.71342 4.0086 7.7135 4.0086 7.71357C4.0086 7.71365 4.0086 7.71373 4.0086 7.71381C4.0086 7.71388 4.0086 7.71396 4.0086 7.71404C4.0086 7.71412 4.0086 7.71419 4.0086 7.71427C4.0086 7.71435 4.0086 7.71443 4.0086 7.7145C4.0086 7.71458 4.0086 7.71466 4.0086 7.71474C4.0086 7.71481 4.0086 7.71489 4.0086 7.71497C4.0086 7.71504 4.0086 7.71512 4.0086 7.7152C4.0086 7.71528 4.0086 7.71535 4.0086 7.71543C4.0086 7.71551 4.0086 7.71559 4.0086 7.71566C4.0086 7.71574 4.0086 7.71582 4.0086 7.7159C4.0086 7.71597 4.0086 7.71605 4.0086 7.71613C4.0086 7.71621 4.0086 7.71628 4.0086 7.71636C4.0086 7.71644 4.0086 7.71652 4.0086 7.71659C4.0086 7.71667 4.0086 7.71675 4.0086 7.71683C4.0086 7.7169 4.0086 7.71698 4.0086 7.71706C4.0086 7.71714 4.0086 7.71721 4.0086 7.71729C4.0086 7.71737 4.0086 7.71745 4.0086 7.71752C4.0086 7.7176 4.0086 7.71768 4.0086 7.71776C4.0086 7.71783 4.0086 7.71791 4.0086 7.71799C4.0086 7.71807 4.0086 7.71814 4.0086 7.71822C4.0086 7.7183 4.0086 7.71838 4.0086 7.71845C4.0086 7.71853 4.0086 7.71861 4.0086 7.71869C4.0086 7.71876 4.0086 7.71884 4.0086 7.71892C4.0086 7.719 4.0086 7.71907 4.0086 7.71915C4.0086 7.71923 4.0086 7.71931 4.0086 7.71938C4.0086 7.71946 4.0086 7.71954 4.0086 7.71962C4.0086 7.71969 4.0086 7.71977 4.0086 7.71985C4.0086 7.71993 4.0086 7.72 4.0086 7.72008C4.0086 7.72016 4.0086 7.72024 4.0086 7.72031C4.0086 7.72039 4.0086 7.72047 4.0086 7.72055C4.0086 7.72062 4.0086 7.7207 4.0086 7.72078C4.0086 7.72086 4.0086 7.72093 4.0086 7.72101C4.0086 7.72109 4.0086 7.72117 4.0086 7.72124C4.0086 7.72132 4.0086 7.7214 4.0086 7.72148C4.0086 7.72155 4.0086 7.72163 4.0086 7.72171C4.0086 7.72179 4.0086 7.72186 4.0086 7.72194C4.0086 7.72202 4.0086 7.7221 4.0086 7.72217C4.0086 7.72225 4.0086 7.72233 4.0086 7.7224C4.0086 7.72248 4.0086 7.72256 4.0086 7.72264C4.0086 7.72271 4.0086 7.72279 4.0086 7.72287C4.0086 7.72295 4.0086 7.72302 4.0086 7.7231C4.0086 7.72318 4.0086 7.72326 4.0086 7.72333C4.0086 7.72341 4.0086 7.72349 4.0086 7.72357C4.0086 7.72364 4.0086 7.72372 4.0086 7.7238C4.0086 7.72388 4.0086 7.72395 4.0086 7.72403C4.0086 7.72411 4.0086 7.72419 4.0086 7.72426C4.0086 7.72434 4.0086 7.72442 4.0086 7.7245C4.0086 7.72457 4.0086 7.72465 4.0086 7.72473C4.0086 7.72481 4.0086 7.72488 4.0086 7.72496C4.0086 7.72504 4.0086 7.72512 4.0086 7.72519C4.0086 7.72527 4.0086 7.72535 4.0086 7.72543C4.0086 7.7255 4.0086 7.72558 4.0086 7.72566C4.0086 7.72574 4.0086 7.72581 4.0086 7.72589C4.0086 7.72597 4.0086 7.72605 4.0086 7.72612C4.0086 7.7262 4.0086 7.72628 4.0086 7.72636C4.0086 7.72643 4.0086 7.72651 4.0086 7.72659C4.0086 7.72667 4.0086 7.72674 4.0086 7.72682C4.0086 7.7269 4.0086 7.72698 4.0086 7.72705C4.0086 7.72713 4.0086 7.72721 4.0086 7.72729C4.0086 7.72736 4.0086 7.72744 4.0086 7.72752C4.0086 7.7276 4.0086 7.72767 4.0086 7.72775C4.0086 7.72783 4.0086 7.72791 4.0086 7.72798C4.0086 7.72806 4.0086 7.72814 4.0086 7.72822C4.0086 7.72829 4.0086 7.72837 4.0086 7.72845C4.0086 7.72853 4.0086 7.7286 4.0086 7.72868C4.0086 7.72876 4.0086 7.72884 4.0086 7.72891C4.0086 7.72899 4.0086 7.72907 4.0086 7.72915C4.0086 7.72922 4.0086 7.7293 4.0086 7.72938C4.0086 7.72945 4.0086 7.72953 4.0086 7.72961C4.0086 7.72969 4.0086 7.72976 4.0086 7.72984C4.0086 7.72992 4.0086 7.73 4.0086 7.73007C4.0086 7.73015 4.0086 7.73023 4.0086 7.73031C4.0086 7.73038 4.0086 7.73046 4.0086 7.73054C4.0086 7.73062 4.0086 7.73069 4.0086 7.73077C4.0086 7.73085 4.0086 7.73093 4.0086 7.731C4.0086 7.73108 4.0086 7.73116 4.0086 7.73124C4.0086 7.73131 4.0086 7.73139 4.0086 7.73147C4.0086 7.73155 4.0086 7.73162 4.0086 7.7317C4.0086 7.73178 4.0086 7.73186 4.0086 7.73193C4.0086 7.73201 4.0086 7.73209 4.0086 7.73217C4.0086 7.73224 4.0086 7.73232 4.0086 7.7324C4.0086 7.73248 4.0086 7.73255 4.0086 7.73263C4.0086 7.73271 4.0086 7.73279 4.0086 7.73286C4.0086 7.73294 4.0086 7.73302 4.0086 7.7331C4.0086 7.73317 4.0086 7.73325 4.0086 7.73333C4.0086 7.73341 4.0086 7.73348 4.0086 7.73356C4.0086 7.73364 4.0086 7.73372 4.0086 7.73379C4.0086 7.73387 4.0086 7.73395 4.0086 7.73403C4.0086 7.7341 4.0086 7.73418 4.0086 7.73426C4.0086 7.73434 4.0086 7.73441 4.0086 7.73449C4.0086 7.73457 4.0086 7.73465 4.0086 7.73472C4.0086 7.7348 4.0086 7.73488 4.0086 7.73496C4.0086 7.73503 4.0086 7.73511 4.0086 7.73519C4.0086 7.73527 4.0086 7.73534 4.0086 7.73542C4.0086 7.7355 4.0086 7.73558 4.0086 7.73565C4.0086 7.73573 4.0086 7.73581 4.0086 7.73589C4.0086 7.73596 4.0086 7.73604 4.0086 7.73612C4.0086 7.7362 4.0086 7.73627 4.0086 7.73635C4.0086 7.73643 4.0086 7.73651 4.0086 7.73658C4.0086 7.73666 4.0086 7.73674 4.0086 7.73681C4.0086 7.73689 4.0086 7.73697 4.0086 7.73705C4.0086 7.73712 4.0086 7.7372 4.0086 7.73728C4.0086 7.73736 4.0086 7.73743 4.0086 7.73751C4.0086 7.73759 4.0086 7.73767 4.0086 7.73774C4.0086 7.73782 4.0086 7.7379 4.0086 7.73798C4.0086 7.73805 4.0086 7.73813 4.0086 7.73821C4.0086 7.73829 4.0086 7.73836 4.0086 7.73844C4.0086 7.73852 4.0086 7.7386 4.0086 7.73867C4.0086 7.73875 4.0086 7.73883 4.0086 7.73891C4.0086 7.73898 4.0086 7.73906 4.0086 7.73914C4.0086 7.73922 4.0086 7.73929 4.0086 7.73937C4.0086 7.73945 4.0086 7.73953 4.0086 7.7396C4.0086 7.73968 4.0086 7.73976 4.0086 7.73984C4.0086 7.73991 4.0086 7.73999 4.0086 7.74007C4.0086 7.74015 4.0086 7.74022 4.0086 7.7403C4.0086 7.74038 4.0086 7.74046 4.0086 7.74053C4.0086 7.74061 4.0086 7.74069 4.0086 7.74077C4.0086 7.74084 4.0086 7.74092 4.0086 7.741C4.0086 7.74108 4.0086 7.74115 4.0086 7.74123C4.0086 7.74131 4.0086 7.74139 4.0086 7.74146C4.0086 7.74154 4.0086 7.74162 4.0086 7.7417C4.0086 7.74177 4.0086 7.74185 4.0086 7.74193C4.0086 7.74201 4.0086 7.74208 4.0086 7.74216C4.0086 7.74224 4.0086 7.74232 4.0086 7.74239C4.0086 7.74247 4.0086 7.74255 4.0086 7.74263C4.0086 7.7427 4.0086 7.74278 4.0086 7.74286C4.0086 7.74294 4.0086 7.74301 4.0086 7.74309C4.0086 7.74317 4.0086 7.74325 4.0086 7.74332C4.0086 7.7434 4.0086 7.74348 4.0086 7.74356C4.0086 7.74363 4.0086 7.74371 4.0086 7.74379C4.0086 7.74387 4.0086 7.74394 4.0086 7.74402C4.0086 7.7441 4.0086 7.74417 4.0086 7.74425C4.0086 7.74433 4.0086 7.74441 4.0086 7.74448C4.0086 7.74456 4.0086 7.74464 4.0086 7.74472C4.0086 7.74479 4.0086 7.74487 4.0086 7.74495C4.0086 7.74503 4.0086 7.7451 4.0086 7.74518C4.0086 7.74526 4.0086 7.74534 4.0086 7.74541C4.0086 7.74549 4.0086 7.74557 4.0086 7.74565C4.0086 7.74572 4.0086 7.7458 4.0086 7.74588C4.0086 7.74596 4.0086 7.74603 4.0086 7.74611C4.0086 7.74619 4.0086 7.74627 4.0086 7.74634C4.0086 7.74642 4.0086 7.7465 4.0086 7.74658C4.0086 7.74665 4.0086 7.74673 4.0086 7.74681C4.0086 7.74689 4.0086 7.74696 4.0086 7.74704C4.0086 7.74712 4.0086 7.7472 4.0086 7.74727C4.0086 7.74735 4.0086 7.74743 4.0086 7.74751C4.0086 7.74758 4.0086 7.74766 4.0086 7.74774C4.0086 7.74782 4.0086 7.74789 4.0086 7.74797C4.0086 7.74805 4.0086 7.74813 4.0086 7.7482C4.0086 7.74828 4.0086 7.74836 4.0086 7.74844C4.0086 7.74851 4.0086 7.74859 4.0086 7.74867C4.0086 7.74875 4.0086 7.74882 4.0086 7.7489C4.0086 7.74898 4.0086 7.74906 4.0086 7.74913C4.0086 7.74921 4.0086 7.74929 4.0086 7.74937C4.0086 7.74944 4.0086 7.74952 4.0086 7.7496C4.0086 7.74968 4.0086 7.74975 4.0086 7.74983C4.0086 7.74991 4.0086 7.74999 4.0086 7.75006C4.0086 7.75014 4.0086 7.75022 4.0086 7.7503C4.0086 7.75037 4.0086 7.75045 4.0086 7.75053C4.0086 7.75061 4.0086 7.75068 4.0086 7.75076C4.0086 7.75084 4.0086 7.75092 4.0086 7.75099C4.0086 7.75107 4.0086 7.75115 4.0086 7.75122C4.0086 7.7513 4.0086 7.75138 4.0086 7.75146C4.0086 7.75153 4.0086 7.75161 4.0086 7.75169C4.0086 7.75177 4.0086 7.75184 4.0086 7.75192C4.0086 7.752 4.0086 7.75208 4.0086 7.75215C4.0086 7.75223 4.0086 7.75231 4.0086 7.75239C4.0086 7.75246 4.0086 7.75254 4.0086 7.75262C4.0086 7.7527 4.0086 7.75277 4.0086 7.75285C4.0086 7.75293 4.0086 7.75301 4.0086 7.75308C4.0086 7.75316 4.0086 7.75324 4.0086 7.75332C4.0086 7.75339 4.0086 7.75347 4.0086 7.75355C4.0086 7.75363 4.0086 7.7537 4.0086 7.75378C4.0086 7.75386 4.0086 7.75394 4.0086 7.75401C4.0086 7.75409 4.0086 7.75417 4.0086 7.75425C4.0086 7.75432 4.0086 7.7544 4.0086 7.75448C4.0086 7.75456 4.0086 7.75463 4.0086 7.75471C4.0086 7.75479 4.0086 7.75487 4.0086 7.75494C4.0086 7.75502 4.0086 7.7551 4.0086 7.75518C4.0086 7.75525 4.0086 7.75533 4.0086 7.75541C4.0086 7.75549 4.0086 7.75556 4.0086 7.75564C4.0086 7.75572 4.0086 7.7558 4.0086 7.75587C4.0086 7.75595 4.0086 7.75603 4.0086 7.75611C4.0086 7.75618 4.0086 7.75626 4.0086 7.75634C4.0086 7.75642 4.0086 7.75649 4.0086 7.75657C4.0086 7.75665 4.0086 7.75673 4.0086 7.7568C4.0086 7.75688 4.0086 7.75696 4.0086 7.75704C4.0086 7.75711 4.0086 7.75719 4.0086 7.75727C4.0086 7.75735 4.0086 7.75742 4.0086 7.7575C4.0086 7.75758 4.0086 7.75766 4.0086 7.75773C4.0086 7.75781 4.0086 7.75789 4.0086 7.75797C4.0086 7.75804 4.0086 7.75812 4.0086 7.7582C4.0086 7.75828 4.0086 7.75835 4.0086 7.75843C4.0086 7.75851 4.0086 7.75858 4.0086 7.75866C4.0086 7.75874 4.0086 7.75882 4.0086 7.75889C4.0086 7.75897 4.0086 7.75905 4.0086 7.75913C4.0086 7.7592 4.0086 7.75928 4.0086 7.75936C4.0086 7.75944 4.0086 7.75951 4.0086 7.75959C4.0086 7.75967 4.0086 7.75975 4.0086 7.75982C4.0086 7.7599 4.0086 7.75998 4.0086 7.76006C4.0086 7.76013 4.0086 7.76021 4.0086 7.76029C4.0086 7.76037 4.0086 7.76044 4.0086 7.76052C4.0086 7.7606 4.0086 7.76068 4.0086 7.76075C4.0086 7.76083 4.0086 7.76091 4.0086 7.76099C4.0086 7.76106 4.0086 7.76114 4.0086 7.76122C4.0086 7.7613 4.0086 7.76137 4.0086 7.76145C4.0086 7.76153 4.0086 7.76161 4.0086 7.76168C4.0086 7.76176 4.0086 7.76184 4.0086 7.76192C4.0086 7.76199 4.0086 7.76207 4.0086 7.76215C4.0086 7.76223 4.0086 7.7623 4.0086 7.76238C4.0086 7.76246 4.0086 7.76254 4.0086 7.76261C4.0086 7.76269 4.0086 7.76277 4.0086 7.76285C4.0086 7.76292 4.0086 7.763 4.0086 7.76308C4.0086 7.76316 4.0086 7.76323 4.0086 7.76331C4.0086 7.76339 4.0086 7.76347 4.0086 7.76354C4.0086 7.76362 4.0086 7.7637 4.0086 7.76378C4.0086 7.76385 4.0086 7.76393 4.0086 7.76401C4.0086 7.76409 4.0086 7.76416 4.0086 7.76424C4.0086 7.76432 4.0086 7.7644 4.0086 7.76447C4.0086 7.76455 4.0086 7.76463 4.0086 7.76471C4.0086 7.76478 4.0086 7.76486 4.0086 7.76494C4.0086 7.76502 4.0086 7.76509 4.0086 7.76517C4.0086 7.76525 4.0086 7.76533 4.0086 7.7654C4.0086 7.76548 4.0086 7.76556 4.0086 7.76564C4.0086 7.76571 4.0086 7.76579 4.0086 7.76587C4.0086 7.76595 4.0086 7.76602 4.0086 7.7661C4.0086 7.76618 4.0086 7.76625 4.0086 7.76633C4.0086 7.76641 4.0086 7.76649 4.0086 7.76656C4.0086 7.76664 4.0086 7.76672 4.0086 7.7668C4.0086 7.76687 4.0086 7.76695 4.0086 7.76703C4.0086 7.76711 4.0086 7.76718 4.0086 7.76726C4.0086 7.76734 4.0086 7.76742 4.0086 7.76749C4.0086 7.76757 4.0086 7.76765 4.0086 7.76773C4.0086 7.7678 4.0086 7.76788 4.0086 7.76796C4.0086 7.76804 4.0086 7.76811 4.0086 7.76819C4.0086 7.76827 4.0086 7.76835 4.0086 7.76842C4.0086 7.7685 4.0086 7.76858 4.0086 7.76866C4.0086 7.76873 4.0086 7.76881 4.0086 7.76889C4.0086 7.76897 4.0086 7.76904 4.0086 7.76912C4.0086 7.7692 4.0086 7.76928 4.0086 7.76935C4.0086 7.76943 4.0086 7.76951 4.0086 7.76959C4.0086 7.76966 4.0086 7.76974 4.0086 7.76982C4.0086 7.7699 4.0086 7.76997 4.0086 7.77005C4.0086 7.77013 4.0086 7.77021 4.0086 7.77028C4.0086 7.77036 4.0086 7.77044 4.0086 7.77052C4.0086 7.77059 4.0086 7.77067 4.0086 7.77075C4.0086 7.77083 4.0086 7.7709 4.0086 7.77098C4.0086 7.77106 4.0086 7.77114 4.0086 7.77121C4.0086 7.77129 4.0086 7.77137 4.0086 7.77145C4.0086 7.77152 4.0086 7.7716 4.0086 7.77168C4.0086 7.77176 4.0086 7.77183 4.0086 7.77191C4.0086 7.77199 4.0086 7.77207 4.0086 7.77214C4.0086 7.77222 4.0086 7.7723 4.0086 7.77238C4.0086 7.77245 4.0086 7.77253 4.0086 7.77261C4.0086 7.77269 4.0086 7.77276 4.0086 7.77284C4.0086 7.77292 4.0086 7.773 4.0086 7.77307C4.0086 7.77315 4.0086 7.77323 4.0086 7.77331C4.0086 7.77338 4.0086 7.77346 4.0086 7.77354C4.0086 7.77362 4.0086 7.77369 4.0086 7.77377C4.0086 7.77385 4.0086 7.77392 4.0086 7.774C4.0086 7.77408 4.0086 7.77416 4.0086 7.77423C4.0086 7.77431 4.0086 7.77439 4.0086 7.77447C4.0086 7.77454 4.0086 7.77462 4.0086 7.7747C4.0086 7.77478 4.0086 7.77485 4.0086 7.77493C4.0086 7.77501 4.0086 7.77509 4.0086 7.77516C4.0086 7.77524 4.0086 7.77532 4.0086 7.7754C4.0086 7.77547 4.0086 7.77555 4.0086 7.77563C4.0086 7.77571 4.0086 7.77578 4.0086 7.77586C4.0086 7.77594 4.0086 7.77602 4.0086 7.77609C4.0086 7.77617 4.0086 7.77625 4.0086 7.77633C4.0086 7.7764 4.0086 7.77648 4.0086 7.77656C4.0086 7.77664 4.0086 7.77671 4.0086 7.77679C4.0086 7.77687 4.0086 7.77695 4.0086 7.77702C4.0086 7.7771 4.0086 7.77718 4.0086 7.77726C4.0086 7.77733 4.0086 7.77741 4.0086 7.77749C4.0086 7.77757 4.0086 7.77764 4.0086 7.77772C4.0086 7.7778 4.0086 7.77788 4.0086 7.77795C4.0086 7.77803 4.0086 7.77811 4.0086 7.77819C4.0086 7.77826 4.0086 7.77834 4.0086 7.77842C4.0086 7.7785 4.0086 7.77857 4.0086 7.77865C4.0086 7.77873 4.0086 7.77881 4.0086 7.77888C4.0086 7.77896 4.0086 7.77904 4.0086 7.77912C4.0086 7.77919 4.0086 7.77927 4.0086 7.77935C4.0086 7.77943 4.0086 7.7795 4.0086 7.77958C4.0086 7.77966 4.0086 7.77974 4.0086 7.77981C4.0086 7.77989 4.0086 7.77997 4.0086 7.78005C4.0086 7.78012 4.0086 7.7802 4.0086 7.78028C4.0086 7.78036 4.0086 7.78043 4.0086 7.78051C4.0086 7.78059 4.0086 7.78067 4.0086 7.78074C4.0086 7.78082 4.0086 7.7809 4.0086 7.78098C4.0086 7.78105 4.0086 7.78113 4.0086 7.78121C4.0086 7.78129 4.0086 7.78136 4.0086 7.78144C4.0086 7.78152 4.0086 7.78159 4.0086 7.78167C4.0086 7.78175 4.0086 7.78183 4.0086 7.7819C4.0086 7.78198 4.0086 7.78206 4.0086 7.78214C4.0086 7.78221 4.0086 7.78229 4.0086 7.78237C4.0086 7.78245 4.0086 7.78252 4.0086 7.7826C4.0086 7.78268 4.0086 7.78276 4.0086 7.78283C4.0086 7.78291 4.0086 7.78299 4.0086 7.78307C4.0086 7.78314 4.0086 7.78322 4.0086 7.7833C4.0086 7.78338 4.0086 7.78345 4.0086 7.78353C4.0086 7.78361 4.0086 7.78369 4.0086 7.78376C4.0086 7.78384 4.0086 7.78392 4.0086 7.784C4.0086 7.78407 4.0086 7.78415 4.0086 7.78423C4.0086 7.78431 4.0086 7.78438 4.0086 7.78446C4.0086 7.78454 4.0086 7.78462 4.0086 7.78469C4.0086 7.78477 4.0086 7.78485 4.0086 7.78493C4.0086 7.785 4.0086 7.78508 4.0086 7.78516C4.0086 7.78524 4.0086 7.78531 4.0086 7.78539C4.0086 7.78547 4.0086 7.78555 4.0086 7.78562C4.0086 7.7857 4.0086 7.78578 4.0086 7.78586C4.0086 7.78593 4.0086 7.78601 4.0086 7.78609C4.0086 7.78617 4.0086 7.78624 4.0086 7.78632C4.0086 7.7864 4.0086 7.78648 4.0086 7.78655C4.0086 7.78663 4.0086 7.78671 4.0086 7.78679C4.0086 7.78686 4.0086 7.78694 4.0086 7.78702C4.0086 7.7871 4.0086 7.78717 4.0086 7.78725C4.0086 7.78733 4.0086 7.78741 4.0086 7.78748C4.0086 7.78756 4.0086 7.78764 4.0086 7.78772C4.0086 7.78779 4.0086 7.78787 4.0086 7.78795C4.0086 7.78803 4.0086 7.7881 4.0086 7.78818C4.0086 7.78826 4.0086 7.78834 4.0086 7.78841C4.0086 7.78849 4.0086 7.78857 4.0086 7.78865C4.0086 7.78872 4.0086 7.7888 4.0086 7.78888C4.0086 7.78896 4.0086 7.78903 4.0086 7.78911C4.0086 7.78919 4.0086 7.78926 4.0086 7.78934C4.0086 7.78942 4.0086 7.7895 4.0086 7.78957C4.0086 7.78965 4.0086 7.78973 4.0086 7.78981C4.0086 7.78988 4.0086 7.78996 4.0086 7.79004C4.0086 7.79012 4.0086 7.79019 4.0086 7.79027C4.0086 7.79035 4.0086 7.79043 4.0086 7.7905C4.0086 7.79058 4.0086 7.79066 4.0086 7.79074C4.0086 7.79081 4.0086 7.79089 4.0086 7.79097C4.0086 7.79105 4.0086 7.79112 4.0086 7.7912C4.0086 7.79128 4.0086 7.79136 4.0086 7.79143C4.0086 7.79151 4.0086 7.79159 4.0086 7.79167C4.0086 7.79174 4.0086 7.79182 4.0086 7.7919C4.0086 7.79198 4.0086 7.79205 4.0086 7.79213C4.0086 7.79221 4.0086 7.79229 4.0086 7.79236C4.0086 7.79244 4.0086 7.79252 4.0086 7.7926C4.0086 7.79267 4.0086 7.79275 4.0086 7.79283C4.0086 7.79291 4.0086 7.79298 4.0086 7.79306C4.0086 7.79314 4.0086 7.79322 4.0086 7.79329C4.0086 7.79337 4.0086 7.79345 4.0086 7.79353C4.0086 7.7936 4.0086 7.79368 4.0086 7.79376C4.0086 7.79384 4.0086 7.79391 4.0086 7.79399C4.0086 7.79407 4.0086 7.79415 4.0086 7.79422C4.0086 7.7943 4.0086 7.79438 4.0086 7.79446C4.0086 7.79453 4.0086 7.79461 4.0086 7.79469C4.0086 7.79477 4.0086 7.79484 4.0086 7.79492C4.0086 7.795 4.0086 7.79508 4.0086 7.79515C4.0086 7.79523 4.0086 7.79531 4.0086 7.79539C4.0086 7.79546 4.0086 7.79554 4.0086 7.79562C4.0086 7.7957 4.0086 7.79577 4.0086 7.79585C4.0086 7.79593 4.0086 7.79601 4.0086 7.79608C4.0086 7.79616 4.0086 7.79624 4.0086 7.79632C4.0086 7.79639 4.0086 7.79647 4.0086 7.79655C4.0086 7.79663 4.0086 7.7967 4.0086 7.79678C4.0086 7.79686 4.0086 7.79693 4.0086 7.79701C4.0086 7.79709 4.0086 7.79717 4.0086 7.79724C4.0086 7.79732 4.0086 7.7974 4.0086 7.79748C4.0086 7.79755 4.0086 7.79763 4.0086 7.79771C4.0086 7.79779 4.0086 7.79786 4.0086 7.79794C4.0086 7.79802 4.0086 7.7981 4.0086 7.79817C4.0086 7.79825 4.0086 7.79833 4.0086 7.79841C4.0086 7.79848 4.0086 7.79856 4.0086 7.79864C4.0086 7.79872 4.0086 7.79879 4.0086 7.79887C4.0086 7.79895 4.0086 7.79903 4.0086 7.7991C4.0086 7.79918 4.0086 7.79926 4.0086 7.79934C4.0086 7.79941 4.0086 7.79949 4.0086 7.79957C4.0086 7.79965 4.0086 7.79972 4.0086 7.7998C4.0086 7.79988 4.0086 7.79996 4.0086 7.80003C4.0086 7.80011 4.0086 7.80019 4.0086 7.80027C4.0086 7.80034 4.0086 7.80042 4.0086 7.8005C4.0086 7.80058 4.0086 7.80065 4.0086 7.80073C4.0086 7.80081 4.0086 7.80089 4.0086 7.80096C4.0086 7.80104 4.0086 7.80112 4.0086 7.8012C4.0086 7.80127 4.0086 7.80135 4.0086 7.80143C4.0086 7.80151 4.0086 7.80158 4.0086 7.80166C4.0086 7.80174 4.0086 7.80182 4.0086 7.80189C4.0086 7.80197 4.0086 7.80205 4.0086 7.80213C4.0086 7.8022 4.0086 7.80228 4.0086 7.80236C4.0086 7.80244 4.0086 7.80251 4.0086 7.80259C4.0086 7.80267 4.0086 7.80275 4.0086 7.80282C4.0086 7.8029 4.0086 7.80298 4.0086 7.80306C4.0086 7.80313 4.0086 7.80321 4.0086 7.80329C4.0086 7.80337 4.0086 7.80344 4.0086 7.80352C4.0086 7.8036 4.0086 7.80368 4.0086 7.80375C4.0086 7.80383 4.0086 7.80391 4.0086 7.80399C4.0086 7.80406 4.0086 7.80414 4.0086 7.80422C4.0086 7.8043 4.0086 7.80437 4.0086 7.80445C4.0086 7.80453 4.0086 7.80461 4.0086 7.80468C4.0086 7.80476 4.0086 7.80484 4.0086 7.80491C4.0086 7.80499 4.0086 7.80507 4.0086 7.80515C4.0086 7.80522 4.0086 7.8053 4.0086 7.80538C4.0086 7.80546 4.0086 7.80553 4.0086 7.80561C4.0086 7.80569 4.0086 7.80577 4.0086 7.80584C4.0086 7.80592 4.0086 7.806 4.0086 7.80608C4.0086 7.80615 4.0086 7.80623 4.0086 7.80631C4.0086 7.80639 4.0086 7.80646 4.0086 7.80654C4.0086 7.80662 4.0086 7.8067 4.0086 7.80677C4.0086 7.80685 4.0086 7.80693 4.0086 7.80701C4.0086 7.80708 4.0086 7.80716 4.0086 7.80724C4.0086 7.80732 4.0086 7.80739 4.0086 7.80747C4.0086 7.80755 4.0086 7.80763 4.0086 7.8077C4.0086 7.80778 4.0086 7.80786 4.0086 7.80794C4.0086 7.80801 4.0086 7.80809 4.0086 7.80817C4.0086 7.80825 4.0086 7.80832 4.0086 7.8084C4.0086 7.80848 4.0086 7.80856 4.0086 7.80863C4.0086 7.80871 4.0086 7.80879 4.0086 7.80887C4.0086 7.80894 4.0086 7.80902 4.0086 7.8091C4.0086 7.80918 4.0086 7.80925 4.0086 7.80933C4.0086 7.80941 4.0086 7.80949 4.0086 7.80956C4.0086 7.80964 4.0086 7.80972 4.0086 7.8098C4.0086 7.80987 4.0086 7.80995 4.0086 7.81003C4.0086 7.81011 4.0086 7.81018 4.0086 7.81026C4.0086 7.81034 4.0086 7.81042 4.0086 7.81049C4.0086 7.81057 4.0086 7.81065 4.0086 7.81073C4.0086 7.8108 4.0086 7.81088 4.0086 7.81096C4.0086 7.81104 4.0086 7.81111 4.0086 7.81119C4.0086 7.81127 4.0086 7.81135 4.0086 7.81142C4.0086 7.8115 4.0086 7.81158 4.0086 7.81166C4.0086 7.81173 4.0086 7.81181 4.0086 7.81189C4.0086 7.81196 4.0086 7.81204 4.0086 7.81212C4.0086 7.8122 4.0086 7.81227 4.0086 7.81235C4.0086 7.81243 4.0086 7.81251 4.0086 7.81258C4.0086 7.81266 4.0086 7.81274 4.0086 7.81282C4.0086 7.81289 4.0086 7.81297 4.0086 7.81305C4.0086 7.81313 4.0086 7.8132 4.0086 7.81328C4.0086 7.81336 4.0086 7.81344 4.0086 7.81351C4.0086 7.81359 4.0086 7.81367 4.0086 7.81375C4.0086 7.81382 4.0086 7.8139 4.0086 7.81398C4.0086 7.81406 4.0086 7.81413 4.0086 7.81421C4.0086 7.81429 4.0086 7.81437 4.0086 7.81444C4.0086 7.81452 4.0086 7.8146 4.0086 7.81468C4.0086 7.81475 4.0086 7.81483 4.0086 7.81491C4.0086 7.81499 4.0086 7.81506 4.0086 7.81514C4.0086 7.81522 4.0086 7.8153 4.0086 7.81537C4.0086 7.81545 4.0086 7.81553 4.0086 7.81561C4.0086 7.81568 4.0086 7.81576 4.0086 7.81584C4.0086 7.81592 4.0086 7.81599 4.0086 7.81607C4.0086 7.81615 4.0086 7.81623 4.0086 7.8163C4.0086 7.81638 4.0086 7.81646 4.0086 7.81654C4.0086 7.81661 4.0086 7.81669 4.0086 7.81677C4.0086 7.81685 4.0086 7.81692 4.0086 7.817C4.0086 7.81708 4.0086 7.81716 4.0086 7.81723C4.0086 7.81731 4.0086 7.81739 4.0086 7.81747H5.5086ZM5.50777 7.73377C5.59095 5.96849 7.08267 4.60092 8.84851 4.67104L8.90803 3.17222C6.31874 3.0694 4.1314 5.07471 4.00943 7.66316L5.50777 7.73377ZM8.8797 4.67163C9.30794 4.67081 9.73305 4.74452 10.136 4.88946L10.6437 3.47798C10.077 3.27414 9.47909 3.17048 8.87683 3.17163L8.8797 4.67163ZM11.0568 4.52684C11.9221 2.84484 13.6692 1.80184 15.5604 1.83816L15.5893 0.338437C13.1258 0.291123 10.8502 1.64969 9.72294 3.84059L11.0568 4.52684ZM15.6061 1.83765C18.1906 1.73003 20.3754 3.73296 20.4923 6.3171L21.9907 6.24933C21.8365 2.8397 18.9538 0.19695 15.5436 0.338948L15.6061 1.83765ZM20.4915 6.28387C20.4919 6.71 20.4249 7.1335 20.2931 7.53873L21.7196 8.0027C21.9002 7.44722 21.992 6.86668 21.9915 6.28256L20.4915 6.28387ZM20.8997 8.5131C22.4001 8.72856 23.5305 9.98798 23.5831 11.5028L25.0822 11.4507C25.0043 9.20997 23.3322 7.34703 21.113 7.02833L20.8997 8.5131ZM23.5835 11.4417C23.5009 13.2079 22.0083 14.5763 20.2416 14.5056L20.1816 16.0044C22.7721 16.1081 24.9608 14.1015 25.0819 11.5117L23.5835 11.4417ZM12.2493 12.4216V20.9216H13.7493V12.4216H12.2493ZM12.469 11.8913L9.63569 14.7246L10.6963 15.7853L13.5297 12.952L12.469 11.8913ZM12.4697 12.9522L15.303 15.7855L16.3637 14.7249L13.5303 11.8915L12.4697 12.9522Z" fill="#272D2F"/>
</svg>
